{"glyphs":{"0":{"ha":833,"x_min":0,"x_max":0,"o":""},"1":{"ha":833,"x_min":0,"x_max":0,"o":""},"2":{"ha":833,"x_min":0,"x_max":0,"o":""},"3":{"ha":833,"x_min":0,"x_max":0,"o":""},"4":{"ha":833,"x_min":0,"x_max":0,"o":""},"5":{"ha":833,"x_min":0,"x_max":0,"o":""},"6":{"ha":833,"x_min":0,"x_max":0,"o":""},"7":{"ha":833,"x_min":0,"x_max":0,"o":""},"8":{"ha":833,"x_min":0,"x_max":0,"o":""},"9":{"ha":833,"x_min":0,"x_max":0,"o":""},"A":{"ha":810,"x_min":0,"x_max":0,"o":"m 775 -115 l 744 -121 l 725 38 b 721 68 725 49 722 58 b 706 103 718 79 711 92 b 685 132 699 113 694 125 b 664 129 678 129 671 129 b 650 133 661 129 654 132 b 640 156 640 140 640 153 l 640 179 b 636 217 640 193 640 204 b 621 240 633 226 628 233 b 607 264 617 249 613 257 b 600 285 604 271 603 278 b 586 313 596 296 593 306 b 563 326 582 318 572 322 b 553 332 560 326 556 329 b 532 350 543 335 536 342 l 231 350 b 224 318 228 339 225 329 b 203 264 218 301 214 281 b 181 238 194 254 188 247 b 160 194 167 221 156 207 l 164 163 l 136 179 b 129 172 133 179 132 176 b 126 150 126 164 126 157 b 125 140 126 146 126 143 b 61 0 122 86 89 38 l 35 18 b 94 143 61 54 92 96 l 94 150 b 101 183 94 160 94 172 b 125 207 106 194 113 203 b 126 210 125 207 126 207 b 157 258 132 228 146 244 b 176 281 164 265 171 272 b 193 325 183 294 188 311 b 233 508 207 386 221 447 b 244 535 235 518 240 525 l 247 539 b 261 556 249 543 251 551 b 288 556 272 560 282 558 b 292 553 289 556 292 553 b 294 569 292 556 294 560 l 288 661 l 303 661 b 336 694 318 661 332 678 b 343 721 342 704 342 711 b 356 765 346 736 349 751 l 357 769 b 363 779 360 772 363 776 b 360 783 363 779 360 782 l 360 786 b 365 831 356 803 360 819 l 346 833 l 343 861 b 346 928 342 883 342 904 l 363 1031 l 376 928 b 410 892 379 911 393 897 b 424 888 414 892 419 890 b 433 876 428 885 431 881 b 442 836 442 864 442 850 b 447 814 442 829 444 819 b 457 800 450 810 451 806 b 464 789 458 799 461 793 b 481 728 478 769 478 749 b 489 682 482 711 482 694 b 496 674 492 681 494 675 b 504 661 499 668 501 667 b 518 610 513 643 515 624 b 511 546 519 589 519 567 b 506 539 511 543 508 542 b 504 532 506 536 506 535 b 501 522 501 529 501 528 b 506 532 504 525 504 529 b 518 551 511 539 513 543 b 565 567 532 565 550 572 b 586 556 574 565 582 558 l 607 536 b 619 525 610 535 614 529 b 603 482 626 508 617 489 b 583 475 597 478 590 478 b 576 474 582 475 579 474 b 535 410 556 464 543 435 b 532 400 532 407 532 403 b 542 389 532 397 539 390 b 553 376 546 386 549 381 b 567 360 556 372 563 363 b 576 356 569 357 572 356 b 610 335 586 350 597 346 b 628 294 621 322 626 308 b 636 278 631 289 633 282 l 647 258 b 667 228 654 249 661 240 b 671 176 671 211 671 193 l 671 163 b 688 163 678 163 682 163 l 694 164 l 699 160 b 735 118 715 150 725 133 b 751 78 739 106 746 92 b 758 42 756 65 756 54 m 403 861 b 374 876 393 864 383 868 l 374 864 l 376 861 l 410 854 b 407 860 410 857 407 860 b 403 861 407 861 404 861 m 506 381 b 501 396 504 386 501 390 b 504 421 499 404 501 414 b 565 501 515 451 532 489 b 576 506 569 504 572 504 b 586 511 579 506 583 508 l 589 511 b 586 513 589 513 589 513 l 567 529 b 558 536 563 532 560 536 b 543 529 553 539 549 535 b 535 515 539 525 536 519 b 522 501 529 511 528 506 b 481 478 518 494 504 475 l 468 481 l 468 492 b 475 549 465 515 468 532 b 481 553 478 551 478 551 b 482 560 481 556 482 558 b 488 606 489 572 488 590 b 475 644 485 621 482 636 b 471 657 475 650 474 651 b 461 668 468 660 464 664 b 450 725 451 688 451 706 b 438 772 447 742 447 760 b 431 782 435 775 433 776 b 419 800 426 786 421 793 b 411 836 411 813 411 824 b 410 850 411 840 411 844 l 403 836 b 390 796 393 822 386 807 l 390 790 b 393 779 390 789 393 783 b 386 756 393 769 388 763 l 386 753 b 374 715 379 742 376 729 b 367 685 372 706 372 694 b 319 631 360 661 343 640 l 325 572 b 315 532 325 565 325 543 b 294 522 308 525 301 522 b 278 525 288 522 279 525 b 275 528 275 525 275 528 l 275 525 l 271 519 l 264 501 b 238 381 257 461 247 421 "},"B":{"ha":651,"x_min":0,"x_max":0,"o":"m 599 531 b 615 476 613 517 619 494 b 582 439 610 460 599 446 b 575 375 575 422 572 399 l 575 371 b 578 351 575 365 578 358 b 572 331 575 344 575 338 l 554 271 b 551 263 554 269 554 267 b 511 264 542 250 521 253 b 507 276 508 269 507 274 b 504 281 504 278 504 278 b 493 281 501 283 497 283 b 485 264 488 278 485 271 b 474 231 485 253 483 239 b 454 224 469 226 463 224 b 436 240 447 226 440 231 b 424 267 431 247 426 257 b 422 263 424 264 422 264 b 417 246 419 257 419 253 b 413 224 417 239 415 231 b 386 186 408 208 396 196 b 339 146 372 172 356 158 l 315 128 l 314 158 l 314 172 b 311 163 311 169 311 165 b 304 144 308 158 307 151 b 283 122 300 135 290 128 l 281 121 b 274 111 278 118 274 114 l 281 114 l 285 101 b 292 78 290 92 290 85 b 294 61 292 74 294 68 b 288 10 308 29 294 14 b 247 14 276 3 260 6 b 231 36 240 22 236 29 l 222 54 l 206 50 b 176 64 196 47 183 53 l 183 50 l 165 46 b 128 31 151 40 139 36 b 125 26 125 29 125 29 b 128 14 122 26 125 19 b 132 -4 129 10 132 3 b 121 -47 135 -21 125 -35 b 111 -65 115 -54 111 -61 l 111 -72 l 78 -75 l 78 -62 l 78 572 b 67 579 75 572 71 575 b 57 619 54 588 47 603 l 60 625 l 67 626 l 78 626 l 78 985 l 106 971 b 114 967 108 968 111 968 b 142 924 132 954 142 940 b 135 897 142 914 139 904 b 132 886 135 893 132 886 b 135 883 132 886 132 883 l 138 881 b 158 829 153 872 160 853 b 156 813 158 822 158 818 b 156 788 156 804 153 796 b 172 764 156 778 163 768 b 193 754 179 758 186 754 b 222 772 203 764 213 771 l 238 772 b 246 775 240 772 243 775 b 276 788 254 775 267 782 b 331 804 292 796 311 806 b 361 785 344 801 356 794 b 361 764 363 775 363 768 b 318 700 358 747 351 710 b 307 697 314 697 311 697 b 300 696 304 697 301 697 l 301 683 b 304 674 301 681 304 676 l 318 674 b 354 669 328 676 342 679 b 365 613 365 663 375 649 b 346 592 363 608 361 596 b 314 610 332 588 318 594 b 308 618 311 613 311 615 l 308 622 b 300 626 307 625 307 625 b 115 601 238 643 169 633 b 111 599 114 601 111 601 l 111 589 b 125 572 115 585 121 578 b 139 558 129 565 135 561 b 172 558 146 551 158 556 b 200 564 182 561 192 564 b 236 558 213 564 224 561 b 276 558 253 556 264 554 b 283 561 278 558 281 561 b 308 568 290 565 297 571 b 349 540 328 568 339 551 b 382 501 358 525 369 514 b 406 490 392 494 399 490 b 433 493 415 488 424 490 l 500 511 b 521 511 504 511 511 514 b 535 501 528 510 532 507 b 539 500 538 501 538 501 b 551 500 542 497 547 500 b 558 510 554 501 558 507 b 568 533 558 517 558 525 b 599 531 578 540 589 538 m 153 738 b 125 785 138 750 128 765 b 125 818 122 794 122 806 b 128 829 125 822 125 825 b 118 856 128 842 125 853 l 115 858 l 111 863 l 111 636 b 276 663 160 663 219 672 b 271 674 274 667 274 672 b 281 721 268 681 264 707 b 304 728 288 726 297 728 b 308 731 307 728 308 728 b 331 768 318 733 325 744 l 331 771 b 328 771 331 771 331 771 b 292 758 318 772 304 765 b 247 742 278 751 264 744 l 240 742 b 231 742 236 742 233 742 b 217 733 224 740 219 735 l 214 726 l 206 724 b 153 738 189 721 169 726 m 338 643 b 331 646 335 643 332 646 l 332 643 b 338 633 335 642 338 636 l 338 643 m 585 493 b 563 471 579 483 572 476 b 521 476 549 464 532 467 b 517 479 518 476 517 479 b 511 481 514 481 511 481 l 507 481 l 440 463 b 400 460 429 460 415 457 b 363 479 385 463 372 469 b 322 521 346 490 335 504 b 307 538 318 528 311 538 b 297 533 304 538 300 535 b 288 528 292 531 290 531 b 231 528 268 521 247 525 b 203 531 219 531 210 533 b 179 528 196 531 189 531 b 122 531 163 524 142 518 b 111 540 118 533 114 535 l 111 57 l 114 57 b 139 71 121 61 129 67 b 139 88 139 76 138 81 b 153 111 139 97 146 107 b 176 114 163 115 169 118 l 182 114 b 210 131 189 122 199 131 l 219 131 l 260 53 b 268 38 261 46 264 40 b 267 50 268 40 268 46 b 260 74 261 60 261 67 l 260 81 b 250 88 257 83 253 85 b 240 114 243 94 238 104 b 261 146 243 131 254 139 l 264 146 b 276 158 268 151 274 156 b 281 169 278 161 278 165 b 307 206 283 182 288 200 b 339 186 321 208 332 200 b 363 210 349 193 356 200 b 385 236 372 217 379 226 l 386 250 b 393 274 389 257 389 267 b 422 300 399 288 410 297 b 447 297 431 301 440 301 l 454 293 l 454 283 l 454 278 b 478 308 460 290 467 301 b 531 300 494 318 518 314 l 542 339 b 544 354 544 344 544 349 l 544 365 l 544 372 b 556 460 539 403 544 436 l 561 467 l 568 469 b 585 483 575 469 582 476 "},"C":{"ha":949,"x_min":0,"x_max":0,"o":"m 914 254 b 908 250 911 254 908 253 l 908 240 b 908 219 908 236 911 226 b 867 192 901 199 881 193 l 861 189 b 838 179 854 186 844 185 b 826 168 831 175 829 172 l 826 163 b 844 146 831 163 840 158 l 844 139 l 840 132 b 796 104 829 121 813 108 l 790 104 l 786 107 b 760 111 776 108 768 111 b 742 107 753 111 746 111 b 736 100 742 104 739 101 b 732 92 735 97 735 94 b 728 85 729 90 729 88 b 718 74 722 81 718 76 l 718 68 b 715 57 718 67 718 61 b 701 43 714 53 706 46 b 682 46 694 40 690 43 b 674 57 675 47 674 54 b 660 60 671 60 668 61 l 654 60 b 607 50 638 57 621 54 b 597 36 606 50 600 40 b 582 14 593 29 589 22 l 579 13 l 574 7 b 574 6 574 7 574 6 b 572 -1 574 3 572 0 b 549 -18 567 -11 558 -18 l 539 -18 l 535 -8 b 522 10 532 -1 528 3 b 518 0 519 7 519 3 b 494 -4 508 -7 499 -7 l 468 -4 b 421 0 454 -7 438 -7 b 397 24 411 6 403 14 b 396 36 397 24 396 29 b 400 47 396 40 397 46 l 400 53 b 396 54 397 54 397 54 b 389 53 396 54 393 53 b 365 53 383 53 374 50 b 350 64 357 54 353 60 b 346 67 349 64 349 67 b 336 68 343 68 342 68 b 326 64 332 68 329 67 b 308 50 322 57 313 53 b 303 47 306 50 306 47 b 268 47 292 40 278 40 b 258 60 264 53 258 54 b 240 85 251 67 244 76 b 226 108 235 90 228 100 b 221 135 221 118 221 125 l 218 139 b 108 271 211 199 164 253 l 101 274 b 79 281 94 276 86 278 b 65 290 72 283 68 288 l 61 294 l 56 314 b 242 843 -7 510 71 728 b 829 788 426 964 671 940 b 888 714 850 764 871 740 l 861 696 b 806 764 844 721 826 742 b 258 815 660 907 431 931 b 86 321 99 710 28 504 l 89 311 b 94 308 92 311 92 311 b 110 304 99 307 103 307 l 118 301 b 251 144 186 281 240 217 l 251 138 b 254 121 251 131 254 125 b 265 101 257 114 261 108 b 282 76 271 94 278 85 b 285 74 285 76 285 74 b 289 76 285 74 288 76 b 296 78 292 78 294 78 b 301 83 299 81 301 81 b 332 100 308 92 319 100 b 367 92 343 101 357 100 b 372 85 367 90 369 88 b 376 83 374 85 374 83 l 383 83 b 400 85 389 85 393 85 b 428 64 411 83 421 76 b 428 36 433 54 433 43 l 435 29 b 468 26 443 24 454 26 b 488 26 474 26 481 29 l 488 31 b 515 50 489 43 501 53 b 535 40 525 50 529 46 b 549 26 542 36 546 31 l 558 36 l 560 38 b 569 53 563 40 567 46 b 597 81 574 61 583 76 b 651 90 614 85 633 88 l 654 90 b 690 85 668 92 681 90 b 701 107 692 94 697 101 b 706 111 704 108 706 111 b 711 115 708 114 708 115 b 722 131 714 121 715 125 b 763 142 732 139 746 144 b 790 138 772 142 782 139 b 803 142 796 139 800 139 b 799 179 796 151 793 165 b 822 206 800 189 810 199 b 854 219 831 213 843 217 l 860 222 b 878 229 867 224 876 226 l 878 239 b 878 254 878 243 876 247 b 901 285 881 269 890 281 l 914 254 "},"D":{"ha":963,"x_min":0,"x_max":0,"o":"m 925 538 b 928 518 928 533 929 525 b 921 507 925 514 921 510 b 881 488 914 500 899 486 b 864 493 874 488 869 490 b 874 467 871 486 875 476 b 851 450 871 457 861 450 b 836 450 844 447 840 450 l 833 453 b 786 460 807 460 790 463 l 779 453 b 753 440 775 447 767 439 b 742 443 749 440 743 440 l 739 440 l 728 432 l 739 432 b 790 408 749 432 779 433 l 800 389 l 776 386 b 718 361 756 385 735 375 b 751 339 728 361 749 358 b 743 324 751 332 749 328 b 718 314 736 314 725 314 b 667 278 697 311 681 294 l 661 274 l 657 274 b 651 269 654 274 651 271 b 651 263 650 267 650 264 l 654 254 l 651 247 b 626 219 647 236 638 224 b 633 217 628 217 631 217 b 638 219 635 219 635 219 b 657 226 643 222 650 226 b 697 186 671 226 688 219 b 699 172 697 185 699 179 b 689 158 697 163 692 158 b 681 151 688 156 682 154 b 668 135 675 146 667 139 l 668 132 b 668 122 668 128 668 125 b 651 90 671 108 664 97 b 614 88 640 83 626 81 b 610 90 614 88 613 90 l 607 92 b 596 85 607 92 603 90 b 569 61 586 76 579 67 l 543 46 l 535 53 b 525 53 532 54 526 54 b 508 47 519 50 515 47 b 494 54 501 47 496 53 l 488 60 b 468 71 481 67 475 74 b 451 60 464 71 458 67 b 442 50 450 57 447 53 b 396 29 428 38 411 33 b 357 10 381 24 364 19 b 319 -1 353 3 336 -14 b 310 31 308 3 306 17 l 318 40 b 319 43 318 40 319 43 b 319 53 322 47 322 53 b 313 53 319 54 315 54 b 296 40 308 50 301 46 b 264 36 285 29 271 33 l 264 33 b 251 -7 264 24 265 6 b 228 -14 244 -14 233 -14 b 179 -35 207 -14 190 -21 l 174 -40 l 167 -40 b 147 -28 157 -40 150 -35 b 147 -4 143 -21 143 -11 b 132 -17 143 -8 139 -14 b 82 -17 125 -21 96 -24 l 72 -11 l 72 917 b 68 914 71 917 71 914 l 47 938 b 78 957 56 944 68 951 b 139 967 89 964 115 975 b 163 944 147 961 156 951 b 179 900 169 935 183 919 b 176 889 179 896 176 893 b 183 893 179 889 181 890 b 188 914 186 900 188 910 b 190 933 188 921 188 926 b 214 954 194 944 207 950 b 247 958 221 957 233 961 b 275 914 271 951 272 924 b 268 897 275 907 272 900 b 249 893 264 893 256 893 b 240 900 244 896 242 897 b 235 897 238 900 235 897 b 238 893 235 897 235 896 b 238 874 238 889 240 881 b 233 863 238 869 235 865 l 233 860 b 238 843 231 856 231 849 b 261 826 242 836 251 832 b 275 850 271 835 275 842 l 275 853 b 292 883 278 863 279 876 l 306 890 l 313 879 b 319 883 315 879 318 881 b 325 886 322 883 322 886 b 357 900 333 893 343 900 b 376 896 367 900 372 897 b 386 893 379 893 383 893 b 396 896 386 893 390 896 b 414 886 403 896 410 890 b 414 863 418 879 418 869 b 397 846 410 853 403 849 l 388 843 l 381 849 b 360 842 379 850 369 849 l 339 819 b 342 818 339 819 339 819 b 356 781 353 811 360 794 b 343 765 353 771 349 765 l 343 764 b 336 747 343 757 339 751 b 332 742 333 744 332 742 l 339 735 l 342 733 b 349 724 343 731 346 726 l 353 726 b 357 733 356 726 357 728 b 360 742 360 735 360 738 l 360 750 b 372 778 360 761 364 772 b 397 785 379 785 388 788 b 414 771 404 782 411 778 b 410 740 418 757 411 747 b 414 744 410 742 411 742 l 418 750 l 435 764 l 442 765 l 447 764 b 464 750 454 761 458 757 b 461 724 465 742 465 733 b 444 710 457 717 450 714 l 442 707 b 440 704 440 707 440 707 b 442 700 440 703 440 703 b 435 672 447 688 442 676 b 407 672 424 663 411 669 l 404 672 b 404 669 404 672 404 669 b 414 656 404 664 407 660 l 417 653 b 438 669 424 657 431 664 b 457 683 444 674 450 679 b 478 696 464 688 471 690 b 494 704 482 697 489 700 b 511 726 504 711 511 718 l 511 733 b 511 751 508 738 508 744 b 535 778 513 765 522 775 b 558 775 542 782 550 781 b 569 761 565 772 567 765 b 558 735 569 747 560 740 b 553 733 556 735 556 733 b 556 731 556 733 556 731 b 556 704 558 724 560 714 b 529 674 550 690 539 683 l 525 672 b 511 653 515 664 511 657 l 511 649 b 511 639 511 646 511 642 b 482 608 508 625 499 613 b 464 606 475 606 471 606 b 468 596 465 601 465 599 b 519 531 485 572 504 551 b 525 535 522 533 522 535 b 553 571 532 547 542 561 b 581 578 563 575 572 578 b 597 565 589 575 593 571 b 593 531 607 551 597 538 l 596 531 b 607 535 600 531 603 533 b 619 542 610 538 614 540 b 626 544 621 542 624 542 b 643 538 633 544 638 542 b 650 517 650 531 651 524 b 635 497 650 510 644 501 b 624 488 633 493 628 490 b 613 481 619 486 614 483 l 613 479 b 624 479 614 479 619 481 b 638 474 628 479 635 476 b 643 471 640 474 643 471 b 657 481 644 471 650 474 b 674 493 661 486 667 488 b 697 517 682 500 692 507 b 718 556 706 528 715 542 l 718 558 b 722 572 721 564 721 568 b 756 594 728 585 742 592 b 783 592 767 594 776 592 b 790 599 783 592 786 592 b 797 606 797 603 797 606 b 790 603 796 606 793 606 b 776 596 789 601 783 596 b 758 606 769 596 765 599 l 743 626 b 729 650 736 632 732 642 b 739 686 725 664 729 679 b 782 686 756 697 772 690 b 789 683 783 683 786 683 b 813 686 796 681 806 681 l 819 693 b 833 704 824 697 829 700 b 890 700 850 717 874 714 b 904 679 899 696 904 686 b 897 657 904 672 901 664 b 881 650 892 653 888 650 b 867 656 874 650 868 653 b 851 650 861 657 854 656 l 844 643 b 854 646 850 643 851 646 b 883 629 868 646 881 639 b 881 606 888 618 883 608 b 875 594 878 601 878 599 b 867 575 874 589 871 582 b 860 551 861 568 860 558 l 861 551 b 874 551 867 551 868 551 b 901 551 883 554 892 554 b 925 538 908 551 918 547 m 833 533 b 826 549 829 538 829 544 b 840 592 826 565 831 579 b 847 608 843 596 844 601 b 850 613 847 608 847 610 b 843 610 847 610 844 610 b 829 613 838 610 833 613 b 813 575 833 594 819 579 b 779 561 807 571 796 558 l 758 561 b 751 558 753 561 751 561 l 751 554 l 749 551 b 722 497 746 531 732 511 b 692 467 713 486 704 476 l 678 457 b 638 440 671 450 657 439 b 624 446 633 440 628 443 b 619 447 624 447 621 447 l 614 447 b 607 446 613 447 610 446 b 576 467 590 446 579 453 l 576 471 b 586 497 576 481 581 490 b 565 507 579 497 572 501 b 560 533 558 517 558 525 b 550 518 558 528 553 524 b 543 507 549 514 546 511 b 518 494 535 494 522 494 b 504 504 511 497 506 501 b 442 578 482 528 461 551 b 428 610 438 588 431 596 b 433 625 428 615 431 619 b 435 629 433 626 435 626 b 431 625 433 626 433 626 b 414 622 426 625 421 622 b 396 629 404 622 400 626 b 372 667 381 642 374 656 l 372 672 b 343 650 367 663 356 653 l 339 650 l 332 653 b 319 667 326 656 322 663 l 318 669 b 313 697 310 676 308 688 b 319 707 315 703 319 704 b 318 711 319 710 319 710 b 301 742 310 718 301 728 b 310 765 301 754 306 761 b 313 772 310 768 313 771 b 325 792 315 778 318 788 l 322 792 l 318 796 l 310 804 b 306 811 310 806 308 808 l 299 819 l 306 829 b 322 849 310 836 318 843 l 308 849 l 306 846 b 279 801 303 826 294 811 b 265 794 278 799 272 794 b 249 796 258 792 254 796 b 214 822 238 804 224 811 b 200 867 201 835 197 853 b 164 856 190 858 176 853 b 143 889 147 860 140 874 b 146 900 143 893 146 897 b 147 904 146 903 147 904 b 136 924 147 913 140 921 b 125 935 133 928 129 935 b 103 933 119 940 113 938 l 103 13 b 119 14 110 13 115 13 b 129 19 122 14 125 17 b 143 31 133 24 139 29 b 160 33 147 33 153 33 b 179 29 164 33 171 31 b 190 10 183 24 188 17 b 225 19 200 17 214 19 l 233 19 b 231 29 233 22 233 26 b 251 68 228 50 238 64 b 275 67 261 71 268 68 l 278 67 b 299 81 285 74 292 78 b 339 78 313 88 326 85 b 353 46 349 71 353 60 b 386 57 364 53 374 54 b 421 74 400 61 411 67 l 431 83 b 465 104 438 90 450 101 b 508 83 485 107 499 92 l 511 81 b 543 83 522 85 535 88 l 553 88 b 572 107 558 92 565 100 b 619 121 589 122 604 128 b 626 115 621 121 624 118 l 628 115 b 635 115 631 114 633 115 b 638 121 638 118 638 121 l 638 125 b 635 135 635 128 635 132 b 661 175 635 154 650 168 b 667 179 664 176 664 176 b 657 193 661 192 658 193 b 651 192 657 193 654 193 b 643 186 647 192 644 189 b 604 193 628 185 614 186 b 576 193 596 192 586 192 b 560 219 567 199 560 208 b 574 243 560 229 565 239 b 596 246 581 247 590 246 l 597 246 b 621 254 607 243 614 247 b 624 281 617 264 619 274 b 644 301 628 293 635 300 b 692 339 657 317 674 331 b 681 354 688 342 682 347 l 678 361 l 682 368 b 721 401 692 382 706 392 b 688 422 699 403 692 413 l 682 433 l 715 464 b 739 474 721 467 729 474 b 753 471 746 474 749 474 l 758 476 b 772 488 760 479 765 483 b 806 490 782 493 793 493 b 810 511 803 497 806 504 b 833 531 814 521 824 528 l 833 533 m 379 688 b 386 697 381 693 383 696 b 407 704 393 703 400 704 l 407 707 b 383 714 397 707 390 710 b 379 704 383 711 381 707 m 457 646 b 442 633 451 642 447 636 b 451 636 447 633 450 636 l 458 636 b 472 639 464 636 471 636 b 481 643 478 639 481 642 l 481 646 b 481 653 481 649 481 650 l 481 660 b 475 657 478 660 475 657 b 457 646 468 653 464 649 m 779 632 b 800 636 786 636 793 639 l 807 636 l 810 643 b 814 653 813 646 813 650 b 779 653 803 649 790 649 b 769 657 776 653 772 656 b 760 660 767 657 763 658 l 760 657 b 767 646 760 656 765 650 l 779 632 m 883 518 b 888 521 885 518 885 521 l 878 521 b 883 518 881 521 883 518 m 847 500 b 861 494 851 497 856 497 l 857 497 b 851 500 857 497 854 500 b 840 500 847 501 844 501 l 847 500 "},"E":{"ha":919,"x_min":0,"x_max":0,"o":"m 382 942 b 372 935 375 939 372 935 b 379 925 372 932 378 928 b 392 897 385 918 392 908 b 379 864 392 882 385 871 l 344 819 b 349 817 344 817 346 817 l 358 817 b 379 813 365 817 372 817 b 413 756 403 806 415 779 b 392 704 410 735 399 715 b 385 596 369 674 368 631 l 399 565 l 328 581 b 222 572 300 557 253 550 b 196 590 213 576 203 583 b 183 603 193 596 189 597 b 125 626 168 614 146 624 b 97 593 118 614 108 603 b 156 586 115 603 139 597 b 193 513 176 569 192 542 b 192 485 193 503 192 494 b 189 458 189 475 186 465 b 213 485 199 464 210 472 b 215 492 213 488 215 489 b 224 515 215 499 217 508 b 278 535 233 532 253 536 b 363 513 308 532 338 525 l 365 511 b 379 506 369 511 375 508 b 392 511 382 506 386 508 b 453 572 419 519 443 543 b 457 593 454 579 454 586 b 483 650 463 611 467 635 b 518 661 493 658 507 664 b 538 647 528 661 535 654 b 528 607 544 631 535 617 b 518 563 518 593 518 579 b 504 506 518 543 518 525 b 419 390 478 465 450 431 b 408 372 415 386 413 379 b 363 329 400 353 389 332 b 332 315 351 326 342 322 b 294 232 344 279 321 247 l 292 232 b 283 228 290 231 285 228 b 294 214 283 225 285 221 l 297 211 l 300 204 b 246 117 307 174 288 143 b 222 108 238 113 231 108 b 193 117 213 106 200 110 b 179 143 186 124 182 133 l 179 117 b 193 32 179 85 183 56 l 825 32 l 825 1 l 175 1 l 169 8 b 163 21 168 14 165 15 b 146 117 153 47 146 79 b 153 201 146 146 149 174 b 192 238 158 225 175 242 l 200 238 l 203 231 b 210 176 215 214 213 194 b 207 164 210 171 207 169 b 215 140 207 156 210 146 b 219 139 217 139 217 139 b 229 143 222 139 226 140 b 269 194 246 153 269 174 b 254 240 253 210 247 225 b 278 261 260 251 271 256 l 281 261 b 304 303 294 271 308 286 b 301 322 301 308 300 315 b 308 336 301 329 307 333 b 361 360 324 350 342 357 b 379 386 368 363 372 369 b 396 410 385 393 389 403 b 478 522 426 449 453 485 b 486 563 488 535 486 546 b 488 581 486 567 486 574 l 481 563 b 403 481 469 525 440 494 b 378 475 396 478 386 475 b 351 482 368 475 358 481 l 349 485 b 276 503 325 494 301 501 b 250 499 261 503 253 503 b 246 485 247 494 246 489 b 243 475 246 482 243 478 b 176 426 233 447 206 426 l 165 426 l 161 435 b 158 489 153 454 156 472 b 161 513 161 496 161 506 b 138 560 161 532 151 549 b 108 565 128 567 115 569 b 104 560 107 563 107 560 b 97 550 101 556 99 553 b 54 543 85 542 68 539 b 38 563 47 546 40 553 b 38 586 33 572 33 579 b 57 604 43 596 53 600 b 104 650 78 617 92 631 l 108 658 l 118 658 b 206 626 149 657 179 647 b 217 614 210 621 215 619 b 238 597 224 610 231 603 b 308 610 260 583 292 590 l 315 617 l 346 610 b 365 722 338 647 344 689 b 379 760 375 736 379 749 b 369 783 382 769 378 779 l 356 783 b 342 786 351 783 346 783 b 315 803 332 789 324 793 b 311 824 311 807 311 817 b 321 838 314 831 318 836 l 354 882 b 361 894 356 885 361 892 b 354 904 358 897 356 901 b 342 932 349 911 342 921 b 369 969 339 951 356 965 b 408 976 382 975 389 976 l 825 976 l 825 946 l 408 946 b 382 942 396 946 392 944 m 81 579 b 83 583 81 581 83 581 b 74 579 81 581 78 579 b 67 572 71 576 67 574 b 75 574 68 572 74 572 b 81 579 78 576 78 579 "},"F":{"ha":728,"x_min":0,"x_max":0,"o":"m 693 950 b 656 883 696 924 682 893 l 639 881 l 636 896 b 601 931 632 913 618 926 b 551 926 588 933 568 928 b 533 919 547 924 540 921 b 551 893 540 913 547 903 l 558 881 l 547 872 b 507 874 533 863 517 869 b 496 876 503 874 497 876 b 479 865 490 876 486 872 b 467 856 474 863 469 858 b 450 849 463 853 458 849 b 432 858 443 849 436 853 b 432 893 426 869 426 883 b 442 931 436 904 442 917 b 439 938 442 933 442 935 b 425 935 436 935 432 935 b 401 950 413 935 406 943 b 396 951 399 950 399 951 b 381 950 394 954 388 951 b 372 947 378 950 375 947 b 293 967 344 940 314 947 b 218 947 267 978 232 971 b 210 928 213 944 210 938 b 213 919 210 926 213 924 b 218 910 215 917 215 914 b 199 832 225 879 208 849 l 128 707 b 111 690 125 700 121 693 b 86 696 101 686 93 688 l 86 476 l 543 476 l 543 443 l 86 443 l 86 0 l 53 0 l 53 914 l 125 967 l 124 931 b 94 782 117 881 107 832 b 117 754 104 778 114 768 l 171 846 b 188 903 179 865 192 886 b 185 910 188 904 185 907 b 179 926 182 914 179 919 b 192 967 178 943 185 957 b 310 994 218 1001 269 1015 l 311 992 b 364 978 326 978 347 974 b 371 981 365 978 368 981 b 413 981 382 982 399 989 b 425 971 418 978 422 974 b 426 967 425 968 426 968 l 429 968 b 442 971 432 968 436 971 b 463 961 449 971 456 967 b 472 928 472 950 472 933 b 467 897 472 919 469 907 b 496 910 474 903 483 910 b 503 907 497 907 500 907 b 500 910 503 910 500 910 l 490 919 l 497 931 b 544 957 510 947 533 951 b 608 961 564 961 588 967 b 658 926 629 957 646 943 b 663 947 660 931 663 940 l 693 950 "},"G":{"ha":833,"x_min":0,"x_max":0,"o":"m 790 31 l 786 31 l 786 17 b 763 14 776 17 769 17 l 760 14 b 733 14 753 13 743 10 b 715 33 722 17 717 26 b 710 38 713 36 713 38 b 686 47 706 46 696 46 b 661 53 678 47 668 50 b 628 57 649 54 638 60 l 533 19 b 506 10 524 14 515 13 b 454 10 486 6 469 7 b 421 13 442 13 431 13 l 383 10 b 347 7 371 7 360 7 l 343 7 b 326 6 336 7 331 7 l 322 6 b 310 0 317 3 315 0 b 299 -1 306 -1 300 -1 b 286 0 293 -1 292 -1 l 246 3 b 232 10 244 3 238 3 b 228 38 221 19 228 33 l 229 38 b 225 40 228 38 228 38 l 215 40 b 204 43 211 43 207 43 b 161 74 185 47 174 61 b 144 90 157 78 153 85 b 126 92 140 92 133 94 l 124 90 b 106 88 119 90 113 88 b 83 97 99 88 90 90 b 60 132 75 107 65 118 l 58 146 b 65 161 60 154 63 158 b 96 182 75 172 86 176 b 110 189 103 185 107 186 b 113 193 113 189 113 192 l 113 196 b 110 208 110 199 110 203 b 117 229 110 217 114 224 b 119 233 119 229 119 231 b 119 240 122 233 119 239 b 122 267 119 247 117 257 b 143 290 126 278 136 285 b 124 304 133 293 126 300 b 122 308 124 307 124 308 b 117 311 122 311 119 311 b 96 317 110 311 103 311 b 83 328 89 318 86 324 b 96 354 82 335 82 344 b 96 372 99 356 100 361 b 75 429 90 392 83 410 l 65 453 l 89 453 b 106 450 93 453 100 453 l 96 471 b 93 488 93 474 90 481 b 106 501 96 497 103 501 b 144 517 119 510 131 514 l 150 517 b 167 521 157 517 161 518 b 185 538 178 525 185 533 b 178 596 181 556 178 578 b 183 696 176 629 178 660 b 176 747 185 717 185 735 l 160 761 l 181 772 b 229 792 197 781 214 788 b 256 792 235 794 246 796 b 268 785 261 789 265 788 b 269 785 268 785 269 785 b 319 801 286 789 303 794 b 326 825 324 808 324 818 l 329 835 b 354 881 331 849 338 869 b 371 889 360 883 367 889 b 381 893 374 890 376 893 b 390 910 388 900 392 907 l 364 1018 l 390 1013 b 463 971 418 1004 442 989 l 442 947 b 408 971 432 957 421 967 l 421 917 b 397 867 425 897 414 879 b 383 860 392 865 388 863 b 374 856 381 860 376 858 b 360 826 367 850 361 842 l 357 819 b 346 781 354 806 353 792 l 343 775 l 338 772 b 276 754 315 765 296 758 b 261 751 275 751 268 751 b 246 761 253 754 249 758 l 244 764 b 239 761 244 764 244 764 b 211 751 229 758 221 754 b 214 693 218 731 215 710 b 208 599 208 657 208 626 b 215 542 211 579 214 561 b 181 493 221 518 197 500 b 157 486 174 488 164 486 l 150 483 b 126 479 143 483 136 481 l 174 378 l 126 408 b 114 415 124 413 119 413 b 126 382 119 403 124 393 b 126 342 131 363 131 351 b 147 331 133 342 143 338 b 153 321 150 325 153 324 b 174 321 154 318 161 318 l 183 325 l 208 290 l 192 281 l 176 271 b 160 263 171 269 164 264 b 150 254 157 263 153 257 l 150 246 b 150 222 153 240 153 231 b 143 210 147 217 144 215 b 140 206 143 210 140 208 b 143 206 140 208 143 206 l 143 199 b 129 163 144 186 140 172 b 107 154 122 158 114 156 b 90 142 100 149 93 146 b 106 121 93 132 99 125 l 107 118 b 113 121 107 118 110 121 l 117 121 b 164 115 131 128 150 125 b 185 92 174 108 181 100 b 208 74 194 83 201 76 l 218 74 b 238 68 222 74 229 71 b 261 33 251 64 263 50 l 289 31 l 303 31 b 307 33 306 31 307 33 b 317 36 313 33 315 36 b 346 38 326 40 336 38 l 350 38 b 381 40 360 38 371 40 l 418 43 b 458 40 432 46 444 43 b 496 40 472 38 485 36 b 522 47 506 43 515 46 l 618 85 b 668 83 635 92 654 88 b 689 78 678 81 682 78 b 736 60 701 76 722 74 l 740 50 b 746 43 743 47 746 43 b 750 46 746 43 749 46 l 756 46 l 757 46 l 760 399 l 469 399 l 469 429 l 790 432 "},"H":{"ha":839,"x_min":0,"x_max":0,"o":"m 771 474 l 89 469 b 90 447 90 463 90 456 l 90 433 b 90 408 89 422 89 415 b 96 399 90 406 93 403 b 110 372 103 392 107 385 l 110 363 b 121 371 114 365 117 368 b 167 358 138 375 154 371 b 214 361 181 365 199 368 b 265 318 238 354 251 335 l 269 311 l 265 301 b 229 278 258 288 244 281 b 211 243 228 264 221 250 b 171 229 199 233 185 231 b 161 226 168 229 164 226 b 138 217 154 224 144 222 b 188 186 157 213 175 200 b 208 156 197 176 204 165 b 238 88 221 138 232 114 b 221 29 242 61 238 38 l 199 14 l 194 38 b 164 38 190 43 178 43 l 140 29 b 113 6 126 24 110 14 l 79 3 b 131 60 76 19 83 43 l 154 67 b 207 68 168 74 192 76 l 207 81 b 181 142 201 101 192 122 b 164 165 175 149 171 158 b 96 192 147 185 121 193 l 49 182 l 82 217 b 154 257 103 236 126 250 b 167 260 160 260 161 260 b 192 269 175 263 185 264 b 197 281 194 271 197 276 l 197 283 l 124 335 b 113 321 119 331 114 325 b 103 311 107 318 106 314 b 75 288 96 301 86 294 l 60 281 l 53 294 b 67 347 42 317 56 335 b 79 368 72 354 79 363 b 72 379 79 371 75 375 b 63 393 67 385 65 389 b 58 436 56 408 58 425 l 60 450 b 53 467 60 456 58 464 l 53 469 l 51 467 l 35 467 l 35 486 l 35 500 b 49 564 36 521 36 544 b 106 603 60 588 82 601 l 113 603 b 129 606 117 603 126 606 b 126 608 126 606 126 608 b 131 626 126 613 126 619 b 174 639 140 646 164 642 l 175 639 l 174 650 l 192 649 b 218 615 208 646 218 629 b 215 603 215 613 215 608 b 214 596 214 601 214 599 b 228 578 214 589 221 582 l 242 561 b 251 571 244 564 246 568 b 276 575 258 575 268 578 b 286 572 279 575 283 572 b 292 571 289 571 292 571 b 300 579 293 571 296 571 b 319 615 310 592 319 603 b 317 626 319 618 317 622 b 315 639 317 632 315 633 b 333 707 310 660 319 688 l 347 726 b 333 718 343 726 338 721 l 307 703 l 310 733 b 296 799 310 758 310 782 b 292 804 293 799 293 801 b 276 782 289 794 283 788 b 251 775 269 775 261 772 l 244 775 l 242 782 b 207 903 215 815 204 858 l 207 907 b 194 913 207 910 199 914 b 157 926 185 913 168 913 b 154 958 147 935 150 951 b 183 968 161 968 174 974 l 185 968 b 178 978 183 971 181 975 l 174 988 l 178 997 b 214 1013 185 1008 199 1013 b 244 989 228 1011 239 1001 b 246 978 246 985 246 981 b 249 981 249 978 249 981 b 261 989 253 988 258 989 b 283 985 265 992 275 992 l 315 957 l 306 940 b 329 863 324 919 326 883 b 353 865 336 867 346 867 b 381 836 364 860 374 850 b 390 806 385 826 388 818 l 390 801 b 394 796 390 799 394 796 l 432 765 l 414 742 l 376 771 b 361 788 371 772 367 778 b 357 801 360 792 360 796 b 353 822 357 808 354 815 b 340 835 347 829 346 832 l 338 835 l 336 819 l 322 822 b 313 825 319 822 317 825 b 319 819 315 825 317 822 b 340 757 336 804 340 781 b 350 758 343 758 346 758 b 374 744 360 758 369 754 b 381 724 381 740 383 731 b 374 707 378 717 376 711 l 360 688 b 346 643 350 676 343 657 b 347 633 346 642 347 639 b 350 615 350 629 350 622 b 326 558 350 592 336 572 b 293 538 322 551 310 540 b 282 540 289 538 286 540 b 265 504 286 524 279 510 l 258 501 l 771 504 l 767 978 l 800 978 l 804 0 l 774 0 m 215 978 b 214 981 215 978 215 981 b 215 974 215 978 215 975 l 215 978 m 208 943 b 218 938 211 943 214 940 b 214 951 215 943 214 947 b 208 943 214 950 211 944 m 293 890 b 275 926 292 904 283 919 l 268 931 b 251 919 263 924 258 919 b 238 919 246 917 242 917 b 239 900 239 913 239 904 b 261 811 238 869 244 836 l 261 815 b 258 832 261 819 261 826 b 256 846 258 836 256 842 b 272 893 251 867 258 883 l 283 900 l 292 890 m 110 572 b 76 549 96 571 82 561 b 67 500 67 535 67 518 l 256 501 l 204 554 b 183 594 197 564 183 578 l 183 608 b 167 608 178 606 171 606 l 160 608 b 157 596 160 606 160 601 b 114 572 153 575 129 572 l 110 572 m 136 339 l 153 335 l 144 338 m 204 332 b 174 325 192 335 178 332 l 211 308 b 229 311 218 307 225 308 b 204 332 222 321 214 328 "},"I":{"ha":592,"x_min":0,"x_max":0,"o":"m 453 943 l 365 943 l 368 904 b 349 863 369 874 356 865 b 328 863 339 860 332 863 b 322 865 325 863 325 865 b 314 856 321 865 315 860 b 311 826 308 849 311 839 l 311 782 b 299 744 311 775 311 757 b 274 733 290 738 281 735 l 268 733 b 231 693 250 728 236 711 b 261 669 244 690 257 681 l 271 653 l 254 649 b 236 622 244 643 238 633 b 238 579 233 610 236 594 l 240 568 l 228 564 b 207 547 219 561 213 554 b 221 490 200 531 207 507 b 257 457 231 479 243 467 b 275 443 264 453 271 447 b 321 368 304 419 318 393 l 321 358 l 314 354 b 260 344 297 342 275 344 b 224 342 244 347 233 347 b 210 300 213 335 213 317 b 213 208 210 269 210 239 b 226 158 213 185 217 168 b 250 144 233 151 240 146 b 271 132 257 139 264 138 b 306 74 292 118 304 97 b 304 33 308 60 306 46 l 403 33 l 403 0 l 139 0 l 139 33 l 268 33 b 275 68 275 43 278 54 b 254 107 274 85 267 97 b 236 115 250 108 243 111 b 206 135 226 121 214 125 b 179 206 186 154 182 179 b 179 300 179 239 176 269 b 207 368 179 324 183 354 b 261 378 224 379 244 378 b 288 378 271 378 281 375 b 254 417 282 392 271 403 b 238 432 250 422 244 426 b 196 471 224 443 207 456 b 182 561 176 494 165 533 b 206 588 186 572 196 579 b 206 629 203 601 203 615 b 221 663 207 642 214 653 l 219 663 l 203 657 l 200 674 b 261 764 196 714 224 757 l 268 765 b 278 768 271 765 275 765 b 281 782 281 768 281 772 l 278 826 b 282 867 278 839 278 853 b 325 896 292 886 308 897 b 335 893 328 896 332 896 l 336 893 b 336 903 336 896 336 897 l 332 943 l 189 943 l 189 975 l 453 975 "},"J":{"ha":724,"x_min":0,"x_max":0,"o":"m 676 176 b 681 149 681 169 683 158 b 667 132 678 142 674 138 b 647 132 660 131 653 132 b 600 108 626 138 607 115 b 592 94 599 104 593 100 b 551 53 579 81 569 64 b 535 47 549 50 544 47 b 514 57 525 47 518 54 b 511 60 514 60 511 60 b 485 54 504 64 490 57 l 382 13 b 288 -14 356 0 322 -14 l 274 -14 b 186 26 240 -8 213 7 b 106 83 160 43 132 64 b 35 193 74 108 35 146 b 47 222 35 206 40 215 b 94 222 64 236 82 226 b 101 219 96 222 99 219 b 136 233 113 215 129 222 b 143 278 146 246 149 263 b 129 301 142 285 136 297 b 88 293 118 308 99 304 l 65 317 b 146 328 88 335 119 347 b 174 288 160 318 169 304 b 163 215 182 263 176 233 b 92 189 146 192 118 179 b 81 193 88 192 85 192 b 68 199 78 196 71 199 l 68 193 b 128 108 68 158 96 132 b 204 53 150 90 176 68 b 278 17 226 36 251 22 b 369 40 308 14 342 29 l 474 85 b 529 85 483 90 508 100 b 535 81 529 85 532 83 l 538 81 b 565 114 546 88 556 100 b 576 128 569 118 572 122 b 643 165 596 154 619 165 b 633 172 640 168 636 169 b 615 222 619 186 617 206 b 610 246 615 229 613 239 b 600 260 607 250 606 254 b 593 271 599 264 596 267 b 582 378 575 307 579 347 b 579 425 582 393 582 410 b 582 494 579 447 576 471 b 586 551 586 517 589 535 b 606 650 583 585 592 619 b 610 663 607 653 610 657 b 619 681 615 667 617 674 b 626 707 622 688 624 697 b 600 818 631 744 615 781 b 586 853 596 829 592 842 l 568 900 l 568 904 b 561 903 568 903 563 903 b 539 903 553 903 546 900 b 508 947 528 904 511 917 b 499 971 507 954 504 968 b 481 958 497 974 488 967 b 443 938 474 950 461 935 l 450 971 b 454 978 453 974 454 976 b 515 999 468 997 492 1008 b 539 951 535 988 538 967 b 546 933 542 938 544 933 l 556 933 b 589 926 565 935 579 938 b 599 913 596 921 596 914 l 615 865 b 629 829 619 853 624 842 b 657 703 646 789 664 750 b 650 669 654 690 653 681 b 638 649 646 663 643 656 b 633 636 638 643 636 642 b 619 554 622 610 617 582 b 615 490 619 535 619 514 b 613 426 610 469 610 447 b 613 375 613 410 615 393 b 622 288 610 347 607 314 b 629 278 624 283 626 281 b 640 257 631 271 636 264 b 647 224 643 246 646 236 b 657 193 647 213 650 200 b 661 189 657 193 660 192 b 676 176 667 186 671 182 m 447 968 b 450 971 447 971 447 971 l 447 968 "},"K":{"ha":801,"x_min":0,"x_max":0,"o":"m 769 933 b 689 828 749 899 725 858 b 649 801 678 818 663 808 b 604 768 632 790 617 781 b 588 753 597 764 593 757 b 547 717 576 740 564 726 b 522 707 540 713 532 710 b 500 699 515 706 506 703 b 478 676 492 693 485 683 b 442 646 468 665 456 653 b 414 638 432 642 424 639 b 390 629 404 638 397 635 b 381 615 385 628 381 622 l 381 614 l 390 606 l 385 594 b 338 583 383 588 371 574 l 336 583 l 336 578 l 324 574 b 167 490 258 554 201 536 b 157 475 164 486 160 482 l 147 463 b 242 422 181 460 215 443 b 251 421 244 422 246 422 b 268 394 261 415 268 406 b 261 374 268 385 265 378 b 293 364 269 371 282 368 b 306 354 299 361 300 358 b 333 343 315 350 324 344 b 340 340 336 343 338 343 b 360 338 347 340 353 340 b 388 310 374 331 381 321 b 438 307 401 317 421 317 b 461 269 449 300 458 286 b 550 218 500 269 536 232 l 563 206 l 554 199 b 571 178 563 194 569 185 b 593 154 586 154 590 154 l 618 161 l 611 135 b 600 117 608 128 607 121 l 608 107 l 588 90 b 604 79 593 83 597 79 l 625 76 l 617 57 b 608 42 614 50 611 46 b 617 6 617 32 621 18 b 571 -18 607 -8 593 -15 l 571 6 l 499 -39 l 571 43 b 581 56 576 49 578 50 b 554 96 567 63 554 79 l 554 104 l 564 111 l 536 144 l 557 142 b 543 164 550 150 547 158 b 526 181 540 172 532 178 l 404 86 l 503 201 b 513 208 506 204 510 206 l 515 208 b 449 235 489 235 465 242 l 414 222 l 428 256 b 421 281 432 265 428 276 b 394 276 411 286 400 283 l 378 256 l 367 281 b 347 307 361 293 357 304 b 336 310 346 310 340 310 b 326 313 333 310 331 313 b 292 328 313 314 300 321 b 276 335 286 331 282 333 b 244 340 272 338 256 344 l 229 331 l 222 347 b 229 385 221 351 215 367 l 232 388 l 225 392 b 144 429 207 413 174 428 l 143 429 b 140 428 143 429 140 429 l 110 399 b 93 392 106 394 100 392 l 83 392 l 83 -1 l 53 -1 l 53 969 l 83 969 l 83 456 b 113 467 93 456 106 460 b 129 493 119 475 124 483 b 140 510 133 497 138 506 b 307 601 183 564 253 588 l 315 608 b 347 614 324 615 338 615 l 347 621 b 376 658 350 638 361 651 b 407 668 385 665 397 665 b 428 675 414 669 421 672 b 454 699 438 679 444 689 b 485 724 463 707 472 717 b 513 738 493 731 503 733 l 533 746 b 564 774 546 753 554 761 l 583 792 b 632 828 597 807 617 815 b 671 854 647 835 658 844 b 743 950 701 879 722 915 "},"L":{"ha":740,"x_min":0,"x_max":0,"o":"m 701 94 b 701 38 710 76 706 54 b 692 17 701 33 699 24 b 661 7 682 7 665 7 b 569 29 631 7 597 14 l 564 31 b 543 40 557 36 550 38 b 506 36 532 43 519 38 b 451 33 489 31 471 29 b 371 36 428 38 400 38 b 308 33 350 33 329 33 b 285 36 300 36 292 36 b 167 33 244 40 204 46 b 147 22 160 31 154 26 b 117 6 140 17 131 10 b 96 3 110 6 103 3 b 44 33 75 3 51 13 b 38 54 39 40 39 50 b 42 158 32 97 35 128 b 83 254 49 193 68 224 b 164 382 110 297 136 342 b 176 450 164 406 168 429 b 215 517 181 471 192 497 b 272 535 232 528 251 533 l 276 535 b 293 540 285 538 289 538 b 300 547 296 542 299 544 b 339 636 317 575 331 606 b 346 710 343 660 343 683 l 346 747 b 381 863 350 781 354 825 b 414 903 390 876 404 890 l 479 967 l 503 944 l 438 879 b 407 846 428 869 417 858 b 378 744 385 813 381 772 b 376 707 376 733 376 718 b 369 629 376 681 374 656 b 326 531 360 594 346 561 b 310 514 322 525 317 518 b 279 504 300 507 289 504 l 275 504 b 235 490 258 501 246 497 b 204 443 218 479 208 457 b 194 378 200 422 197 399 l 194 372 l 192 368 b 110 239 164 325 136 283 b 72 151 93 210 79 182 b 69 57 65 125 65 97 b 72 46 69 53 69 50 b 110 36 76 36 96 33 b 129 47 117 38 122 43 b 157 64 136 54 146 60 b 289 68 200 78 244 74 b 310 67 296 67 303 67 b 369 67 329 64 350 67 b 461 64 400 68 431 71 b 499 67 471 60 485 64 b 550 71 515 71 532 74 b 579 60 560 68 569 64 l 583 57 b 661 38 607 46 635 38 l 671 38 b 671 46 671 40 671 43 b 672 81 675 60 675 71 b 661 94 671 88 665 92 b 586 135 640 114 614 128 b 563 149 579 138 569 139 l 586 168 b 593 165 588 168 590 168 b 682 118 628 158 658 142 b 701 94 689 111 696 104 "},"M":{"ha":1167,"x_min":0,"x_max":0,"o":"m 760 835 b 749 811 746 819 746 813 l 756 792 l 733 788 b 672 757 710 785 689 772 b 692 724 682 747 686 735 b 706 697 696 714 699 703 b 722 688 708 693 715 690 b 732 686 725 688 726 686 b 797 622 760 672 781 643 l 889 501 l 882 493 b 790 375 861 457 831 417 l 786 371 b 750 324 769 354 757 339 b 756 274 743 307 743 285 l 803 233 l 740 247 b 710 263 729 250 719 257 b 696 271 706 267 701 269 b 679 271 689 274 679 271 b 682 264 679 269 679 267 b 685 253 682 260 682 257 b 640 193 686 219 651 200 l 581 163 b 546 128 564 154 546 142 l 546 114 l 532 114 b 492 90 517 111 500 101 l 489 88 b 472 71 485 83 479 76 b 418 92 451 60 428 74 b 408 121 411 101 408 111 b 404 132 407 122 407 128 b 371 179 397 149 385 165 b 338 219 360 192 347 206 b 315 297 324 243 319 271 b 317 332 313 304 310 318 b 322 338 319 335 319 338 b 315 335 319 338 317 338 l 303 331 l 296 339 b 283 363 292 344 283 354 b 289 385 282 371 283 379 b 307 393 293 389 300 393 l 310 393 b 296 450 296 408 289 432 b 353 483 306 471 329 488 b 364 507 353 483 360 488 l 367 514 b 390 556 371 528 376 544 b 397 564 392 558 394 561 l 400 564 b 378 579 390 568 385 572 b 371 626 369 594 367 610 l 381 656 l 400 629 b 418 618 404 622 411 619 b 411 690 414 642 408 667 l 411 710 l 428 707 b 517 711 458 704 489 704 b 475 778 508 735 493 758 l 472 771 b 456 751 469 757 463 751 b 432 761 451 750 442 750 b 383 842 414 788 397 813 l 378 850 l 388 863 b 404 886 394 872 401 879 b 397 903 404 893 401 900 b 392 904 397 903 394 903 l 385 904 b 371 913 378 907 374 910 b 367 914 369 914 369 914 b 343 917 360 919 353 919 b 324 903 336 914 329 907 b 300 883 322 896 315 883 b 289 889 296 883 292 886 l 282 883 b 258 881 275 876 265 879 l 67 -1 l 35 -1 l 232 910 l 238 914 b 253 917 242 917 249 919 b 269 944 253 928 256 940 b 300 924 289 950 299 933 b 333 947 310 933 319 943 b 381 943 350 951 367 950 b 388 940 383 943 385 940 b 394 935 390 938 392 935 l 400 935 b 408 933 401 935 404 933 b 435 881 431 926 439 900 b 415 846 432 867 424 856 b 446 796 425 829 435 813 l 454 836 l 475 819 b 554 704 510 792 539 750 l 560 688 l 543 686 b 442 674 510 676 478 672 b 454 606 444 650 446 629 l 458 592 l 444 588 b 432 585 439 585 435 585 b 428 544 442 571 438 554 b 415 538 424 542 418 540 b 408 533 414 535 411 533 b 397 504 401 525 400 517 l 394 497 b 347 453 381 456 360 453 b 326 439 338 456 329 447 b 333 415 324 432 326 419 b 338 413 336 415 336 415 b 354 401 343 410 350 408 b 353 365 361 389 360 375 b 347 363 350 365 350 363 b 353 361 350 361 350 361 b 357 339 357 354 360 347 b 347 321 357 331 353 325 b 346 317 347 318 346 318 b 346 301 343 314 346 307 b 367 236 350 278 354 254 b 394 200 374 224 383 213 b 435 142 408 185 425 165 b 439 128 435 138 438 132 b 444 107 439 121 442 114 b 456 100 449 101 454 97 b 463 107 458 100 461 104 l 465 108 b 517 144 478 125 496 139 b 567 192 524 168 553 185 l 625 222 b 651 250 638 229 654 239 l 651 254 b 649 274 649 260 647 267 b 665 300 649 285 656 293 b 708 300 678 307 696 307 b 713 297 710 300 713 300 b 719 335 713 311 715 325 b 763 392 729 358 746 375 l 767 396 b 849 500 803 433 831 469 l 771 603 b 717 656 757 622 740 646 b 710 660 715 657 713 657 b 682 674 701 663 692 667 b 663 711 672 686 668 700 b 647 735 656 728 654 735 l 624 740 l 638 758 b 715 815 654 788 682 808 b 736 856 717 835 732 850 l 757 879 b 833 943 779 900 803 926 l 840 944 b 868 964 854 950 865 957 l 868 967 b 872 982 868 971 868 975 b 894 992 878 989 885 994 b 922 971 908 992 915 988 l 1132 -4 l 1099 -4 l 894 947 b 854 917 888 931 868 921 l 847 913 b 781 858 821 900 800 879 "},"N":{"ha":833,"x_min":0,"x_max":0,"o":"m 768 -49 b 775 -65 772 -54 775 -58 b 772 -85 776 -72 775 -79 b 769 -89 772 -86 769 -86 l 769 -85 l 742 -99 b 742 -72 735 -86 739 -78 l 744 -71 b 735 -61 742 -65 738 -62 l 725 -51 b 714 -14 715 -40 711 -25 l 174 961 b 146 954 164 964 150 964 b 143 943 143 951 143 947 l 139 913 l 150 897 b 146 893 149 896 149 893 b 139 843 133 879 129 858 b 143 789 146 826 149 806 l 146 789 b 163 785 153 789 157 788 b 211 750 186 778 200 765 b 217 683 226 728 226 704 b 207 672 211 679 210 674 b 203 667 204 669 203 667 b 190 632 196 656 190 643 l 193 610 l 174 613 b 146 642 156 618 150 632 b 143 649 143 643 143 646 b 106 660 136 660 118 667 l 106 657 b 108 649 108 653 108 650 b 101 622 108 636 103 629 b 96 613 99 618 96 615 b 110 579 92 601 99 585 l 132 571 l 118 554 b 99 535 113 547 106 542 b 78 510 89 525 79 518 b 79 490 75 501 78 494 b 96 481 85 486 89 481 l 129 476 l 103 453 b 85 426 94 443 88 436 b 92 403 85 419 88 413 b 96 389 92 399 94 393 b 101 363 99 379 99 371 l 113 269 b 136 219 129 257 133 236 b 133 199 136 213 133 206 b 132 175 133 189 132 182 b 136 156 133 169 133 163 b 133 101 139 139 143 121 b 122 88 132 94 126 90 b 115 76 118 83 115 78 b 125 60 113 71 118 64 b 132 53 126 57 129 54 b 153 29 139 46 149 40 b 136 -65 172 0 169 -44 l 119 -37 b 126 13 136 -28 136 -4 b 110 29 122 19 118 24 l 103 36 b 85 81 88 47 79 64 b 99 107 85 92 94 101 b 106 115 101 111 103 114 b 106 149 110 125 108 138 b 101 172 103 158 101 165 b 103 200 101 185 101 192 l 103 219 b 92 246 103 231 99 243 l 85 247 l 71 358 b 65 379 68 365 68 372 b 61 392 64 385 64 386 b 54 432 56 403 51 417 b 65 460 56 443 61 453 b 54 471 61 463 58 467 b 47 517 44 486 42 501 b 78 558 51 535 65 549 b 82 564 79 561 79 561 b 65 622 65 578 58 601 b 71 633 68 626 71 629 b 75 649 72 639 75 643 l 75 653 b 79 679 75 657 72 669 b 92 688 82 681 88 686 b 167 669 118 700 150 690 b 176 686 169 674 172 681 b 181 693 179 688 181 690 b 188 700 183 696 186 697 b 186 733 193 710 193 721 b 153 757 179 742 167 750 l 149 757 b 143 754 146 757 146 757 b 110 721 132 744 119 733 b 72 710 94 704 79 704 l 56 717 l 65 731 b 96 775 72 747 85 761 l 99 778 b 110 789 103 781 108 785 b 110 829 115 801 115 818 b 110 897 99 850 99 876 b 108 917 106 904 108 913 l 110 947 b 118 971 113 954 113 961 b 188 992 126 985 143 999 l 196 992 l 200 985 l 732 14 l 760 43 b 749 54 758 47 753 50 b 721 156 725 78 688 114 l 721 158 b 722 161 722 158 722 161 b 718 165 721 161 721 163 l 715 168 b 690 236 699 182 692 206 b 683 294 690 257 688 276 l 681 297 l 683 301 b 638 467 694 361 678 422 b 626 490 633 471 626 479 b 644 524 624 507 638 517 b 651 528 647 525 650 528 b 661 549 657 533 660 542 b 681 582 667 561 671 572 l 683 585 b 685 588 685 585 685 588 b 683 589 685 588 685 589 b 650 626 674 601 661 615 l 638 636 l 644 646 b 675 679 654 660 664 672 b 671 761 661 704 651 735 b 681 772 674 765 675 768 b 688 782 683 775 688 781 b 681 792 688 785 683 789 b 667 811 675 796 668 801 b 664 842 661 822 664 835 b 671 924 668 869 671 897 l 668 924 b 640 931 660 921 647 924 b 631 954 633 938 631 947 b 633 964 633 958 633 961 l 619 974 b 633 989 621 978 626 985 b 654 989 640 992 647 992 b 668 978 661 989 667 985 b 668 961 671 971 671 967 b 674 967 671 961 671 964 l 697 997 l 701 957 b 697 836 704 917 701 876 b 694 822 694 832 694 825 b 701 813 697 819 699 818 b 718 785 708 806 718 799 b 704 751 721 768 711 758 b 697 744 701 750 699 747 b 711 686 688 728 697 704 l 722 672 l 706 663 b 681 642 697 656 688 649 b 708 610 690 629 699 619 b 718 585 711 606 721 596 b 704 561 718 572 708 565 l 701 558 b 692 540 697 554 694 547 b 674 507 688 528 683 517 b 664 500 671 504 668 501 l 657 493 b 661 488 657 493 660 490 b 714 300 706 436 725 365 b 722 239 721 281 721 260 b 738 192 722 215 728 199 l 739 189 b 756 156 746 182 758 172 b 746 138 753 146 749 142 l 744 138 b 772 76 732 121 739 107 b 796 53 779 68 789 60 l 803 40 l 751 -8 b 749 -14 751 -11 749 -11 l 768 -49 m 138 914 b 136 917 138 914 136 915 l 133 917 "},"O":{"ha":1122,"x_min":0,"x_max":0,"o":"m 1088 433 l 1054 410 b 1026 392 1044 403 1035 396 b 1021 385 1024 389 1024 386 l 969 288 b 1000 278 981 285 990 281 l 1021 271 l 1010 254 b 963 199 996 233 979 215 l 986 111 l 963 115 b 926 138 946 118 936 128 b 906 151 918 144 913 151 b 894 146 903 151 899 151 b 865 111 882 138 871 125 b 875 83 871 104 875 94 b 847 46 875 68 865 50 b 817 53 835 43 824 50 b 804 57 811 54 807 57 b 794 50 803 57 797 53 l 726 -25 b 713 -35 725 -28 722 -35 b 694 -32 708 -37 701 -37 b 671 -11 682 -28 678 -21 b 665 -7 668 -8 668 -8 b 656 0 661 -1 656 0 l 651 -4 b 635 -17 647 -8 642 -14 b 604 -17 624 -21 614 -18 b 600 -14 604 -17 601 -17 b 563 -35 583 -11 567 -21 l 556 -58 l 496 -8 l 493 -11 l 493 -14 b 485 -28 489 -18 486 -24 l 456 -14 l 456 -11 b 161 132 343 -1 239 50 b 35 464 76 222 32 342 b 181 789 39 589 92 704 b 232 832 197 804 214 818 b 222 849 231 836 228 843 l 207 881 l 242 872 b 269 856 251 869 263 865 l 303 876 b 343 893 315 883 329 890 b 401 879 367 897 385 889 l 401 886 b 381 910 397 896 390 903 l 350 940 l 393 938 b 485 957 424 935 454 947 l 499 961 l 506 951 b 524 904 515 938 522 921 b 526 890 526 900 526 896 b 524 883 526 889 524 886 b 526 881 524 881 524 881 b 533 893 529 881 533 889 b 546 921 532 900 532 914 b 576 917 556 926 567 926 b 583 910 578 914 581 913 b 593 903 586 907 588 904 b 600 897 594 900 597 897 b 604 903 600 900 601 903 b 625 917 610 907 617 914 l 631 917 l 635 914 b 649 896 642 913 649 904 b 642 863 651 886 649 872 b 588 836 631 846 610 836 l 586 836 l 583 836 b 583 832 583 836 583 835 b 593 819 586 826 588 825 b 597 813 593 818 594 815 b 604 772 607 799 610 785 l 604 771 b 607 768 604 771 604 768 b 635 811 618 781 628 796 b 649 832 638 818 642 826 b 679 839 658 839 671 839 l 686 839 b 701 849 694 839 699 842 b 699 860 703 853 701 858 l 632 924 l 715 886 b 743 869 725 883 736 879 b 756 826 756 858 760 839 b 725 801 749 813 733 806 l 722 801 b 679 768 708 792 692 782 b 686 771 682 771 685 771 b 722 765 701 772 713 768 l 732 764 b 753 761 739 761 746 761 b 767 758 757 758 763 758 b 868 700 807 751 842 731 l 901 657 l 740 714 b 736 697 739 710 736 703 b 746 679 736 688 739 681 b 760 674 749 676 753 674 l 764 672 l 776 672 b 828 656 793 667 811 664 l 838 649 l 833 636 b 794 547 826 606 811 575 b 821 551 803 549 811 551 b 881 556 840 556 858 561 l 913 551 l 888 528 b 847 493 872 517 861 504 b 831 457 838 483 826 469 b 838 453 831 456 833 453 b 844 453 840 450 842 450 l 868 463 l 868 439 b 872 396 868 425 871 410 b 878 363 875 385 875 375 b 892 372 882 363 888 365 b 903 408 899 382 901 393 l 906 413 b 935 510 913 446 922 479 b 957 540 936 518 943 533 l 1043 575 l 974 514 b 960 460 960 500 957 476 b 963 436 960 453 960 446 b 965 403 963 425 965 415 b 1004 417 979 406 990 410 b 1047 439 1014 429 1026 440 m 979 372 b 963 371 974 372 967 371 b 946 371 957 368 950 368 b 932 386 939 372 932 379 b 918 354 929 375 925 363 b 854 338 903 335 875 324 l 847 339 l 847 349 b 842 392 844 363 842 378 b 838 419 840 401 840 410 b 826 422 833 419 828 422 b 800 447 814 426 804 436 b 826 514 793 469 803 490 b 833 524 828 518 831 521 b 826 521 831 521 828 521 b 763 518 807 517 783 514 l 739 524 l 753 542 b 800 633 774 571 788 601 b 772 639 790 636 781 639 b 757 642 767 642 763 642 l 756 643 b 729 650 746 643 736 646 b 706 697 713 660 703 679 b 715 735 706 711 710 724 l 713 735 b 692 740 706 738 696 740 b 671 728 685 738 678 733 b 618 714 656 718 638 707 l 594 721 l 600 728 l 594 735 b 588 742 593 738 590 740 b 576 754 586 744 581 750 b 571 768 576 757 571 761 b 574 782 571 775 571 781 b 571 794 576 785 574 789 b 567 801 569 796 567 799 b 553 822 563 806 557 813 b 574 867 547 839 556 860 l 588 867 b 593 867 588 867 590 867 b 574 876 586 869 578 872 b 564 883 569 879 567 881 b 533 850 560 867 547 856 b 501 860 522 849 510 850 b 493 889 493 867 492 879 l 493 896 b 493 897 496 896 496 896 b 485 924 492 907 489 917 b 425 907 465 917 447 910 b 431 897 428 904 428 900 b 421 843 438 876 435 856 l 411 836 l 401 842 b 347 863 383 856 364 865 b 319 850 339 860 329 856 l 272 819 b 265 815 269 818 268 818 b 235 781 263 799 254 785 l 232 792 b 201 765 222 785 211 775 b 68 464 119 688 69 579 b 185 154 63 349 106 239 b 479 19 263 71 367 24 b 486 24 482 22 485 24 l 496 33 l 540 -7 b 607 17 557 13 583 22 b 614 14 610 17 611 14 l 624 13 b 628 17 624 13 625 14 b 644 29 632 22 638 26 b 689 14 658 36 678 31 b 696 7 692 13 694 10 b 706 -4 699 3 703 -1 l 772 68 b 800 90 776 76 786 88 b 831 81 811 90 821 85 b 840 76 833 81 840 76 b 842 83 840 78 842 81 b 835 101 842 90 840 97 l 833 108 l 835 114 b 878 172 840 138 857 158 b 908 185 888 179 899 185 b 936 169 919 185 929 176 l 926 208 l 935 215 b 969 254 946 226 957 240 l 943 263 l 922 264 m 664 799 b 675 806 668 801 671 804 l 672 806 b 668 806 671 806 668 806 l 664 799 "},"P":{"ha":668,"x_min":0,"x_max":0,"o":"m 631 585 b 631 565 635 575 633 568 b 563 521 624 538 593 518 b 549 525 557 524 553 524 b 536 528 543 525 540 528 b 525 525 532 528 526 528 b 522 521 525 525 525 524 b 519 514 522 518 519 517 b 489 483 513 500 501 493 b 468 464 479 479 472 471 l 468 463 b 456 447 465 460 464 453 b 411 456 438 436 421 450 b 407 460 411 457 410 460 b 369 463 400 464 388 467 b 360 460 367 463 363 460 b 313 453 346 456 329 450 b 289 457 303 453 296 456 l 282 460 b 225 463 263 464 244 464 b 194 453 214 460 207 457 b 178 446 190 450 183 447 b 133 436 161 440 146 439 l 133 7 l 100 7 l 100 913 b 93 907 99 913 96 910 b 72 890 86 900 79 896 l 53 917 b 72 931 61 921 68 926 b 110 957 85 940 96 950 b 190 951 133 971 169 974 l 193 950 b 204 954 197 947 197 947 b 228 968 211 958 218 967 b 278 950 247 975 268 967 b 279 921 282 940 282 928 l 279 889 b 282 869 279 881 279 876 b 301 850 285 863 289 856 b 347 832 315 842 332 835 l 353 832 b 350 835 350 832 350 832 b 347 843 350 836 347 842 l 347 874 b 378 907 350 893 363 907 b 393 907 383 907 388 907 b 411 907 401 904 407 904 l 418 914 b 431 924 424 917 425 921 b 475 919 444 931 464 933 b 479 893 479 910 479 900 l 479 890 b 503 856 479 879 492 865 b 560 818 522 836 540 819 b 593 792 593 815 593 796 b 583 775 590 782 586 778 l 501 686 b 468 664 494 679 485 667 b 438 669 458 663 447 663 b 428 679 435 672 431 674 l 428 663 b 449 625 431 646 440 632 b 522 610 471 610 494 610 l 533 610 b 607 601 560 608 583 606 b 631 585 611 601 626 596 m 567 554 b 600 571 581 551 593 558 b 533 578 579 575 556 578 l 522 578 b 432 599 492 579 458 579 b 397 657 414 613 400 633 b 417 726 394 683 400 707 b 431 735 417 726 421 733 b 449 731 438 735 442 733 b 458 707 454 724 458 717 b 456 697 458 704 456 703 l 456 696 b 458 696 456 696 458 696 l 461 696 b 478 707 465 696 472 703 l 553 788 b 482 832 522 792 499 815 b 449 889 471 843 449 863 l 449 896 b 449 897 449 896 449 896 l 447 896 b 440 890 444 896 442 893 b 428 881 438 889 432 883 b 390 874 414 872 400 874 b 381 876 388 874 383 876 l 381 869 b 381 849 378 863 378 856 l 381 842 b 381 811 383 835 388 822 b 347 799 371 794 356 799 b 346 801 347 801 346 801 b 282 822 322 804 301 811 b 251 860 265 835 256 846 b 249 890 249 872 249 881 l 249 924 l 249 935 b 238 938 247 938 239 940 b 225 931 232 938 231 935 b 178 921 215 924 201 910 b 169 928 174 924 171 926 b 133 933 160 938 146 938 l 133 467 b 167 476 143 469 154 471 b 185 481 174 479 178 481 b 218 493 194 486 207 490 b 292 490 242 497 268 497 b 299 488 293 490 296 488 b 315 483 306 486 310 486 b 350 490 326 483 339 486 b 363 493 356 490 357 493 b 425 486 390 500 410 497 b 432 481 428 483 431 483 b 440 476 435 479 438 479 l 440 481 b 471 510 447 494 461 501 b 492 528 479 517 486 521 b 494 533 492 531 494 533 b 503 547 496 538 499 542 b 540 558 510 556 525 561 b 556 556 546 558 550 556 b 567 554 560 554 563 554 "},"Q":{"ha":1175,"x_min":0,"x_max":0,"o":"m 1126 342 b 1139 288 1139 324 1143 304 b 1078 246 1132 260 1103 246 b 1014 263 1054 246 1033 254 b 993 267 1000 269 993 269 b 1000 247 990 267 993 260 b 1010 193 1007 239 1021 215 b 997 179 1007 186 1003 182 b 915 115 971 156 943 138 l 1054 24 l 1035 -1 l 885 100 b 861 85 878 94 871 90 l 858 83 l 854 83 l 849 83 b 654 31 778 83 708 64 l 644 26 b 561 -4 621 13 592 -4 l 550 -4 b 496 19 529 -1 513 10 l 381 94 b 361 111 374 97 367 101 b 357 125 360 115 357 121 b 354 131 357 128 357 128 b 338 154 353 139 344 146 l 331 161 b 314 219 314 182 307 200 l 317 226 l 397 246 b 392 250 394 247 392 247 b 385 260 390 253 388 257 b 374 301 375 274 374 288 b 368 328 374 314 374 324 b 360 335 367 331 361 332 b 338 371 350 342 336 351 b 350 396 338 382 344 389 b 354 401 353 396 354 399 l 347 403 b 282 410 326 408 303 410 b 228 378 269 392 251 379 b 164 393 201 378 181 386 b 151 399 158 396 154 399 b 144 396 151 399 147 396 b 90 382 131 389 110 379 b 56 408 76 386 63 396 b 56 440 50 419 50 432 b 72 457 60 447 67 456 l 117 494 l 121 494 b 124 507 124 497 124 504 b 119 510 124 510 121 510 b 117 507 117 510 117 510 l 114 504 b 110 494 113 500 113 497 b 67 476 103 481 83 471 b 35 511 50 481 36 494 b 39 535 35 521 36 531 b 167 632 56 589 110 629 l 188 632 b 229 636 204 629 218 629 b 249 656 236 642 242 649 b 265 674 253 663 258 669 b 374 676 293 703 344 703 l 375 674 l 385 721 l 397 721 b 463 751 421 721 444 731 b 507 818 483 771 499 796 l 513 826 b 547 883 522 846 531 867 b 554 893 550 886 553 890 b 604 913 564 904 576 919 b 703 933 638 903 675 913 b 719 950 708 938 715 943 b 747 974 729 957 739 967 b 821 981 767 985 797 994 b 851 943 838 971 844 954 l 889 867 b 915 794 899 846 910 819 b 919 765 917 785 917 775 b 922 735 919 757 919 744 l 933 704 b 950 657 940 690 949 676 b 936 579 953 629 943 603 b 922 533 929 564 925 547 b 932 518 922 528 926 521 l 936 517 b 969 488 949 511 964 504 b 949 436 976 464 960 447 b 932 417 939 429 932 422 b 946 406 932 413 939 406 b 971 408 953 403 963 406 l 983 408 b 1126 342 1038 415 1096 389 m 1108 294 b 1099 325 1111 307 1106 318 b 988 378 1075 361 1031 382 b 976 375 983 378 981 378 b 940 375 967 375 953 372 b 899 417 919 378 899 393 b 925 460 899 436 915 450 b 939 479 933 467 940 474 b 925 488 939 481 932 483 l 917 490 b 892 535 901 497 889 518 b 906 589 894 554 899 572 b 917 656 913 613 919 633 b 906 693 917 667 910 679 b 892 728 901 704 894 717 b 886 764 889 740 889 751 b 885 789 886 772 886 781 b 861 853 879 811 871 832 l 824 928 b 804 951 818 940 811 947 b 767 947 794 958 778 954 b 743 926 757 940 750 933 l 722 907 b 594 881 686 881 638 869 b 581 874 588 883 588 883 b 571 863 578 869 574 867 b 540 813 557 849 550 832 l 536 806 b 486 728 524 781 510 751 b 411 690 463 707 438 693 l 401 633 l 390 633 b 357 649 374 632 364 642 l 353 653 b 286 650 336 667 306 667 b 272 636 282 649 276 642 b 246 608 265 626 258 618 b 185 599 228 596 204 599 l 167 599 b 67 525 124 599 82 568 l 65 517 b 74 507 67 511 69 507 b 83 511 76 507 82 510 b 86 517 83 514 83 514 b 90 525 86 518 89 524 b 121 540 97 535 107 540 b 150 524 133 540 144 535 b 150 483 157 511 157 494 b 131 464 147 474 140 469 l 90 433 l 83 426 b 83 422 83 426 83 425 b 96 415 86 419 90 415 b 133 425 107 413 119 417 b 151 429 138 426 144 429 b 178 422 161 429 171 426 b 225 410 197 413 211 408 b 256 432 236 410 251 417 l 260 440 l 269 440 b 354 433 299 440 326 439 b 388 408 378 429 385 417 b 375 375 390 392 381 382 b 368 368 374 372 368 371 b 378 361 371 365 375 363 b 392 349 383 356 388 354 b 404 304 404 335 404 318 b 411 278 407 293 407 283 b 415 271 411 276 414 274 b 425 226 422 263 439 246 b 401 215 418 217 408 215 l 344 200 b 354 182 344 193 353 186 b 361 176 357 179 360 176 b 385 139 371 165 381 154 b 388 132 388 138 388 135 b 390 125 388 131 388 128 l 397 121 l 513 46 b 554 26 526 38 540 29 b 628 53 578 24 604 38 l 638 60 b 849 114 699 94 774 114 b 856 118 851 115 854 115 l 679 236 l 699 263 l 886 138 b 976 203 917 156 949 179 b 983 208 979 206 981 208 b 974 229 983 213 981 219 b 969 288 957 253 957 274 b 1025 293 976 297 993 307 b 1078 276 1044 283 1061 276 b 1108 294 1089 276 1106 283 "},"R":{"ha":586,"x_min":0,"x_max":0,"o":"m 493 711 b 506 679 496 703 500 690 b 506 636 513 667 513 650 b 479 610 500 626 492 618 b 442 599 465 601 454 596 b 428 601 438 599 432 599 b 421 603 425 601 424 601 l 408 603 b 411 599 408 601 411 601 l 411 596 b 424 568 415 589 421 579 b 408 533 424 554 418 540 b 374 528 400 525 385 524 l 289 501 l 283 501 b 286 486 282 500 286 490 b 283 453 289 481 292 464 b 268 439 282 446 275 440 b 253 439 263 436 256 436 l 249 439 b 235 429 246 439 239 433 b 207 410 228 422 218 413 b 178 410 197 408 188 408 l 167 410 b 144 406 160 410 153 408 b 119 389 136 401 126 396 b 133 386 124 389 129 386 b 157 372 143 385 150 379 b 167 342 164 363 168 351 l 164 335 l 157 332 b 138 325 150 328 143 328 b 124 321 133 325 129 324 b 96 283 110 317 103 300 b 90 260 93 274 90 267 b 106 243 93 254 99 247 l 107 240 b 117 231 110 239 114 233 b 140 210 124 224 131 217 b 161 203 147 206 154 203 b 183 243 168 217 174 231 b 244 271 199 264 222 274 b 289 222 263 267 279 250 l 317 240 b 374 247 326 246 353 263 b 385 185 397 236 397 206 b 381 175 385 182 383 176 b 371 146 376 163 371 156 b 374 144 374 146 374 144 b 378 142 374 144 376 142 l 424 121 b 468 78 435 115 461 101 b 461 40 469 64 465 53 b 458 29 461 36 458 33 b 458 19 456 26 458 22 b 463 26 461 19 461 22 l 492 14 b 465 -14 489 6 482 -8 l 458 -14 b 438 -4 451 -14 444 -11 b 428 36 428 6 424 22 b 432 53 428 40 431 47 b 435 71 435 60 438 67 b 408 92 435 81 421 88 l 364 114 b 347 125 360 115 353 118 b 340 144 343 131 340 138 b 353 189 338 161 346 175 b 357 199 354 192 357 193 b 357 222 361 208 361 219 b 333 215 354 224 350 222 l 299 192 b 276 186 293 189 286 185 b 258 208 263 192 261 203 b 238 239 256 217 249 239 b 208 224 228 240 215 233 b 190 185 199 213 194 199 l 188 175 l 178 172 b 121 185 161 168 140 172 b 93 210 113 192 103 200 b 86 217 90 213 89 215 l 86 10 l 53 10 l 53 903 l 58 944 b 69 968 60 951 60 961 b 89 975 75 974 82 975 l 90 975 b 133 964 106 975 119 968 b 143 958 136 961 138 958 b 171 957 153 954 167 951 b 175 961 174 958 174 958 b 185 968 178 964 181 967 b 229 971 199 981 218 975 b 249 967 238 967 244 964 l 258 967 b 279 968 263 964 269 967 b 324 964 292 971 307 975 b 338 950 331 961 336 954 b 343 943 340 947 343 944 b 371 931 350 938 360 933 l 376 931 b 421 903 390 926 408 919 b 418 863 428 890 425 874 b 392 846 414 850 401 846 b 360 865 376 846 367 858 b 350 874 357 869 353 874 l 340 874 b 315 858 326 869 317 865 b 319 839 315 853 317 846 b 322 832 319 836 322 835 b 319 772 326 813 326 792 b 361 775 336 768 354 772 b 388 788 371 778 378 782 b 425 804 400 792 411 799 b 506 785 451 811 485 808 b 510 738 517 772 522 751 b 500 733 508 735 503 735 b 493 711 496 728 493 721 m 486 761 b 482 764 485 761 485 764 b 435 772 472 778 449 778 b 401 758 424 768 414 764 l 371 744 b 289 757 338 735 307 738 l 279 764 l 286 775 b 292 822 293 789 296 806 b 289 829 292 825 289 826 b 283 865 286 839 282 853 b 331 904 289 883 306 896 b 346 907 336 904 340 904 b 322 921 336 910 329 914 l 313 931 b 307 938 310 933 307 938 b 286 935 303 940 296 940 b 253 933 275 933 265 931 b 221 940 242 933 229 935 b 201 944 214 943 204 944 b 199 940 201 943 201 943 b 194 933 197 938 197 935 b 131 928 178 919 154 919 b 119 935 126 931 121 933 b 90 944 110 940 100 944 l 90 943 l 86 900 l 86 399 b 133 433 99 417 119 426 b 167 443 143 439 153 443 b 183 440 174 443 178 440 b 199 440 190 440 194 439 b 214 450 204 440 208 446 b 249 469 222 460 232 469 l 256 469 b 258 469 258 469 258 469 b 256 476 258 471 258 474 b 261 524 253 490 246 510 b 279 533 268 531 275 533 l 381 564 l 388 556 l 390 556 b 392 565 390 558 392 561 b 385 579 390 568 390 572 b 376 596 381 585 378 592 b 385 626 374 608 378 619 b 397 632 390 629 394 632 b 428 633 407 636 418 636 b 435 632 431 633 432 632 b 444 629 439 632 442 629 b 463 636 449 629 454 632 b 478 650 469 642 475 646 b 478 664 479 656 479 660 b 463 707 472 674 465 690 b 482 758 461 728 468 747 l 485 758 m 392 886 b 371 897 388 893 381 896 b 383 886 376 896 381 890 b 392 876 385 883 390 876 b 392 886 392 879 394 883 m 126 356 b 114 358 121 356 119 356 b 86 365 106 358 96 361 l 86 331 b 110 351 93 338 100 344 b 126 356 114 354 121 354 "},"S":{"ha":719,"x_min":0,"x_max":0,"o":"m 622 368 b 678 215 660 325 681 271 b 553 31 676 132 629 67 b 376 -7 499 6 438 -7 b 233 17 328 -7 278 0 b 72 290 125 54 54 175 l 104 283 b 244 47 88 186 150 81 b 539 60 339 13 451 17 b 647 217 606 90 646 146 b 599 347 650 264 631 311 b 400 440 549 399 475 419 b 196 535 328 463 251 483 b 135 615 186 542 149 579 l 132 615 l 132 633 b 132 639 132 633 132 636 l 132 669 b 135 726 135 688 135 707 b 139 742 135 728 135 735 b 153 754 142 750 149 751 b 176 788 165 761 169 772 b 179 799 179 792 181 796 l 179 806 b 176 825 176 811 176 818 b 197 850 179 839 190 846 b 203 856 200 853 200 856 b 219 881 210 863 214 872 b 226 896 221 886 224 890 b 247 914 228 900 235 913 b 289 896 264 921 281 910 b 294 889 292 893 292 890 b 301 876 297 883 299 879 b 315 872 304 874 311 874 b 332 874 325 872 329 874 b 332 876 329 874 332 876 b 339 896 332 881 332 889 b 356 903 342 900 349 903 b 379 893 365 903 372 897 b 417 889 390 890 406 890 b 461 883 433 886 447 883 b 501 886 478 881 492 879 l 501 896 b 499 900 501 897 501 900 l 499 910 b 514 954 497 926 501 943 b 558 968 525 964 542 971 l 575 967 l 572 950 b 576 917 569 940 572 928 b 583 886 579 907 582 896 l 583 876 b 583 869 583 874 583 872 b 586 865 583 867 583 865 l 572 836 b 553 863 563 842 556 850 b 551 876 551 867 551 872 l 551 883 b 546 907 551 890 549 900 b 539 933 544 917 542 924 b 538 931 539 933 538 933 b 529 914 532 926 529 919 b 532 907 529 913 529 910 l 532 900 b 518 858 538 874 528 863 b 460 850 497 846 475 849 l 414 858 b 369 863 397 858 383 860 l 365 863 l 360 867 l 360 865 b 313 842 358 853 346 839 b 282 850 304 842 294 843 b 267 874 274 856 268 865 b 261 879 264 874 264 876 b 257 886 261 881 258 883 b 254 881 257 883 257 883 b 247 869 251 876 250 872 b 224 832 243 856 235 842 b 217 826 221 829 219 826 b 210 819 214 825 210 819 b 210 813 207 818 210 815 b 213 801 210 808 213 806 b 204 775 213 792 210 782 b 169 726 200 761 190 738 l 167 726 l 165 726 l 165 669 b 163 633 165 657 163 646 b 217 558 163 615 193 579 b 407 471 268 511 336 493 b 622 368 485 450 565 426 "},"T":{"ha":771,"x_min":0,"x_max":0,"o":"m 750 843 l 736 815 l 713 826 l 710 835 b 699 850 710 839 703 843 b 692 856 696 850 693 853 b 678 881 685 865 679 874 l 678 883 b 631 886 663 889 647 889 b 624 883 628 886 625 886 l 639 849 l 600 865 b 590 863 597 867 593 865 b 583 856 585 860 583 858 l 581 839 l 567 839 b 553 843 560 839 554 843 b 547 846 550 846 550 846 b 540 849 543 849 540 849 b 536 813 536 843 536 822 l 536 799 l 533 781 l 515 788 b 500 778 510 788 506 785 b 496 747 496 771 496 758 b 493 697 496 731 496 714 b 493 599 493 664 492 632 b 486 558 493 588 493 572 b 461 535 479 547 469 540 l 456 533 b 446 521 449 528 446 524 b 449 511 446 518 449 517 b 454 501 451 510 454 507 b 454 471 458 493 458 481 b 435 460 449 464 442 463 b 414 464 428 457 418 463 b 401 450 411 457 407 456 l 400 447 b 397 443 400 447 397 443 b 392 419 397 436 394 426 b 390 378 388 403 385 389 b 376 317 397 356 392 331 b 378 257 374 294 374 276 b 383 243 378 253 381 247 b 385 182 388 224 394 203 l 383 175 l 381 175 b 385 172 383 172 383 172 l 397 168 l 394 156 b 421 17 390 108 397 60 l 442 -21 l 401 -4 b 331 47 374 7 346 19 b 326 68 329 54 326 64 b 322 83 324 74 324 78 b 307 97 319 88 313 94 l 296 97 l 293 111 l 293 239 b 293 253 293 243 293 247 b 289 260 292 254 292 257 l 286 264 b 283 372 265 297 265 339 l 283 378 b 289 385 286 379 289 382 l 289 392 b 289 396 289 393 289 396 b 333 471 292 426 313 453 l 324 481 l 322 481 b 322 479 322 481 322 481 b 319 474 319 479 319 476 b 310 457 317 469 314 463 b 256 443 299 443 279 439 b 244 447 253 443 249 446 b 238 469 238 453 235 460 b 244 483 238 474 239 481 b 229 488 239 483 235 486 b 218 497 225 490 222 493 b 204 483 215 490 211 486 b 185 483 197 481 192 481 l 183 486 l 181 488 b 183 540 167 504 175 525 b 188 561 185 547 190 556 l 174 588 l 232 579 b 222 649 211 601 221 633 l 228 660 l 239 660 b 324 672 272 656 303 656 l 326 674 b 343 686 331 679 336 683 b 397 681 360 696 376 693 b 407 674 400 679 404 676 b 425 664 414 669 418 667 l 422 681 b 421 757 422 707 422 731 l 392 778 b 381 792 390 782 383 785 b 378 819 376 801 376 811 l 307 819 l 307 818 b 306 801 307 813 307 806 b 275 778 300 789 289 781 b 242 788 263 775 249 781 l 238 792 l 238 796 b 229 832 235 808 235 822 b 214 843 225 839 218 843 l 208 843 b 185 846 201 843 192 842 b 171 858 178 850 174 853 l 150 850 l 154 876 b 154 900 154 886 157 893 b 144 913 151 904 150 907 b 131 924 140 917 136 919 b 114 938 126 928 119 931 l 114 933 l 103 907 l 86 928 b 28 947 75 947 49 954 l 21 978 b 89 968 42 985 67 982 l 89 971 l 86 994 l 110 988 b 131 967 119 985 126 975 b 150 950 133 961 143 954 b 168 933 157 944 161 940 b 183 913 174 928 181 921 b 188 886 188 903 188 893 b 194 879 190 883 194 881 b 199 874 197 876 199 874 l 204 874 b 214 876 206 874 211 876 b 258 843 232 876 249 863 b 268 808 263 832 265 819 l 269 808 b 275 813 272 808 275 811 b 276 819 275 815 276 818 b 286 849 276 829 279 839 l 292 853 l 435 853 l 415 826 b 408 808 407 813 407 808 b 414 804 408 806 411 804 l 451 771 l 451 765 b 456 681 454 738 456 710 l 456 664 b 444 636 456 657 456 643 b 418 632 439 632 432 629 b 390 649 407 636 397 642 b 381 653 385 650 383 653 b 357 657 371 660 361 660 b 347 653 354 657 353 656 b 343 649 347 650 346 649 b 251 626 317 625 283 625 b 253 603 249 618 249 608 b 258 599 256 601 256 601 b 272 565 265 594 279 582 b 238 549 269 558 260 547 l 221 549 b 215 535 218 544 218 540 b 242 521 228 538 238 525 b 246 517 242 518 244 517 l 251 517 l 256 518 b 292 497 272 521 289 511 l 292 488 b 293 494 292 490 293 493 b 331 514 303 510 317 517 b 346 504 336 511 343 507 l 378 471 l 383 476 b 385 479 383 476 385 479 l 394 493 b 422 494 404 501 415 497 l 422 497 b 414 521 418 504 415 511 b 439 558 414 531 418 547 l 444 564 b 458 575 451 565 456 571 b 461 596 463 579 463 588 b 463 700 458 632 461 664 b 465 747 463 717 463 731 b 472 794 465 761 465 778 b 506 818 479 804 492 815 b 524 874 506 836 506 863 b 557 876 533 879 546 881 b 574 890 563 881 567 886 b 593 897 578 893 585 896 b 601 907 594 900 597 904 b 625 917 608 914 618 917 b 693 913 649 921 672 919 l 701 910 l 703 903 b 708 890 706 900 708 896 b 715 876 710 883 713 881 b 719 874 717 876 717 874 b 739 849 726 867 733 860 m 376 46 b 361 149 364 78 360 114 b 343 182 353 156 343 169 l 340 196 l 360 200 b 353 231 360 210 354 222 b 347 250 350 239 347 243 b 346 325 340 276 343 301 l 346 332 l 350 338 b 360 365 360 342 364 356 b 361 426 353 386 357 408 b 367 447 364 433 367 440 b 368 460 367 450 368 456 l 367 457 b 322 396 347 443 322 419 l 322 392 b 319 378 322 386 322 382 l 313 361 l 310 358 b 313 281 299 335 299 301 l 314 278 b 322 263 317 274 322 269 b 326 239 326 254 326 246 b 326 122 324 200 324 161 b 353 92 338 115 347 104 b 357 76 354 88 354 83 b 361 61 357 71 360 67 b 376 46 364 54 368 50 "},"U":{"ha":833,"x_min":0,"x_max":0,"o":"m 728 893 b 749 886 735 893 742 893 l 760 876 l 753 865 b 688 801 732 839 711 818 b 660 738 683 781 675 757 l 651 731 b 647 726 650 731 650 728 l 657 731 l 660 710 b 617 646 667 679 640 656 l 614 643 b 600 636 607 642 603 639 b 597 615 597 632 597 625 b 596 589 597 606 597 599 b 576 556 590 578 583 565 b 565 533 572 547 565 540 b 582 493 563 518 572 507 b 590 481 586 488 589 486 b 614 399 607 456 610 426 b 617 375 614 389 614 382 b 606 264 621 338 617 300 b 600 253 603 260 603 257 b 590 224 596 243 593 233 b 614 158 589 200 596 175 l 617 156 b 631 138 621 151 626 144 b 621 100 636 122 633 107 b 607 92 617 94 610 92 b 528 78 582 85 553 81 b 522 68 528 78 522 74 b 506 47 518 61 513 54 b 488 38 501 43 492 40 l 426 19 b 403 14 419 17 413 14 b 350 40 381 14 365 29 l 349 43 b 299 78 332 57 315 68 b 285 85 294 81 289 83 b 238 114 268 92 251 100 b 196 208 217 132 190 168 l 203 269 l 203 276 b 200 276 203 276 203 276 b 163 271 190 278 176 276 b 118 267 149 269 133 264 b 78 285 103 267 89 274 b 72 311 68 297 71 307 b 88 325 75 321 82 324 l 88 328 b 78 339 85 332 82 338 b 72 347 75 342 75 344 b 61 378 64 356 61 368 b 61 425 58 392 56 408 b 106 457 65 443 82 460 b 133 440 119 457 126 446 b 136 436 133 439 136 439 b 153 463 143 440 149 453 b 160 476 156 464 157 469 b 94 474 142 460 113 460 b 78 501 82 483 78 493 b 88 528 78 514 85 521 l 89 528 b 75 533 85 531 79 531 b 56 579 58 542 51 564 b 78 615 61 594 68 606 b 92 636 85 622 89 629 l 92 642 b 113 672 92 650 94 667 l 119 672 b 119 688 122 679 122 686 b 115 693 119 690 118 690 b 101 707 110 696 103 700 b 108 742 94 724 103 735 b 110 744 108 742 110 742 b 125 771 118 754 122 764 b 118 826 132 788 125 806 l 113 836 b 126 926 99 876 103 910 b 167 943 139 938 153 940 b 174 944 169 943 172 944 b 197 958 188 947 196 951 b 196 974 197 964 196 971 l 226 985 b 228 951 228 975 231 964 b 181 914 224 933 207 919 b 172 913 179 914 176 913 b 146 903 163 910 153 907 b 143 846 129 889 139 858 l 146 839 b 156 761 156 815 164 788 b 139 728 150 750 143 738 b 132 721 136 726 133 724 b 133 718 132 718 132 718 b 150 700 139 717 146 711 b 150 660 156 686 153 672 b 139 643 150 657 149 649 b 122 639 133 639 126 639 l 122 636 l 122 632 b 101 594 119 615 110 606 b 88 572 94 588 89 579 b 89 561 88 568 88 564 l 94 561 b 119 544 101 558 113 556 b 115 510 129 531 119 517 b 110 501 113 507 110 504 l 113 500 b 142 501 119 493 133 494 b 146 510 143 504 143 507 b 186 531 156 518 167 535 l 193 528 l 197 521 b 183 447 207 504 183 450 b 149 408 174 433 164 415 b 108 419 126 399 115 413 b 101 426 106 422 103 426 b 89 415 99 426 92 422 b 92 385 88 406 89 393 b 96 365 92 375 94 371 b 101 363 96 365 99 363 b 115 342 106 356 110 349 b 108 301 122 328 119 311 b 122 297 113 300 118 297 b 156 301 132 294 143 300 b 210 307 172 307 190 311 b 228 293 218 304 224 300 b 233 264 235 283 233 271 l 226 206 b 258 138 224 176 242 151 b 299 114 271 128 285 121 b 313 107 304 111 308 108 b 369 67 335 94 353 83 l 372 64 b 403 46 381 54 393 46 l 417 47 l 475 68 b 488 71 481 68 485 71 l 494 83 b 525 111 499 94 506 108 b 597 122 551 111 575 118 l 600 122 b 593 132 600 128 596 131 l 590 135 b 560 229 567 161 556 196 l 569 264 b 575 276 572 267 575 271 b 583 371 586 307 589 339 b 582 393 583 379 583 386 b 565 463 579 419 576 443 b 556 474 563 467 560 471 b 532 535 543 493 529 511 b 551 575 535 551 543 564 b 565 596 558 582 563 589 l 565 615 b 576 657 565 626 565 643 b 600 674 583 664 593 669 l 606 674 b 626 693 614 679 621 686 b 624 696 626 693 626 696 b 613 728 614 703 610 717 b 631 754 617 740 624 747 b 636 758 633 757 636 757 b 660 815 650 772 654 794 l 661 819 l 667 825 b 708 860 681 835 694 846 b 694 867 704 863 699 865 b 685 883 690 872 685 876 b 694 904 685 896 692 903 b 714 924 701 913 708 919 b 763 988 735 944 753 964 l 793 975 b 738 903 782 947 758 924 b 728 893 732 900 729 896 "},"V":{"ha":943,"x_min":0,"x_max":0,"o":"m 908 938 b 888 858 904 910 897 883 b 847 804 881 836 871 813 b 821 799 838 801 831 799 b 810 796 817 799 813 799 b 797 792 804 796 803 794 l 797 778 b 803 775 800 775 800 775 b 817 764 807 772 813 768 b 831 735 824 754 828 744 b 835 704 833 728 835 717 b 813 669 835 688 826 674 b 769 688 797 667 783 672 l 763 696 b 767 606 763 664 760 633 b 776 575 769 596 772 585 l 786 540 b 776 464 790 518 793 488 b 718 432 763 440 739 433 b 722 419 719 426 722 425 l 722 406 b 715 393 719 401 718 396 b 664 389 701 382 682 379 b 635 413 651 396 644 403 l 631 415 b 618 425 626 419 621 422 b 626 408 621 419 624 413 b 621 379 628 396 626 386 l 635 379 l 650 354 b 657 331 651 347 654 338 b 654 297 658 318 657 307 b 644 283 651 293 650 285 l 642 278 l 638 276 b 581 243 617 271 597 260 b 590 203 588 233 593 217 b 564 158 588 186 579 169 b 546 151 560 156 556 151 l 533 151 b 553 114 543 139 549 128 b 550 68 563 90 556 76 b 533 60 546 64 539 61 l 532 57 b 532 53 532 57 532 53 b 532 24 533 46 536 33 b 508 7 525 13 513 10 l 458 -7 l 35 928 l 100 933 b 146 924 113 933 131 935 b 154 938 146 928 150 933 b 167 943 160 940 164 943 l 167 950 b 167 958 167 954 167 957 b 200 1011 169 985 185 999 b 224 1043 211 1022 221 1032 l 254 1039 b 221 988 251 1015 235 1001 b 200 957 208 978 200 968 b 197 950 200 954 200 951 b 185 917 197 940 197 924 b 176 913 181 914 178 913 l 176 904 b 174 869 178 896 181 881 l 169 860 l 157 863 b 131 889 143 867 136 879 b 124 897 129 893 126 896 b 103 903 122 903 115 903 l 85 900 l 478 31 l 499 38 l 501 38 b 501 46 501 40 501 43 b 501 71 499 53 499 61 b 522 88 506 83 515 85 b 526 90 522 90 525 90 l 525 104 b 501 144 518 118 510 132 b 494 161 499 146 494 154 b 501 182 494 168 496 176 b 529 186 508 186 519 189 b 539 185 532 186 533 186 l 543 182 b 546 185 543 182 543 182 b 560 208 553 189 560 199 b 550 231 560 215 557 226 l 536 240 l 546 253 b 624 304 567 278 593 294 l 624 308 b 626 324 626 314 626 318 l 618 342 l 617 347 l 588 347 l 583 354 b 586 386 576 363 579 378 b 593 392 588 389 590 389 b 596 393 593 393 593 393 b 593 401 596 393 596 396 b 590 413 593 406 590 410 l 588 419 b 586 432 586 422 586 426 b 603 456 586 440 593 450 b 651 439 617 463 633 456 l 657 433 b 678 417 664 429 671 422 b 689 415 682 415 688 415 b 681 433 685 419 681 425 l 678 457 l 694 460 b 750 481 718 463 739 464 b 756 533 758 493 760 511 b 746 565 753 544 749 554 b 736 599 743 578 739 588 b 732 703 729 633 729 669 b 746 728 732 707 732 724 b 765 728 756 733 763 731 b 793 710 776 726 786 718 b 804 700 800 703 803 700 b 804 704 803 700 804 703 b 800 726 804 711 803 718 b 793 742 797 733 796 738 b 783 750 790 744 789 747 b 776 754 781 750 779 751 l 774 754 l 774 757 l 753 750 l 758 775 b 800 826 760 801 779 822 b 819 829 807 829 814 829 b 835 832 826 832 831 832 b 857 867 847 836 851 853 b 878 943 867 890 874 917 "},"W":{"ha":1114,"x_min":0,"x_max":0,"o":"m 1071 728 b 1064 704 1074 721 1068 711 b 1040 696 1060 700 1050 696 b 1047 693 1043 696 1044 693 b 1053 676 1053 688 1054 681 b 1013 626 1047 656 1033 636 b 946 632 990 615 965 618 b 929 650 939 639 935 643 l 928 653 b 890 688 915 667 904 679 b 888 674 888 683 888 679 l 890 672 b 882 646 890 664 890 656 b 867 636 881 642 874 636 b 854 633 861 633 858 633 b 871 622 858 632 864 626 b 932 582 890 608 911 592 b 942 572 936 579 939 578 b 939 558 942 568 942 564 b 894 542 932 549 921 540 l 885 542 b 864 542 878 542 871 544 l 851 535 b 833 524 847 531 840 525 b 807 518 824 518 814 518 l 804 518 b 807 517 804 517 804 517 b 821 500 813 511 817 504 b 833 493 824 497 828 494 b 854 474 840 488 850 481 b 851 425 867 460 868 436 b 836 422 847 419 840 419 l 796 440 b 776 447 789 443 782 447 b 769 446 774 447 772 446 b 774 429 769 446 769 440 l 789 392 b 790 363 790 386 796 375 b 782 349 789 358 786 354 b 833 331 790 335 813 332 l 843 331 b 847 347 844 332 847 339 l 850 349 b 897 410 857 375 874 396 b 975 422 922 425 951 426 b 986 406 982 419 986 413 b 951 368 986 386 969 372 b 932 365 946 365 939 365 b 918 363 928 365 922 365 b 911 358 913 363 911 358 b 913 354 911 358 911 356 b 918 339 913 349 915 347 b 906 301 922 324 911 308 b 857 239 892 281 875 257 b 843 213 851 231 844 222 b 844 199 840 208 840 200 l 847 199 b 850 200 850 200 850 200 b 858 210 851 206 854 210 b 874 208 864 213 871 213 l 888 199 b 894 189 892 196 894 193 b 890 175 894 185 892 179 b 899 165 892 169 897 168 b 958 132 918 151 936 139 b 967 158 958 142 960 151 b 1007 172 976 169 993 175 b 1057 142 1031 169 1044 154 b 1061 128 1060 138 1061 132 b 1026 101 1057 107 1033 104 l 1024 101 b 1029 94 1024 100 1026 97 b 1024 68 1031 83 1026 74 b 989 19 1014 47 1003 31 b 922 7 967 6 944 0 b 911 13 918 7 913 10 l 897 17 b 888 6 894 14 890 10 b 854 -14 881 -1 871 -14 l 850 -14 b 828 0 840 -11 833 -7 b 826 38 824 10 821 26 b 831 50 828 43 831 46 b 838 67 836 57 838 61 b 817 92 838 76 826 85 l 736 154 b 729 163 732 156 729 158 b 711 189 728 172 719 185 b 638 139 685 176 654 163 b 626 100 633 131 628 114 b 596 33 621 76 617 47 b 557 31 576 19 563 29 b 543 149 526 54 539 139 b 563 158 546 156 553 161 b 572 161 565 158 569 158 b 579 169 576 163 579 168 b 579 189 581 176 579 182 b 576 217 576 199 574 208 b 621 264 579 240 597 260 b 640 267 626 267 633 267 b 661 274 650 269 657 269 b 658 304 665 278 664 288 l 657 311 b 650 354 651 324 647 338 b 621 372 638 354 626 358 b 621 401 617 385 619 393 b 624 408 621 403 624 406 b 619 415 621 408 619 413 l 617 417 b 597 483 603 436 596 460 b 586 551 600 504 593 528 b 574 592 581 564 576 578 b 572 622 572 601 569 610 b 579 646 572 629 576 639 b 583 667 583 656 586 663 b 567 679 581 672 574 674 b 557 683 565 681 560 681 b 543 700 553 686 546 690 b 546 724 539 710 543 718 l 567 772 b 574 781 567 775 569 778 b 579 796 576 782 579 789 b 567 822 576 806 572 815 b 560 836 565 826 563 832 l 319 19 b 306 7 318 13 313 7 b 289 19 299 7 292 13 l 42 978 l 72 988 l 306 83 l 539 881 b 553 893 542 889 546 893 b 569 886 560 893 565 890 b 596 839 576 869 586 856 b 610 801 600 829 607 815 b 593 757 611 785 607 765 b 574 711 589 742 581 726 b 581 707 576 710 579 707 b 611 679 593 700 607 693 b 607 633 619 663 614 646 b 603 618 604 626 603 622 b 604 599 603 610 603 606 b 614 561 607 585 611 572 b 628 481 624 535 631 510 b 643 436 628 464 633 447 l 643 433 b 654 413 647 429 651 422 b 651 392 654 406 651 396 b 650 385 650 389 650 385 l 661 385 b 674 379 664 382 668 382 b 681 354 675 379 685 372 b 688 324 678 344 682 335 l 689 317 b 682 250 692 304 704 271 b 643 236 671 239 654 236 b 628 233 638 236 633 236 b 607 213 617 231 610 222 b 610 196 607 208 607 203 b 611 165 611 186 614 176 b 590 135 607 154 600 142 b 572 128 583 132 576 128 b 574 60 567 107 569 68 l 576 60 b 596 104 589 67 590 85 b 611 156 597 122 603 142 b 697 217 633 186 668 203 b 713 222 699 219 704 222 b 728 217 718 222 725 217 b 760 175 743 208 756 192 l 836 118 b 868 67 847 108 868 92 b 861 38 868 54 864 46 b 857 26 858 33 857 31 b 857 19 854 24 854 22 b 861 26 857 22 861 24 b 888 46 868 33 875 43 b 922 40 901 50 913 46 l 932 36 b 967 46 944 33 958 36 b 996 83 979 53 986 64 l 996 85 b 989 100 993 88 990 92 l 989 108 b 982 101 986 104 983 101 b 953 100 969 94 958 100 b 881 139 928 108 901 122 b 861 161 874 144 867 151 b 858 169 861 163 858 168 b 828 172 847 165 838 168 b 813 222 810 182 807 206 b 833 257 817 236 826 247 b 881 321 850 278 867 300 b 888 332 888 328 888 332 b 885 338 888 335 885 338 b 881 347 882 339 882 342 l 881 342 l 878 338 b 854 301 875 325 871 308 b 833 300 847 297 838 300 b 753 335 803 301 767 307 b 749 351 750 339 749 347 b 760 372 749 361 756 368 l 763 375 b 760 379 763 375 760 379 l 743 419 b 743 463 742 426 735 446 b 779 479 750 474 765 481 b 807 469 790 479 800 474 l 813 467 b 800 479 807 471 803 474 b 783 493 793 483 789 488 b 765 511 779 500 772 504 b 763 533 760 517 758 525 b 804 549 774 547 793 549 b 821 551 813 549 817 549 l 833 558 b 854 571 840 564 844 568 b 882 575 864 575 874 575 b 851 599 871 582 861 589 l 831 613 b 749 649 810 626 779 646 l 736 649 b 681 664 718 649 694 649 b 678 679 678 669 675 674 b 706 714 681 697 694 704 b 722 728 713 718 719 724 b 704 751 722 731 719 738 b 671 813 668 775 665 799 b 713 842 678 829 694 842 b 753 822 728 839 742 835 b 774 782 767 811 774 796 b 772 765 774 775 772 771 b 769 758 772 764 772 761 b 779 721 767 747 772 728 l 824 683 b 857 667 836 674 847 664 l 857 672 b 864 710 854 683 858 697 b 885 724 871 718 881 724 b 906 717 897 726 904 718 b 951 674 922 704 939 688 l 953 669 l 965 657 b 1000 656 975 650 989 650 b 1010 663 1003 657 1006 657 b 969 676 996 663 982 667 b 935 742 946 690 932 717 b 894 735 921 735 908 733 b 885 742 890 735 888 738 b 882 754 882 747 882 751 l 911 849 b 918 863 911 853 913 858 b 951 876 928 874 942 876 b 956 879 951 876 953 879 b 949 881 953 879 951 881 b 929 919 939 889 925 900 b 935 933 929 926 932 931 l 944 944 b 922 940 936 943 932 940 b 885 958 908 940 894 950 b 871 968 881 961 875 967 l 885 997 b 906 982 892 994 899 988 b 922 974 913 978 918 974 b 946 989 929 974 939 981 b 967 992 951 994 960 997 l 983 978 b 989 957 990 974 993 964 l 960 917 l 960 914 b 969 907 963 913 967 910 b 989 867 979 900 996 889 b 953 846 983 849 965 849 b 942 843 951 846 944 846 l 942 839 l 921 768 b 932 778 925 771 928 772 b 944 785 936 781 942 782 b 975 804 953 792 963 799 b 1000 806 976 806 989 808 b 1024 788 1013 804 1019 794 b 1029 781 1024 785 1026 782 b 1040 771 1031 778 1036 772 l 1054 761 b 1071 728 1064 751 1071 740 m 739 761 b 739 765 739 764 739 764 b 742 772 739 768 742 771 l 743 782 b 732 799 743 788 739 794 b 713 808 728 806 719 808 b 701 804 708 808 704 806 b 722 778 699 796 708 788 m 1026 733 b 1040 728 1033 728 1040 726 b 1036 735 1040 728 1038 733 b 1024 742 1031 740 1029 740 b 1003 758 1017 747 1010 751 b 999 768 1000 764 999 765 b 990 775 996 771 993 775 l 986 775 b 969 764 982 772 976 768 b 990 754 976 764 983 758 b 1026 733 1003 747 1014 738 m 1036 696 b 1010 704 1026 697 1019 700 b 972 728 999 711 983 718 b 967 733 969 731 967 731 b 986 703 967 721 975 710 b 1033 696 1000 693 1017 690 m 749 679 b 790 672 763 679 779 676 l 760 697 b 749 710 756 703 753 704 b 722 686 743 700 732 693 b 715 681 719 683 718 683 b 736 679 719 679 729 679 l 742 679 b 749 679 743 679 746 679 m 990 138 b 990 135 990 138 989 135 b 993 118 990 131 993 125 b 1019 132 1000 131 1014 132 b 1003 142 1014 138 1010 142 l 1000 142 b 990 138 999 142 993 139 "},"X":{"ha":833,"x_min":0,"x_max":0,"o":"m 760 7 l 449 439 b 440 436 447 439 444 436 b 428 432 435 433 433 433 b 401 425 418 429 410 426 b 393 379 407 413 417 392 b 350 363 379 371 364 365 l 340 361 b 282 308 310 354 279 335 b 292 285 285 301 289 294 b 306 239 299 274 308 257 b 279 196 303 219 289 208 l 174 85 b 113 38 157 67 139 47 b 106 36 110 38 108 38 b 93 33 100 36 96 33 b 86 14 89 29 89 22 l 86 6 l 56 10 l 56 19 b 72 57 58 31 61 46 b 96 67 79 64 89 67 b 103 68 99 68 100 68 b 150 107 122 74 136 90 l 256 219 b 272 243 265 226 272 236 b 265 271 275 253 271 263 b 251 307 258 281 254 293 b 333 392 247 351 289 382 l 343 393 b 376 406 356 396 367 399 b 371 410 374 406 374 408 b 367 425 369 415 369 419 l 363 433 l 371 440 b 418 463 386 456 401 460 b 431 467 424 464 425 464 l 76 951 l 103 971 l 456 481 b 461 490 458 483 461 488 l 461 500 b 458 521 458 507 458 511 b 508 565 461 540 479 556 l 515 565 b 546 582 526 571 539 572 l 546 588 b 543 594 546 592 543 592 l 526 589 l 526 606 b 564 656 522 629 543 650 b 597 656 576 657 588 657 l 614 656 b 621 657 618 656 618 657 b 621 683 624 660 621 674 b 668 853 614 744 642 801 b 689 896 678 867 685 881 b 722 975 701 919 711 944 l 750 967 b 719 881 742 933 732 907 b 696 839 713 867 706 853 b 651 688 671 788 644 740 b 638 629 654 669 658 643 b 614 625 628 625 621 625 l 597 625 b 572 625 588 625 579 626 b 563 619 567 622 564 622 l 572 610 b 572 561 579 596 581 578 b 522 535 557 544 539 540 l 515 535 b 489 517 503 531 492 525 b 492 507 489 514 489 510 b 492 488 492 500 494 494 b 475 456 492 476 485 464 l 786 26 "},"Y":{"ha":593,"x_min":0,"x_max":0,"o":"m 496 974 l 432 886 b 408 850 422 874 414 863 b 407 842 408 846 407 843 b 401 826 404 836 401 832 b 394 813 399 822 397 818 b 390 806 392 811 390 808 b 378 765 383 794 381 781 b 374 704 371 747 367 724 b 378 693 374 700 376 697 b 385 674 381 686 383 681 b 378 629 390 657 388 642 b 357 615 371 622 364 618 l 353 613 b 324 579 340 606 329 594 b 353 568 333 579 343 578 b 364 535 361 561 367 547 b 354 524 361 531 360 525 b 350 511 354 518 353 514 l 350 510 b 360 497 353 504 357 500 b 368 486 361 494 367 493 b 368 474 371 481 371 476 b 357 450 368 464 364 456 b 324 450 347 443 333 443 b 317 460 319 453 317 457 l 310 467 b 303 419 303 453 299 433 b 307 356 310 399 310 378 b 317 293 307 332 307 311 b 322 283 319 290 322 285 b 336 257 329 276 333 267 b 338 246 338 253 338 250 b 343 233 340 240 340 236 b 344 231 343 231 343 231 l 368 250 l 368 217 b 326 -1 368 142 354 67 b 260 -61 314 -31 286 -47 l 242 -72 l 143 -139 l 140 -112 b 140 -49 138 -92 138 -71 b 150 -32 140 -47 143 -40 b 175 -31 160 -25 171 -28 b 229 -7 194 -37 215 -24 b 272 68 249 14 260 40 b 289 128 279 88 286 107 b 286 158 289 138 289 149 b 289 217 286 176 283 196 b 268 276 293 233 282 253 b 239 349 253 297 236 321 b 244 378 239 358 242 368 b 246 408 246 389 249 399 b 242 426 246 415 244 422 b 232 464 236 439 232 450 b 253 511 235 483 244 497 b 268 533 260 518 265 525 b 265 544 268 535 265 542 b 260 554 263 547 263 551 b 258 558 260 558 258 558 b 246 564 256 558 251 561 b 239 610 229 572 229 594 l 242 615 b 244 618 242 615 244 615 b 222 632 235 622 228 626 b 178 681 204 646 190 663 b 167 785 157 714 161 751 b 168 804 167 792 168 799 b 171 818 168 808 171 813 b 174 843 171 826 174 836 b 164 903 174 865 168 883 b 161 907 164 904 164 907 b 154 914 161 907 157 910 b 151 933 151 919 150 926 b 157 950 151 940 154 944 b 160 958 160 951 161 958 l 190 971 b 185 938 194 957 190 944 b 182 931 185 935 185 933 b 185 928 185 931 185 928 b 194 910 192 924 192 914 b 204 843 199 889 206 867 b 201 815 204 835 204 825 b 199 801 201 811 201 806 b 197 781 199 794 199 788 b 204 697 194 750 190 721 b 242 656 214 683 228 667 b 265 643 249 650 256 646 l 275 643 l 276 632 b 269 599 282 618 275 606 l 268 594 b 265 589 265 592 265 592 b 275 588 268 589 269 589 b 290 564 286 579 290 568 b 293 556 290 561 293 558 b 299 521 299 547 303 535 b 279 493 293 511 286 501 b 265 463 272 481 265 471 b 269 440 265 457 268 450 b 293 497 272 463 279 481 l 300 504 l 307 501 b 317 500 313 501 314 500 l 317 507 b 324 528 317 514 319 521 l 324 531 l 322 544 l 331 544 b 317 549 326 547 322 549 b 310 551 314 549 313 549 b 296 558 307 551 300 551 b 290 579 290 564 289 571 b 338 642 296 606 314 629 l 343 643 b 354 650 347 646 353 649 b 354 667 357 653 357 660 b 350 679 353 672 350 674 b 343 696 347 686 344 690 b 347 775 333 724 340 751 b 361 819 350 789 354 806 b 367 829 364 822 364 826 b 371 839 368 832 371 836 b 376 850 374 843 376 846 b 381 863 378 856 378 858 b 407 904 385 879 397 893 l 469 992 m 276 358 b 276 382 276 365 276 375 b 275 371 276 378 275 375 b 269 349 272 363 269 356 b 276 321 269 339 272 331 m 319 125 b 300 54 319 101 310 76 b 253 -28 289 26 275 -4 l 253 -31 b 299 13 272 -18 290 -7 b 338 200 322 71 336 135 b 319 210 331 200 324 206 l 319 208 b 319 163 314 193 317 179 l 319 125 m 199 -62 b 171 -62 190 -65 181 -65 l 171 -82 "},"Z":{"ha":1008,"x_min":0,"x_max":0,"o":"m 925 86 b 981 121 932 110 957 126 l 974 90 b 956 79 967 93 957 86 l 956 65 b 953 43 956 57 956 50 b 918 8 949 26 933 13 b 875 -4 903 6 889 1 b 790 -21 847 -11 818 -21 l 776 -21 b 743 -12 764 -18 756 -15 l 733 -11 b 668 -1 713 -6 692 -4 l 628 6 b 563 18 607 8 583 13 l 499 32 b 472 46 492 33 479 36 b 469 69 468 53 468 63 b 529 121 475 100 503 119 b 588 119 550 124 569 121 l 600 117 b 719 121 644 110 685 111 l 725 121 b 763 135 736 126 756 128 b 769 144 764 138 767 140 b 788 165 774 151 779 158 b 814 175 797 171 807 174 b 824 178 817 175 821 178 b 840 189 833 181 838 185 b 838 201 840 192 840 196 b 835 211 838 208 835 211 b 818 208 833 211 825 208 l 817 206 b 764 236 781 196 771 222 l 763 242 b 729 290 756 263 743 279 b 671 321 713 310 692 319 b 611 289 656 304 638 293 l 608 289 b 569 290 593 286 578 283 b 557 310 563 296 560 304 b 554 317 554 313 554 317 b 532 314 550 321 536 317 l 499 303 b 468 304 486 300 475 303 b 458 307 463 307 461 307 b 421 314 446 310 435 313 l 418 317 b 401 319 411 317 407 319 b 376 319 388 324 383 324 b 361 300 371 317 367 307 l 346 269 b 329 236 338 258 333 246 b 458 133 376 206 418 171 b 463 103 469 121 468 110 b 449 93 458 96 451 93 b 401 96 432 88 415 90 l 394 96 b 317 100 369 100 343 103 l 299 97 b 154 53 242 93 190 90 l 140 39 b 114 11 133 29 124 19 b 44 3 96 -4 65 -11 l 28 15 l 42 26 l 814 878 l 51 878 l 51 908 l 888 908 l 381 354 b 411 350 392 354 401 351 b 424 347 415 350 418 347 l 428 347 b 465 338 439 343 454 340 b 478 336 469 338 472 336 b 489 333 482 333 486 333 l 519 344 b 574 343 532 347 554 357 b 586 321 581 336 586 326 l 588 319 b 604 319 593 319 600 319 l 608 321 b 647 344 621 321 640 328 l 651 351 l 661 351 b 753 314 694 351 726 340 b 793 256 767 297 781 279 l 794 250 b 800 236 794 246 800 236 l 807 236 l 810 239 b 847 239 821 242 835 246 b 871 208 857 235 865 228 b 868 178 872 196 871 188 b 835 150 864 165 851 154 b 824 144 831 147 825 144 b 804 138 817 142 810 140 b 794 126 803 135 797 133 b 781 111 793 121 788 117 b 733 90 769 100 749 96 l 729 90 b 594 86 689 79 642 79 l 583 86 b 533 90 567 90 550 93 b 500 65 519 88 503 79 b 506 63 500 63 503 63 l 569 49 b 632 36 590 43 611 39 b 672 32 647 33 658 32 b 740 19 694 29 717 26 l 753 18 b 779 13 763 15 769 13 b 865 26 807 11 835 18 b 911 42 879 32 894 36 b 922 50 915 42 919 46 l 922 65 b 925 86 922 72 922 79 m 424 124 b 303 215 385 158 346 189 l 296 219 l 296 232 b 317 283 299 250 307 267 l 86 32 b 96 36 89 32 93 33 b 117 60 103 42 110 50 b 131 76 121 65 126 69 b 296 131 175 121 238 126 l 315 131 b 401 126 343 133 374 133 l 407 126 b 424 124 414 124 418 124 "},"a":{"ha":810,"x_min":0,"x_max":0,"o":"m 775 -115 l 744 -121 l 725 38 b 721 68 725 49 722 58 b 706 103 718 79 711 92 b 685 132 699 113 694 125 b 664 129 678 129 671 129 b 650 133 661 129 654 132 b 640 156 640 140 640 153 l 640 179 b 636 217 640 193 640 204 b 621 240 633 226 628 233 b 607 264 617 249 613 257 b 600 285 604 271 603 278 b 586 313 596 296 593 306 b 563 326 582 318 572 322 b 553 332 560 326 556 329 b 532 350 543 335 536 342 l 231 350 b 224 318 228 339 225 329 b 203 264 218 301 214 281 b 181 238 194 254 188 247 b 160 194 167 221 156 207 l 164 163 l 136 179 b 129 172 133 179 132 176 b 126 150 126 164 126 157 b 125 140 126 146 126 143 b 61 0 122 86 89 38 l 35 18 b 94 143 61 54 92 96 l 94 150 b 101 183 94 160 94 172 b 125 207 106 194 113 203 b 126 210 125 207 126 207 b 157 258 132 228 146 244 b 176 281 164 265 171 272 b 193 325 183 294 188 311 b 233 508 207 386 221 447 b 244 535 235 518 240 525 l 247 539 b 261 556 249 543 251 551 b 288 556 272 560 282 558 b 292 553 289 556 292 553 b 294 569 292 556 294 560 l 288 661 l 303 661 b 336 694 318 661 332 678 b 343 721 342 704 342 711 b 356 765 346 736 349 751 l 357 769 b 363 779 360 772 363 776 b 360 783 363 779 360 782 l 360 786 b 365 831 356 803 360 819 l 346 833 l 343 861 b 346 928 342 883 342 904 l 363 1031 l 376 928 b 410 892 379 911 393 897 b 424 888 414 892 419 890 b 433 876 428 885 431 881 b 442 836 442 864 442 850 b 447 814 442 829 444 819 b 457 800 450 810 451 806 b 464 789 458 799 461 793 b 481 728 478 769 478 749 b 489 682 482 711 482 694 b 496 674 492 681 494 675 b 504 661 499 668 501 667 b 518 610 513 643 515 624 b 511 546 519 589 519 567 b 506 539 511 543 508 542 b 504 532 506 536 506 535 b 501 522 501 529 501 528 b 506 532 504 525 504 529 b 518 551 511 539 513 543 b 565 567 532 565 550 572 b 586 556 574 565 582 558 l 607 536 b 619 525 610 535 614 529 b 603 482 626 508 617 489 b 583 475 597 478 590 478 b 576 474 582 475 579 474 b 535 410 556 464 543 435 b 532 400 532 407 532 403 b 542 389 532 397 539 390 b 553 376 546 386 549 381 b 567 360 556 372 563 363 b 576 356 569 357 572 356 b 610 335 586 350 597 346 b 628 294 621 322 626 308 b 636 278 631 289 633 282 l 647 258 b 667 228 654 249 661 240 b 671 176 671 211 671 193 l 671 163 b 688 163 678 163 682 163 l 694 164 l 699 160 b 735 118 715 150 725 133 b 751 78 739 106 746 92 b 758 42 756 65 756 54 m 403 861 b 374 876 393 864 383 868 l 374 864 l 376 861 l 410 854 b 407 860 410 857 407 860 b 403 861 407 861 404 861 m 506 381 b 501 396 504 386 501 390 b 504 421 499 404 501 414 b 565 501 515 451 532 489 b 576 506 569 504 572 504 b 586 511 579 506 583 508 l 589 511 b 586 513 589 513 589 513 l 567 529 b 558 536 563 532 560 536 b 543 529 553 539 549 535 b 535 515 539 525 536 519 b 522 501 529 511 528 506 b 481 478 518 494 504 475 l 468 481 l 468 492 b 475 549 465 515 468 532 b 481 553 478 551 478 551 b 482 560 481 556 482 558 b 488 606 489 572 488 590 b 475 644 485 621 482 636 b 471 657 475 650 474 651 b 461 668 468 660 464 664 b 450 725 451 688 451 706 b 438 772 447 742 447 760 b 431 782 435 775 433 776 b 419 800 426 786 421 793 b 411 836 411 813 411 824 b 410 850 411 840 411 844 l 403 836 b 390 796 393 822 386 807 l 390 790 b 393 779 390 789 393 783 b 386 756 393 769 388 763 l 386 753 b 374 715 379 742 376 729 b 367 685 372 706 372 694 b 319 631 360 661 343 640 l 325 572 b 315 532 325 565 325 543 b 294 522 308 525 301 522 b 278 525 288 522 279 525 b 275 528 275 525 275 528 l 275 525 l 271 519 l 264 501 b 238 381 257 461 247 421 "},"b":{"ha":651,"x_min":0,"x_max":0,"o":"m 599 531 b 615 476 613 517 619 494 b 582 439 610 460 599 446 b 575 375 575 422 572 399 l 575 371 b 578 351 575 365 578 358 b 572 331 575 344 575 338 l 554 271 b 551 263 554 269 554 267 b 511 264 542 250 521 253 b 507 276 508 269 507 274 b 504 281 504 278 504 278 b 493 281 501 283 497 283 b 485 264 488 278 485 271 b 474 231 485 253 483 239 b 454 224 469 226 463 224 b 436 240 447 226 440 231 b 424 267 431 247 426 257 b 422 263 424 264 422 264 b 417 246 419 257 419 253 b 413 224 417 239 415 231 b 386 186 408 208 396 196 b 339 146 372 172 356 158 l 315 128 l 314 158 l 314 172 b 311 163 311 169 311 165 b 304 144 308 158 307 151 b 283 122 300 135 290 128 l 281 121 b 274 111 278 118 274 114 l 281 114 l 285 101 b 292 78 290 92 290 85 b 294 61 292 74 294 68 b 288 10 308 29 294 14 b 247 14 276 3 260 6 b 231 36 240 22 236 29 l 222 54 l 206 50 b 176 64 196 47 183 53 l 183 50 l 165 46 b 128 31 151 40 139 36 b 125 26 125 29 125 29 b 128 14 122 26 125 19 b 132 -4 129 10 132 3 b 121 -47 135 -21 125 -35 b 111 -65 115 -54 111 -61 l 111 -72 l 78 -75 l 78 -62 l 78 572 b 67 579 75 572 71 575 b 57 619 54 588 47 603 l 60 625 l 67 626 l 78 626 l 78 985 l 106 971 b 114 967 108 968 111 968 b 142 924 132 954 142 940 b 135 897 142 914 139 904 b 132 886 135 893 132 886 b 135 883 132 886 132 883 l 138 881 b 158 829 153 872 160 853 b 156 813 158 822 158 818 b 156 788 156 804 153 796 b 172 764 156 778 163 768 b 193 754 179 758 186 754 b 222 772 203 764 213 771 l 238 772 b 246 775 240 772 243 775 b 276 788 254 775 267 782 b 331 804 292 796 311 806 b 361 785 344 801 356 794 b 361 764 363 775 363 768 b 318 700 358 747 351 710 b 307 697 314 697 311 697 b 300 696 304 697 301 697 l 301 683 b 304 674 301 681 304 676 l 318 674 b 354 669 328 676 342 679 b 365 613 365 663 375 649 b 346 592 363 608 361 596 b 314 610 332 588 318 594 b 308 618 311 613 311 615 l 308 622 b 300 626 307 625 307 625 b 115 601 238 643 169 633 b 111 599 114 601 111 601 l 111 589 b 125 572 115 585 121 578 b 139 558 129 565 135 561 b 172 558 146 551 158 556 b 200 564 182 561 192 564 b 236 558 213 564 224 561 b 276 558 253 556 264 554 b 283 561 278 558 281 561 b 308 568 290 565 297 571 b 349 540 328 568 339 551 b 382 501 358 525 369 514 b 406 490 392 494 399 490 b 433 493 415 488 424 490 l 500 511 b 521 511 504 511 511 514 b 535 501 528 510 532 507 b 539 500 538 501 538 501 b 551 500 542 497 547 500 b 558 510 554 501 558 507 b 568 533 558 517 558 525 b 599 531 578 540 589 538 m 153 738 b 125 785 138 750 128 765 b 125 818 122 794 122 806 b 128 829 125 822 125 825 b 118 856 128 842 125 853 l 115 858 l 111 863 l 111 636 b 276 663 160 663 219 672 b 271 674 274 667 274 672 b 281 721 268 681 264 707 b 304 728 288 726 297 728 b 308 731 307 728 308 728 b 331 768 318 733 325 744 l 331 771 b 328 771 331 771 331 771 b 292 758 318 772 304 765 b 247 742 278 751 264 744 l 240 742 b 231 742 236 742 233 742 b 217 733 224 740 219 735 l 214 726 l 206 724 b 153 738 189 721 169 726 m 338 643 b 331 646 335 643 332 646 l 332 643 b 338 633 335 642 338 636 l 338 643 m 585 493 b 563 471 579 483 572 476 b 521 476 549 464 532 467 b 517 479 518 476 517 479 b 511 481 514 481 511 481 l 507 481 l 440 463 b 400 460 429 460 415 457 b 363 479 385 463 372 469 b 322 521 346 490 335 504 b 307 538 318 528 311 538 b 297 533 304 538 300 535 b 288 528 292 531 290 531 b 231 528 268 521 247 525 b 203 531 219 531 210 533 b 179 528 196 531 189 531 b 122 531 163 524 142 518 b 111 540 118 533 114 535 l 111 57 l 114 57 b 139 71 121 61 129 67 b 139 88 139 76 138 81 b 153 111 139 97 146 107 b 176 114 163 115 169 118 l 182 114 b 210 131 189 122 199 131 l 219 131 l 260 53 b 268 38 261 46 264 40 b 267 50 268 40 268 46 b 260 74 261 60 261 67 l 260 81 b 250 88 257 83 253 85 b 240 114 243 94 238 104 b 261 146 243 131 254 139 l 264 146 b 276 158 268 151 274 156 b 281 169 278 161 278 165 b 307 206 283 182 288 200 b 339 186 321 208 332 200 b 363 210 349 193 356 200 b 385 236 372 217 379 226 l 386 250 b 393 274 389 257 389 267 b 422 300 399 288 410 297 b 447 297 431 301 440 301 l 454 293 l 454 283 l 454 278 b 478 308 460 290 467 301 b 531 300 494 318 518 314 l 542 339 b 544 354 544 344 544 349 l 544 365 l 544 372 b 556 460 539 403 544 436 l 561 467 l 568 469 b 585 483 575 469 582 476 "},"c":{"ha":949,"x_min":0,"x_max":0,"o":"m 914 254 b 908 250 911 254 908 253 l 908 240 b 908 219 908 236 911 226 b 867 192 901 199 881 193 l 861 189 b 838 179 854 186 844 185 b 826 168 831 175 829 172 l 826 163 b 844 146 831 163 840 158 l 844 139 l 840 132 b 796 104 829 121 813 108 l 790 104 l 786 107 b 760 111 776 108 768 111 b 742 107 753 111 746 111 b 736 100 742 104 739 101 b 732 92 735 97 735 94 b 728 85 729 90 729 88 b 718 74 722 81 718 76 l 718 68 b 715 57 718 67 718 61 b 701 43 714 53 706 46 b 682 46 694 40 690 43 b 674 57 675 47 674 54 b 660 60 671 60 668 61 l 654 60 b 607 50 638 57 621 54 b 597 36 606 50 600 40 b 582 14 593 29 589 22 l 579 13 l 574 7 b 574 6 574 7 574 6 b 572 -1 574 3 572 0 b 549 -18 567 -11 558 -18 l 539 -18 l 535 -8 b 522 10 532 -1 528 3 b 518 0 519 7 519 3 b 494 -4 508 -7 499 -7 l 468 -4 b 421 0 454 -7 438 -7 b 397 24 411 6 403 14 b 396 36 397 24 396 29 b 400 47 396 40 397 46 l 400 53 b 396 54 397 54 397 54 b 389 53 396 54 393 53 b 365 53 383 53 374 50 b 350 64 357 54 353 60 b 346 67 349 64 349 67 b 336 68 343 68 342 68 b 326 64 332 68 329 67 b 308 50 322 57 313 53 b 303 47 306 50 306 47 b 268 47 292 40 278 40 b 258 60 264 53 258 54 b 240 85 251 67 244 76 b 226 108 235 90 228 100 b 221 135 221 118 221 125 l 218 139 b 108 271 211 199 164 253 l 101 274 b 79 281 94 276 86 278 b 65 290 72 283 68 288 l 61 294 l 56 314 b 242 843 -7 510 71 728 b 829 788 426 964 671 940 b 888 714 850 764 871 740 l 861 696 b 806 764 844 721 826 742 b 258 815 660 907 431 931 b 86 321 99 710 28 504 l 89 311 b 94 308 92 311 92 311 b 110 304 99 307 103 307 l 118 301 b 251 144 186 281 240 217 l 251 138 b 254 121 251 131 254 125 b 265 101 257 114 261 108 b 282 76 271 94 278 85 b 285 74 285 76 285 74 b 289 76 285 74 288 76 b 296 78 292 78 294 78 b 301 83 299 81 301 81 b 332 100 308 92 319 100 b 367 92 343 101 357 100 b 372 85 367 90 369 88 b 376 83 374 85 374 83 l 383 83 b 400 85 389 85 393 85 b 428 64 411 83 421 76 b 428 36 433 54 433 43 l 435 29 b 468 26 443 24 454 26 b 488 26 474 26 481 29 l 488 31 b 515 50 489 43 501 53 b 535 40 525 50 529 46 b 549 26 542 36 546 31 l 558 36 l 560 38 b 569 53 563 40 567 46 b 597 81 574 61 583 76 b 651 90 614 85 633 88 l 654 90 b 690 85 668 92 681 90 b 701 107 692 94 697 101 b 706 111 704 108 706 111 b 711 115 708 114 708 115 b 722 131 714 121 715 125 b 763 142 732 139 746 144 b 790 138 772 142 782 139 b 803 142 796 139 800 139 b 799 179 796 151 793 165 b 822 206 800 189 810 199 b 854 219 831 213 843 217 l 860 222 b 878 229 867 224 876 226 l 878 239 b 878 254 878 243 876 247 b 901 285 881 269 890 281 l 914 254 "},"d":{"ha":963,"x_min":0,"x_max":0,"o":"m 925 538 b 928 518 928 533 929 525 b 921 507 925 514 921 510 b 881 488 914 500 899 486 b 864 493 874 488 869 490 b 874 467 871 486 875 476 b 851 450 871 457 861 450 b 836 450 844 447 840 450 l 833 453 b 786 460 807 460 790 463 l 779 453 b 753 440 775 447 767 439 b 742 443 749 440 743 440 l 739 440 l 728 432 l 739 432 b 790 408 749 432 779 433 l 800 389 l 776 386 b 718 361 756 385 735 375 b 751 339 728 361 749 358 b 743 324 751 332 749 328 b 718 314 736 314 725 314 b 667 278 697 311 681 294 l 661 274 l 657 274 b 651 269 654 274 651 271 b 651 263 650 267 650 264 l 654 254 l 651 247 b 626 219 647 236 638 224 b 633 217 628 217 631 217 b 638 219 635 219 635 219 b 657 226 643 222 650 226 b 697 186 671 226 688 219 b 699 172 697 185 699 179 b 689 158 697 163 692 158 b 681 151 688 156 682 154 b 668 135 675 146 667 139 l 668 132 b 668 122 668 128 668 125 b 651 90 671 108 664 97 b 614 88 640 83 626 81 b 610 90 614 88 613 90 l 607 92 b 596 85 607 92 603 90 b 569 61 586 76 579 67 l 543 46 l 535 53 b 525 53 532 54 526 54 b 508 47 519 50 515 47 b 494 54 501 47 496 53 l 488 60 b 468 71 481 67 475 74 b 451 60 464 71 458 67 b 442 50 450 57 447 53 b 396 29 428 38 411 33 b 357 10 381 24 364 19 b 319 -1 353 3 336 -14 b 310 31 308 3 306 17 l 318 40 b 319 43 318 40 319 43 b 319 53 322 47 322 53 b 313 53 319 54 315 54 b 296 40 308 50 301 46 b 264 36 285 29 271 33 l 264 33 b 251 -7 264 24 265 6 b 228 -14 244 -14 233 -14 b 179 -35 207 -14 190 -21 l 174 -40 l 167 -40 b 147 -28 157 -40 150 -35 b 147 -4 143 -21 143 -11 b 132 -17 143 -8 139 -14 b 82 -17 125 -21 96 -24 l 72 -11 l 72 917 b 68 914 71 917 71 914 l 47 938 b 78 957 56 944 68 951 b 139 967 89 964 115 975 b 163 944 147 961 156 951 b 179 900 169 935 183 919 b 176 889 179 896 176 893 b 183 893 179 889 181 890 b 188 914 186 900 188 910 b 190 933 188 921 188 926 b 214 954 194 944 207 950 b 247 958 221 957 233 961 b 275 914 271 951 272 924 b 268 897 275 907 272 900 b 249 893 264 893 256 893 b 240 900 244 896 242 897 b 235 897 238 900 235 897 b 238 893 235 897 235 896 b 238 874 238 889 240 881 b 233 863 238 869 235 865 l 233 860 b 238 843 231 856 231 849 b 261 826 242 836 251 832 b 275 850 271 835 275 842 l 275 853 b 292 883 278 863 279 876 l 306 890 l 313 879 b 319 883 315 879 318 881 b 325 886 322 883 322 886 b 357 900 333 893 343 900 b 376 896 367 900 372 897 b 386 893 379 893 383 893 b 396 896 386 893 390 896 b 414 886 403 896 410 890 b 414 863 418 879 418 869 b 397 846 410 853 403 849 l 388 843 l 381 849 b 360 842 379 850 369 849 l 339 819 b 342 818 339 819 339 819 b 356 781 353 811 360 794 b 343 765 353 771 349 765 l 343 764 b 336 747 343 757 339 751 b 332 742 333 744 332 742 l 339 735 l 342 733 b 349 724 343 731 346 726 l 353 726 b 357 733 356 726 357 728 b 360 742 360 735 360 738 l 360 750 b 372 778 360 761 364 772 b 397 785 379 785 388 788 b 414 771 404 782 411 778 b 410 740 418 757 411 747 b 414 744 410 742 411 742 l 418 750 l 435 764 l 442 765 l 447 764 b 464 750 454 761 458 757 b 461 724 465 742 465 733 b 444 710 457 717 450 714 l 442 707 b 440 704 440 707 440 707 b 442 700 440 703 440 703 b 435 672 447 688 442 676 b 407 672 424 663 411 669 l 404 672 b 404 669 404 672 404 669 b 414 656 404 664 407 660 l 417 653 b 438 669 424 657 431 664 b 457 683 444 674 450 679 b 478 696 464 688 471 690 b 494 704 482 697 489 700 b 511 726 504 711 511 718 l 511 733 b 511 751 508 738 508 744 b 535 778 513 765 522 775 b 558 775 542 782 550 781 b 569 761 565 772 567 765 b 558 735 569 747 560 740 b 553 733 556 735 556 733 b 556 731 556 733 556 731 b 556 704 558 724 560 714 b 529 674 550 690 539 683 l 525 672 b 511 653 515 664 511 657 l 511 649 b 511 639 511 646 511 642 b 482 608 508 625 499 613 b 464 606 475 606 471 606 b 468 596 465 601 465 599 b 519 531 485 572 504 551 b 525 535 522 533 522 535 b 553 571 532 547 542 561 b 581 578 563 575 572 578 b 597 565 589 575 593 571 b 593 531 607 551 597 538 l 596 531 b 607 535 600 531 603 533 b 619 542 610 538 614 540 b 626 544 621 542 624 542 b 643 538 633 544 638 542 b 650 517 650 531 651 524 b 635 497 650 510 644 501 b 624 488 633 493 628 490 b 613 481 619 486 614 483 l 613 479 b 624 479 614 479 619 481 b 638 474 628 479 635 476 b 643 471 640 474 643 471 b 657 481 644 471 650 474 b 674 493 661 486 667 488 b 697 517 682 500 692 507 b 718 556 706 528 715 542 l 718 558 b 722 572 721 564 721 568 b 756 594 728 585 742 592 b 783 592 767 594 776 592 b 790 599 783 592 786 592 b 797 606 797 603 797 606 b 790 603 796 606 793 606 b 776 596 789 601 783 596 b 758 606 769 596 765 599 l 743 626 b 729 650 736 632 732 642 b 739 686 725 664 729 679 b 782 686 756 697 772 690 b 789 683 783 683 786 683 b 813 686 796 681 806 681 l 819 693 b 833 704 824 697 829 700 b 890 700 850 717 874 714 b 904 679 899 696 904 686 b 897 657 904 672 901 664 b 881 650 892 653 888 650 b 867 656 874 650 868 653 b 851 650 861 657 854 656 l 844 643 b 854 646 850 643 851 646 b 883 629 868 646 881 639 b 881 606 888 618 883 608 b 875 594 878 601 878 599 b 867 575 874 589 871 582 b 860 551 861 568 860 558 l 861 551 b 874 551 867 551 868 551 b 901 551 883 554 892 554 b 925 538 908 551 918 547 m 833 533 b 826 549 829 538 829 544 b 840 592 826 565 831 579 b 847 608 843 596 844 601 b 850 613 847 608 847 610 b 843 610 847 610 844 610 b 829 613 838 610 833 613 b 813 575 833 594 819 579 b 779 561 807 571 796 558 l 758 561 b 751 558 753 561 751 561 l 751 554 l 749 551 b 722 497 746 531 732 511 b 692 467 713 486 704 476 l 678 457 b 638 440 671 450 657 439 b 624 446 633 440 628 443 b 619 447 624 447 621 447 l 614 447 b 607 446 613 447 610 446 b 576 467 590 446 579 453 l 576 471 b 586 497 576 481 581 490 b 565 507 579 497 572 501 b 560 533 558 517 558 525 b 550 518 558 528 553 524 b 543 507 549 514 546 511 b 518 494 535 494 522 494 b 504 504 511 497 506 501 b 442 578 482 528 461 551 b 428 610 438 588 431 596 b 433 625 428 615 431 619 b 435 629 433 626 435 626 b 431 625 433 626 433 626 b 414 622 426 625 421 622 b 396 629 404 622 400 626 b 372 667 381 642 374 656 l 372 672 b 343 650 367 663 356 653 l 339 650 l 332 653 b 319 667 326 656 322 663 l 318 669 b 313 697 310 676 308 688 b 319 707 315 703 319 704 b 318 711 319 710 319 710 b 301 742 310 718 301 728 b 310 765 301 754 306 761 b 313 772 310 768 313 771 b 325 792 315 778 318 788 l 322 792 l 318 796 l 310 804 b 306 811 310 806 308 808 l 299 819 l 306 829 b 322 849 310 836 318 843 l 308 849 l 306 846 b 279 801 303 826 294 811 b 265 794 278 799 272 794 b 249 796 258 792 254 796 b 214 822 238 804 224 811 b 200 867 201 835 197 853 b 164 856 190 858 176 853 b 143 889 147 860 140 874 b 146 900 143 893 146 897 b 147 904 146 903 147 904 b 136 924 147 913 140 921 b 125 935 133 928 129 935 b 103 933 119 940 113 938 l 103 13 b 119 14 110 13 115 13 b 129 19 122 14 125 17 b 143 31 133 24 139 29 b 160 33 147 33 153 33 b 179 29 164 33 171 31 b 190 10 183 24 188 17 b 225 19 200 17 214 19 l 233 19 b 231 29 233 22 233 26 b 251 68 228 50 238 64 b 275 67 261 71 268 68 l 278 67 b 299 81 285 74 292 78 b 339 78 313 88 326 85 b 353 46 349 71 353 60 b 386 57 364 53 374 54 b 421 74 400 61 411 67 l 431 83 b 465 104 438 90 450 101 b 508 83 485 107 499 92 l 511 81 b 543 83 522 85 535 88 l 553 88 b 572 107 558 92 565 100 b 619 121 589 122 604 128 b 626 115 621 121 624 118 l 628 115 b 635 115 631 114 633 115 b 638 121 638 118 638 121 l 638 125 b 635 135 635 128 635 132 b 661 175 635 154 650 168 b 667 179 664 176 664 176 b 657 193 661 192 658 193 b 651 192 657 193 654 193 b 643 186 647 192 644 189 b 604 193 628 185 614 186 b 576 193 596 192 586 192 b 560 219 567 199 560 208 b 574 243 560 229 565 239 b 596 246 581 247 590 246 l 597 246 b 621 254 607 243 614 247 b 624 281 617 264 619 274 b 644 301 628 293 635 300 b 692 339 657 317 674 331 b 681 354 688 342 682 347 l 678 361 l 682 368 b 721 401 692 382 706 392 b 688 422 699 403 692 413 l 682 433 l 715 464 b 739 474 721 467 729 474 b 753 471 746 474 749 474 l 758 476 b 772 488 760 479 765 483 b 806 490 782 493 793 493 b 810 511 803 497 806 504 b 833 531 814 521 824 528 l 833 533 m 379 688 b 386 697 381 693 383 696 b 407 704 393 703 400 704 l 407 707 b 383 714 397 707 390 710 b 379 704 383 711 381 707 m 457 646 b 442 633 451 642 447 636 b 451 636 447 633 450 636 l 458 636 b 472 639 464 636 471 636 b 481 643 478 639 481 642 l 481 646 b 481 653 481 649 481 650 l 481 660 b 475 657 478 660 475 657 b 457 646 468 653 464 649 m 779 632 b 800 636 786 636 793 639 l 807 636 l 810 643 b 814 653 813 646 813 650 b 779 653 803 649 790 649 b 769 657 776 653 772 656 b 760 660 767 657 763 658 l 760 657 b 767 646 760 656 765 650 l 779 632 m 883 518 b 888 521 885 518 885 521 l 878 521 b 883 518 881 521 883 518 m 847 500 b 861 494 851 497 856 497 l 857 497 b 851 500 857 497 854 500 b 840 500 847 501 844 501 l 847 500 "},"e":{"ha":919,"x_min":0,"x_max":0,"o":"m 382 942 b 372 935 375 939 372 935 b 379 925 372 932 378 928 b 392 897 385 918 392 908 b 379 864 392 882 385 871 l 344 819 b 349 817 344 817 346 817 l 358 817 b 379 813 365 817 372 817 b 413 756 403 806 415 779 b 392 704 410 735 399 715 b 385 596 369 674 368 631 l 399 565 l 328 581 b 222 572 300 557 253 550 b 196 590 213 576 203 583 b 183 603 193 596 189 597 b 125 626 168 614 146 624 b 97 593 118 614 108 603 b 156 586 115 603 139 597 b 193 513 176 569 192 542 b 192 485 193 503 192 494 b 189 458 189 475 186 465 b 213 485 199 464 210 472 b 215 492 213 488 215 489 b 224 515 215 499 217 508 b 278 535 233 532 253 536 b 363 513 308 532 338 525 l 365 511 b 379 506 369 511 375 508 b 392 511 382 506 386 508 b 453 572 419 519 443 543 b 457 593 454 579 454 586 b 483 650 463 611 467 635 b 518 661 493 658 507 664 b 538 647 528 661 535 654 b 528 607 544 631 535 617 b 518 563 518 593 518 579 b 504 506 518 543 518 525 b 419 390 478 465 450 431 b 408 372 415 386 413 379 b 363 329 400 353 389 332 b 332 315 351 326 342 322 b 294 232 344 279 321 247 l 292 232 b 283 228 290 231 285 228 b 294 214 283 225 285 221 l 297 211 l 300 204 b 246 117 307 174 288 143 b 222 108 238 113 231 108 b 193 117 213 106 200 110 b 179 143 186 124 182 133 l 179 117 b 193 32 179 85 183 56 l 825 32 l 825 1 l 175 1 l 169 8 b 163 21 168 14 165 15 b 146 117 153 47 146 79 b 153 201 146 146 149 174 b 192 238 158 225 175 242 l 200 238 l 203 231 b 210 176 215 214 213 194 b 207 164 210 171 207 169 b 215 140 207 156 210 146 b 219 139 217 139 217 139 b 229 143 222 139 226 140 b 269 194 246 153 269 174 b 254 240 253 210 247 225 b 278 261 260 251 271 256 l 281 261 b 304 303 294 271 308 286 b 301 322 301 308 300 315 b 308 336 301 329 307 333 b 361 360 324 350 342 357 b 379 386 368 363 372 369 b 396 410 385 393 389 403 b 478 522 426 449 453 485 b 486 563 488 535 486 546 b 488 581 486 567 486 574 l 481 563 b 403 481 469 525 440 494 b 378 475 396 478 386 475 b 351 482 368 475 358 481 l 349 485 b 276 503 325 494 301 501 b 250 499 261 503 253 503 b 246 485 247 494 246 489 b 243 475 246 482 243 478 b 176 426 233 447 206 426 l 165 426 l 161 435 b 158 489 153 454 156 472 b 161 513 161 496 161 506 b 138 560 161 532 151 549 b 108 565 128 567 115 569 b 104 560 107 563 107 560 b 97 550 101 556 99 553 b 54 543 85 542 68 539 b 38 563 47 546 40 553 b 38 586 33 572 33 579 b 57 604 43 596 53 600 b 104 650 78 617 92 631 l 108 658 l 118 658 b 206 626 149 657 179 647 b 217 614 210 621 215 619 b 238 597 224 610 231 603 b 308 610 260 583 292 590 l 315 617 l 346 610 b 365 722 338 647 344 689 b 379 760 375 736 379 749 b 369 783 382 769 378 779 l 356 783 b 342 786 351 783 346 783 b 315 803 332 789 324 793 b 311 824 311 807 311 817 b 321 838 314 831 318 836 l 354 882 b 361 894 356 885 361 892 b 354 904 358 897 356 901 b 342 932 349 911 342 921 b 369 969 339 951 356 965 b 408 976 382 975 389 976 l 825 976 l 825 946 l 408 946 b 382 942 396 946 392 944 m 81 579 b 83 583 81 581 83 581 b 74 579 81 581 78 579 b 67 572 71 576 67 574 b 75 574 68 572 74 572 b 81 579 78 576 78 579 "},"f":{"ha":728,"x_min":0,"x_max":0,"o":"m 693 950 b 656 883 696 924 682 893 l 639 881 l 636 896 b 601 931 632 913 618 926 b 551 926 588 933 568 928 b 533 919 547 924 540 921 b 551 893 540 913 547 903 l 558 881 l 547 872 b 507 874 533 863 517 869 b 496 876 503 874 497 876 b 479 865 490 876 486 872 b 467 856 474 863 469 858 b 450 849 463 853 458 849 b 432 858 443 849 436 853 b 432 893 426 869 426 883 b 442 931 436 904 442 917 b 439 938 442 933 442 935 b 425 935 436 935 432 935 b 401 950 413 935 406 943 b 396 951 399 950 399 951 b 381 950 394 954 388 951 b 372 947 378 950 375 947 b 293 967 344 940 314 947 b 218 947 267 978 232 971 b 210 928 213 944 210 938 b 213 919 210 926 213 924 b 218 910 215 917 215 914 b 199 832 225 879 208 849 l 128 707 b 111 690 125 700 121 693 b 86 696 101 686 93 688 l 86 476 l 543 476 l 543 443 l 86 443 l 86 0 l 53 0 l 53 914 l 125 967 l 124 931 b 94 782 117 881 107 832 b 117 754 104 778 114 768 l 171 846 b 188 903 179 865 192 886 b 185 910 188 904 185 907 b 179 926 182 914 179 919 b 192 967 178 943 185 957 b 310 994 218 1001 269 1015 l 311 992 b 364 978 326 978 347 974 b 371 981 365 978 368 981 b 413 981 382 982 399 989 b 425 971 418 978 422 974 b 426 967 425 968 426 968 l 429 968 b 442 971 432 968 436 971 b 463 961 449 971 456 967 b 472 928 472 950 472 933 b 467 897 472 919 469 907 b 496 910 474 903 483 910 b 503 907 497 907 500 907 b 500 910 503 910 500 910 l 490 919 l 497 931 b 544 957 510 947 533 951 b 608 961 564 961 588 967 b 658 926 629 957 646 943 b 663 947 660 931 663 940 l 693 950 "},"g":{"ha":833,"x_min":0,"x_max":0,"o":"m 790 31 l 786 31 l 786 17 b 763 14 776 17 769 17 l 760 14 b 733 14 753 13 743 10 b 715 33 722 17 717 26 b 710 38 713 36 713 38 b 686 47 706 46 696 46 b 661 53 678 47 668 50 b 628 57 649 54 638 60 l 533 19 b 506 10 524 14 515 13 b 454 10 486 6 469 7 b 421 13 442 13 431 13 l 383 10 b 347 7 371 7 360 7 l 343 7 b 326 6 336 7 331 7 l 322 6 b 310 0 317 3 315 0 b 299 -1 306 -1 300 -1 b 286 0 293 -1 292 -1 l 246 3 b 232 10 244 3 238 3 b 228 38 221 19 228 33 l 229 38 b 225 40 228 38 228 38 l 215 40 b 204 43 211 43 207 43 b 161 74 185 47 174 61 b 144 90 157 78 153 85 b 126 92 140 92 133 94 l 124 90 b 106 88 119 90 113 88 b 83 97 99 88 90 90 b 60 132 75 107 65 118 l 58 146 b 65 161 60 154 63 158 b 96 182 75 172 86 176 b 110 189 103 185 107 186 b 113 193 113 189 113 192 l 113 196 b 110 208 110 199 110 203 b 117 229 110 217 114 224 b 119 233 119 229 119 231 b 119 240 122 233 119 239 b 122 267 119 247 117 257 b 143 290 126 278 136 285 b 124 304 133 293 126 300 b 122 308 124 307 124 308 b 117 311 122 311 119 311 b 96 317 110 311 103 311 b 83 328 89 318 86 324 b 96 354 82 335 82 344 b 96 372 99 356 100 361 b 75 429 90 392 83 410 l 65 453 l 89 453 b 106 450 93 453 100 453 l 96 471 b 93 488 93 474 90 481 b 106 501 96 497 103 501 b 144 517 119 510 131 514 l 150 517 b 167 521 157 517 161 518 b 185 538 178 525 185 533 b 178 596 181 556 178 578 b 183 696 176 629 178 660 b 176 747 185 717 185 735 l 160 761 l 181 772 b 229 792 197 781 214 788 b 256 792 235 794 246 796 b 268 785 261 789 265 788 b 269 785 268 785 269 785 b 319 801 286 789 303 794 b 326 825 324 808 324 818 l 329 835 b 354 881 331 849 338 869 b 371 889 360 883 367 889 b 381 893 374 890 376 893 b 390 910 388 900 392 907 l 364 1018 l 390 1013 b 463 971 418 1004 442 989 l 442 947 b 408 971 432 957 421 967 l 421 917 b 397 867 425 897 414 879 b 383 860 392 865 388 863 b 374 856 381 860 376 858 b 360 826 367 850 361 842 l 357 819 b 346 781 354 806 353 792 l 343 775 l 338 772 b 276 754 315 765 296 758 b 261 751 275 751 268 751 b 246 761 253 754 249 758 l 244 764 b 239 761 244 764 244 764 b 211 751 229 758 221 754 b 214 693 218 731 215 710 b 208 599 208 657 208 626 b 215 542 211 579 214 561 b 181 493 221 518 197 500 b 157 486 174 488 164 486 l 150 483 b 126 479 143 483 136 481 l 174 378 l 126 408 b 114 415 124 413 119 413 b 126 382 119 403 124 393 b 126 342 131 363 131 351 b 147 331 133 342 143 338 b 153 321 150 325 153 324 b 174 321 154 318 161 318 l 183 325 l 208 290 l 192 281 l 176 271 b 160 263 171 269 164 264 b 150 254 157 263 153 257 l 150 246 b 150 222 153 240 153 231 b 143 210 147 217 144 215 b 140 206 143 210 140 208 b 143 206 140 208 143 206 l 143 199 b 129 163 144 186 140 172 b 107 154 122 158 114 156 b 90 142 100 149 93 146 b 106 121 93 132 99 125 l 107 118 b 113 121 107 118 110 121 l 117 121 b 164 115 131 128 150 125 b 185 92 174 108 181 100 b 208 74 194 83 201 76 l 218 74 b 238 68 222 74 229 71 b 261 33 251 64 263 50 l 289 31 l 303 31 b 307 33 306 31 307 33 b 317 36 313 33 315 36 b 346 38 326 40 336 38 l 350 38 b 381 40 360 38 371 40 l 418 43 b 458 40 432 46 444 43 b 496 40 472 38 485 36 b 522 47 506 43 515 46 l 618 85 b 668 83 635 92 654 88 b 689 78 678 81 682 78 b 736 60 701 76 722 74 l 740 50 b 746 43 743 47 746 43 b 750 46 746 43 749 46 l 756 46 l 757 46 l 760 399 l 469 399 l 469 429 l 790 432 "},"h":{"ha":839,"x_min":0,"x_max":0,"o":"m 771 474 l 89 469 b 90 447 90 463 90 456 l 90 433 b 90 408 89 422 89 415 b 96 399 90 406 93 403 b 110 372 103 392 107 385 l 110 363 b 121 371 114 365 117 368 b 167 358 138 375 154 371 b 214 361 181 365 199 368 b 265 318 238 354 251 335 l 269 311 l 265 301 b 229 278 258 288 244 281 b 211 243 228 264 221 250 b 171 229 199 233 185 231 b 161 226 168 229 164 226 b 138 217 154 224 144 222 b 188 186 157 213 175 200 b 208 156 197 176 204 165 b 238 88 221 138 232 114 b 221 29 242 61 238 38 l 199 14 l 194 38 b 164 38 190 43 178 43 l 140 29 b 113 6 126 24 110 14 l 79 3 b 131 60 76 19 83 43 l 154 67 b 207 68 168 74 192 76 l 207 81 b 181 142 201 101 192 122 b 164 165 175 149 171 158 b 96 192 147 185 121 193 l 49 182 l 82 217 b 154 257 103 236 126 250 b 167 260 160 260 161 260 b 192 269 175 263 185 264 b 197 281 194 271 197 276 l 197 283 l 124 335 b 113 321 119 331 114 325 b 103 311 107 318 106 314 b 75 288 96 301 86 294 l 60 281 l 53 294 b 67 347 42 317 56 335 b 79 368 72 354 79 363 b 72 379 79 371 75 375 b 63 393 67 385 65 389 b 58 436 56 408 58 425 l 60 450 b 53 467 60 456 58 464 l 53 469 l 51 467 l 35 467 l 35 486 l 35 500 b 49 564 36 521 36 544 b 106 603 60 588 82 601 l 113 603 b 129 606 117 603 126 606 b 126 608 126 606 126 608 b 131 626 126 613 126 619 b 174 639 140 646 164 642 l 175 639 l 174 650 l 192 649 b 218 615 208 646 218 629 b 215 603 215 613 215 608 b 214 596 214 601 214 599 b 228 578 214 589 221 582 l 242 561 b 251 571 244 564 246 568 b 276 575 258 575 268 578 b 286 572 279 575 283 572 b 292 571 289 571 292 571 b 300 579 293 571 296 571 b 319 615 310 592 319 603 b 317 626 319 618 317 622 b 315 639 317 632 315 633 b 333 707 310 660 319 688 l 347 726 b 333 718 343 726 338 721 l 307 703 l 310 733 b 296 799 310 758 310 782 b 292 804 293 799 293 801 b 276 782 289 794 283 788 b 251 775 269 775 261 772 l 244 775 l 242 782 b 207 903 215 815 204 858 l 207 907 b 194 913 207 910 199 914 b 157 926 185 913 168 913 b 154 958 147 935 150 951 b 183 968 161 968 174 974 l 185 968 b 178 978 183 971 181 975 l 174 988 l 178 997 b 214 1013 185 1008 199 1013 b 244 989 228 1011 239 1001 b 246 978 246 985 246 981 b 249 981 249 978 249 981 b 261 989 253 988 258 989 b 283 985 265 992 275 992 l 315 957 l 306 940 b 329 863 324 919 326 883 b 353 865 336 867 346 867 b 381 836 364 860 374 850 b 390 806 385 826 388 818 l 390 801 b 394 796 390 799 394 796 l 432 765 l 414 742 l 376 771 b 361 788 371 772 367 778 b 357 801 360 792 360 796 b 353 822 357 808 354 815 b 340 835 347 829 346 832 l 338 835 l 336 819 l 322 822 b 313 825 319 822 317 825 b 319 819 315 825 317 822 b 340 757 336 804 340 781 b 350 758 343 758 346 758 b 374 744 360 758 369 754 b 381 724 381 740 383 731 b 374 707 378 717 376 711 l 360 688 b 346 643 350 676 343 657 b 347 633 346 642 347 639 b 350 615 350 629 350 622 b 326 558 350 592 336 572 b 293 538 322 551 310 540 b 282 540 289 538 286 540 b 265 504 286 524 279 510 l 258 501 l 771 504 l 767 978 l 800 978 l 804 0 l 774 0 m 215 978 b 214 981 215 978 215 981 b 215 974 215 978 215 975 l 215 978 m 208 943 b 218 938 211 943 214 940 b 214 951 215 943 214 947 b 208 943 214 950 211 944 m 293 890 b 275 926 292 904 283 919 l 268 931 b 251 919 263 924 258 919 b 238 919 246 917 242 917 b 239 900 239 913 239 904 b 261 811 238 869 244 836 l 261 815 b 258 832 261 819 261 826 b 256 846 258 836 256 842 b 272 893 251 867 258 883 l 283 900 l 292 890 m 110 572 b 76 549 96 571 82 561 b 67 500 67 535 67 518 l 256 501 l 204 554 b 183 594 197 564 183 578 l 183 608 b 167 608 178 606 171 606 l 160 608 b 157 596 160 606 160 601 b 114 572 153 575 129 572 l 110 572 m 136 339 l 153 335 l 144 338 m 204 332 b 174 325 192 335 178 332 l 211 308 b 229 311 218 307 225 308 b 204 332 222 321 214 328 "},"i":{"ha":592,"x_min":0,"x_max":0,"o":"m 453 943 l 365 943 l 368 904 b 349 863 369 874 356 865 b 328 863 339 860 332 863 b 322 865 325 863 325 865 b 314 856 321 865 315 860 b 311 826 308 849 311 839 l 311 782 b 299 744 311 775 311 757 b 274 733 290 738 281 735 l 268 733 b 231 693 250 728 236 711 b 261 669 244 690 257 681 l 271 653 l 254 649 b 236 622 244 643 238 633 b 238 579 233 610 236 594 l 240 568 l 228 564 b 207 547 219 561 213 554 b 221 490 200 531 207 507 b 257 457 231 479 243 467 b 275 443 264 453 271 447 b 321 368 304 419 318 393 l 321 358 l 314 354 b 260 344 297 342 275 344 b 224 342 244 347 233 347 b 210 300 213 335 213 317 b 213 208 210 269 210 239 b 226 158 213 185 217 168 b 250 144 233 151 240 146 b 271 132 257 139 264 138 b 306 74 292 118 304 97 b 304 33 308 60 306 46 l 403 33 l 403 0 l 139 0 l 139 33 l 268 33 b 275 68 275 43 278 54 b 254 107 274 85 267 97 b 236 115 250 108 243 111 b 206 135 226 121 214 125 b 179 206 186 154 182 179 b 179 300 179 239 176 269 b 207 368 179 324 183 354 b 261 378 224 379 244 378 b 288 378 271 378 281 375 b 254 417 282 392 271 403 b 238 432 250 422 244 426 b 196 471 224 443 207 456 b 182 561 176 494 165 533 b 206 588 186 572 196 579 b 206 629 203 601 203 615 b 221 663 207 642 214 653 l 219 663 l 203 657 l 200 674 b 261 764 196 714 224 757 l 268 765 b 278 768 271 765 275 765 b 281 782 281 768 281 772 l 278 826 b 282 867 278 839 278 853 b 325 896 292 886 308 897 b 335 893 328 896 332 896 l 336 893 b 336 903 336 896 336 897 l 332 943 l 189 943 l 189 975 l 453 975 "},"j":{"ha":724,"x_min":0,"x_max":0,"o":"m 676 176 b 681 149 681 169 683 158 b 667 132 678 142 674 138 b 647 132 660 131 653 132 b 600 108 626 138 607 115 b 592 94 599 104 593 100 b 551 53 579 81 569 64 b 535 47 549 50 544 47 b 514 57 525 47 518 54 b 511 60 514 60 511 60 b 485 54 504 64 490 57 l 382 13 b 288 -14 356 0 322 -14 l 274 -14 b 186 26 240 -8 213 7 b 106 83 160 43 132 64 b 35 193 74 108 35 146 b 47 222 35 206 40 215 b 94 222 64 236 82 226 b 101 219 96 222 99 219 b 136 233 113 215 129 222 b 143 278 146 246 149 263 b 129 301 142 285 136 297 b 88 293 118 308 99 304 l 65 317 b 146 328 88 335 119 347 b 174 288 160 318 169 304 b 163 215 182 263 176 233 b 92 189 146 192 118 179 b 81 193 88 192 85 192 b 68 199 78 196 71 199 l 68 193 b 128 108 68 158 96 132 b 204 53 150 90 176 68 b 278 17 226 36 251 22 b 369 40 308 14 342 29 l 474 85 b 529 85 483 90 508 100 b 535 81 529 85 532 83 l 538 81 b 565 114 546 88 556 100 b 576 128 569 118 572 122 b 643 165 596 154 619 165 b 633 172 640 168 636 169 b 615 222 619 186 617 206 b 610 246 615 229 613 239 b 600 260 607 250 606 254 b 593 271 599 264 596 267 b 582 378 575 307 579 347 b 579 425 582 393 582 410 b 582 494 579 447 576 471 b 586 551 586 517 589 535 b 606 650 583 585 592 619 b 610 663 607 653 610 657 b 619 681 615 667 617 674 b 626 707 622 688 624 697 b 600 818 631 744 615 781 b 586 853 596 829 592 842 l 568 900 l 568 904 b 561 903 568 903 563 903 b 539 903 553 903 546 900 b 508 947 528 904 511 917 b 499 971 507 954 504 968 b 481 958 497 974 488 967 b 443 938 474 950 461 935 l 450 971 b 454 978 453 974 454 976 b 515 999 468 997 492 1008 b 539 951 535 988 538 967 b 546 933 542 938 544 933 l 556 933 b 589 926 565 935 579 938 b 599 913 596 921 596 914 l 615 865 b 629 829 619 853 624 842 b 657 703 646 789 664 750 b 650 669 654 690 653 681 b 638 649 646 663 643 656 b 633 636 638 643 636 642 b 619 554 622 610 617 582 b 615 490 619 535 619 514 b 613 426 610 469 610 447 b 613 375 613 410 615 393 b 622 288 610 347 607 314 b 629 278 624 283 626 281 b 640 257 631 271 636 264 b 647 224 643 246 646 236 b 657 193 647 213 650 200 b 661 189 657 193 660 192 b 676 176 667 186 671 182 m 447 968 b 450 971 447 971 447 971 l 447 968 "},"k":{"ha":801,"x_min":0,"x_max":0,"o":"m 769 933 b 689 828 749 899 725 858 b 649 801 678 818 663 808 b 604 768 632 790 617 781 b 588 753 597 764 593 757 b 547 717 576 740 564 726 b 522 707 540 713 532 710 b 500 699 515 706 506 703 b 478 676 492 693 485 683 b 442 646 468 665 456 653 b 414 638 432 642 424 639 b 390 629 404 638 397 635 b 381 615 385 628 381 622 l 381 614 l 390 606 l 385 594 b 338 583 383 588 371 574 l 336 583 l 336 578 l 324 574 b 167 490 258 554 201 536 b 157 475 164 486 160 482 l 147 463 b 242 422 181 460 215 443 b 251 421 244 422 246 422 b 268 394 261 415 268 406 b 261 374 268 385 265 378 b 293 364 269 371 282 368 b 306 354 299 361 300 358 b 333 343 315 350 324 344 b 340 340 336 343 338 343 b 360 338 347 340 353 340 b 388 310 374 331 381 321 b 438 307 401 317 421 317 b 461 269 449 300 458 286 b 550 218 500 269 536 232 l 563 206 l 554 199 b 571 178 563 194 569 185 b 593 154 586 154 590 154 l 618 161 l 611 135 b 600 117 608 128 607 121 l 608 107 l 588 90 b 604 79 593 83 597 79 l 625 76 l 617 57 b 608 42 614 50 611 46 b 617 6 617 32 621 18 b 571 -18 607 -8 593 -15 l 571 6 l 499 -39 l 571 43 b 581 56 576 49 578 50 b 554 96 567 63 554 79 l 554 104 l 564 111 l 536 144 l 557 142 b 543 164 550 150 547 158 b 526 181 540 172 532 178 l 404 86 l 503 201 b 513 208 506 204 510 206 l 515 208 b 449 235 489 235 465 242 l 414 222 l 428 256 b 421 281 432 265 428 276 b 394 276 411 286 400 283 l 378 256 l 367 281 b 347 307 361 293 357 304 b 336 310 346 310 340 310 b 326 313 333 310 331 313 b 292 328 313 314 300 321 b 276 335 286 331 282 333 b 244 340 272 338 256 344 l 229 331 l 222 347 b 229 385 221 351 215 367 l 232 388 l 225 392 b 144 429 207 413 174 428 l 143 429 b 140 428 143 429 140 429 l 110 399 b 93 392 106 394 100 392 l 83 392 l 83 -1 l 53 -1 l 53 969 l 83 969 l 83 456 b 113 467 93 456 106 460 b 129 493 119 475 124 483 b 140 510 133 497 138 506 b 307 601 183 564 253 588 l 315 608 b 347 614 324 615 338 615 l 347 621 b 376 658 350 638 361 651 b 407 668 385 665 397 665 b 428 675 414 669 421 672 b 454 699 438 679 444 689 b 485 724 463 707 472 717 b 513 738 493 731 503 733 l 533 746 b 564 774 546 753 554 761 l 583 792 b 632 828 597 807 617 815 b 671 854 647 835 658 844 b 743 950 701 879 722 915 "},"l":{"ha":740,"x_min":0,"x_max":0,"o":"m 701 94 b 701 38 710 76 706 54 b 692 17 701 33 699 24 b 661 7 682 7 665 7 b 569 29 631 7 597 14 l 564 31 b 543 40 557 36 550 38 b 506 36 532 43 519 38 b 451 33 489 31 471 29 b 371 36 428 38 400 38 b 308 33 350 33 329 33 b 285 36 300 36 292 36 b 167 33 244 40 204 46 b 147 22 160 31 154 26 b 117 6 140 17 131 10 b 96 3 110 6 103 3 b 44 33 75 3 51 13 b 38 54 39 40 39 50 b 42 158 32 97 35 128 b 83 254 49 193 68 224 b 164 382 110 297 136 342 b 176 450 164 406 168 429 b 215 517 181 471 192 497 b 272 535 232 528 251 533 l 276 535 b 293 540 285 538 289 538 b 300 547 296 542 299 544 b 339 636 317 575 331 606 b 346 710 343 660 343 683 l 346 747 b 381 863 350 781 354 825 b 414 903 390 876 404 890 l 479 967 l 503 944 l 438 879 b 407 846 428 869 417 858 b 378 744 385 813 381 772 b 376 707 376 733 376 718 b 369 629 376 681 374 656 b 326 531 360 594 346 561 b 310 514 322 525 317 518 b 279 504 300 507 289 504 l 275 504 b 235 490 258 501 246 497 b 204 443 218 479 208 457 b 194 378 200 422 197 399 l 194 372 l 192 368 b 110 239 164 325 136 283 b 72 151 93 210 79 182 b 69 57 65 125 65 97 b 72 46 69 53 69 50 b 110 36 76 36 96 33 b 129 47 117 38 122 43 b 157 64 136 54 146 60 b 289 68 200 78 244 74 b 310 67 296 67 303 67 b 369 67 329 64 350 67 b 461 64 400 68 431 71 b 499 67 471 60 485 64 b 550 71 515 71 532 74 b 579 60 560 68 569 64 l 583 57 b 661 38 607 46 635 38 l 671 38 b 671 46 671 40 671 43 b 672 81 675 60 675 71 b 661 94 671 88 665 92 b 586 135 640 114 614 128 b 563 149 579 138 569 139 l 586 168 b 593 165 588 168 590 168 b 682 118 628 158 658 142 b 701 94 689 111 696 104 "},"m":{"ha":1167,"x_min":0,"x_max":0,"o":"m 760 835 b 749 811 746 819 746 813 l 756 792 l 733 788 b 672 757 710 785 689 772 b 692 724 682 747 686 735 b 706 697 696 714 699 703 b 722 688 708 693 715 690 b 732 686 725 688 726 686 b 797 622 760 672 781 643 l 889 501 l 882 493 b 790 375 861 457 831 417 l 786 371 b 750 324 769 354 757 339 b 756 274 743 307 743 285 l 803 233 l 740 247 b 710 263 729 250 719 257 b 696 271 706 267 701 269 b 679 271 689 274 679 271 b 682 264 679 269 679 267 b 685 253 682 260 682 257 b 640 193 686 219 651 200 l 581 163 b 546 128 564 154 546 142 l 546 114 l 532 114 b 492 90 517 111 500 101 l 489 88 b 472 71 485 83 479 76 b 418 92 451 60 428 74 b 408 121 411 101 408 111 b 404 132 407 122 407 128 b 371 179 397 149 385 165 b 338 219 360 192 347 206 b 315 297 324 243 319 271 b 317 332 313 304 310 318 b 322 338 319 335 319 338 b 315 335 319 338 317 338 l 303 331 l 296 339 b 283 363 292 344 283 354 b 289 385 282 371 283 379 b 307 393 293 389 300 393 l 310 393 b 296 450 296 408 289 432 b 353 483 306 471 329 488 b 364 507 353 483 360 488 l 367 514 b 390 556 371 528 376 544 b 397 564 392 558 394 561 l 400 564 b 378 579 390 568 385 572 b 371 626 369 594 367 610 l 381 656 l 400 629 b 418 618 404 622 411 619 b 411 690 414 642 408 667 l 411 710 l 428 707 b 517 711 458 704 489 704 b 475 778 508 735 493 758 l 472 771 b 456 751 469 757 463 751 b 432 761 451 750 442 750 b 383 842 414 788 397 813 l 378 850 l 388 863 b 404 886 394 872 401 879 b 397 903 404 893 401 900 b 392 904 397 903 394 903 l 385 904 b 371 913 378 907 374 910 b 367 914 369 914 369 914 b 343 917 360 919 353 919 b 324 903 336 914 329 907 b 300 883 322 896 315 883 b 289 889 296 883 292 886 l 282 883 b 258 881 275 876 265 879 l 67 -1 l 35 -1 l 232 910 l 238 914 b 253 917 242 917 249 919 b 269 944 253 928 256 940 b 300 924 289 950 299 933 b 333 947 310 933 319 943 b 381 943 350 951 367 950 b 388 940 383 943 385 940 b 394 935 390 938 392 935 l 400 935 b 408 933 401 935 404 933 b 435 881 431 926 439 900 b 415 846 432 867 424 856 b 446 796 425 829 435 813 l 454 836 l 475 819 b 554 704 510 792 539 750 l 560 688 l 543 686 b 442 674 510 676 478 672 b 454 606 444 650 446 629 l 458 592 l 444 588 b 432 585 439 585 435 585 b 428 544 442 571 438 554 b 415 538 424 542 418 540 b 408 533 414 535 411 533 b 397 504 401 525 400 517 l 394 497 b 347 453 381 456 360 453 b 326 439 338 456 329 447 b 333 415 324 432 326 419 b 338 413 336 415 336 415 b 354 401 343 410 350 408 b 353 365 361 389 360 375 b 347 363 350 365 350 363 b 353 361 350 361 350 361 b 357 339 357 354 360 347 b 347 321 357 331 353 325 b 346 317 347 318 346 318 b 346 301 343 314 346 307 b 367 236 350 278 354 254 b 394 200 374 224 383 213 b 435 142 408 185 425 165 b 439 128 435 138 438 132 b 444 107 439 121 442 114 b 456 100 449 101 454 97 b 463 107 458 100 461 104 l 465 108 b 517 144 478 125 496 139 b 567 192 524 168 553 185 l 625 222 b 651 250 638 229 654 239 l 651 254 b 649 274 649 260 647 267 b 665 300 649 285 656 293 b 708 300 678 307 696 307 b 713 297 710 300 713 300 b 719 335 713 311 715 325 b 763 392 729 358 746 375 l 767 396 b 849 500 803 433 831 469 l 771 603 b 717 656 757 622 740 646 b 710 660 715 657 713 657 b 682 674 701 663 692 667 b 663 711 672 686 668 700 b 647 735 656 728 654 735 l 624 740 l 638 758 b 715 815 654 788 682 808 b 736 856 717 835 732 850 l 757 879 b 833 943 779 900 803 926 l 840 944 b 868 964 854 950 865 957 l 868 967 b 872 982 868 971 868 975 b 894 992 878 989 885 994 b 922 971 908 992 915 988 l 1132 -4 l 1099 -4 l 894 947 b 854 917 888 931 868 921 l 847 913 b 781 858 821 900 800 879 "},"n":{"ha":833,"x_min":0,"x_max":0,"o":"m 768 -49 b 775 -65 772 -54 775 -58 b 772 -85 776 -72 775 -79 b 769 -89 772 -86 769 -86 l 769 -85 l 742 -99 b 742 -72 735 -86 739 -78 l 744 -71 b 735 -61 742 -65 738 -62 l 725 -51 b 714 -14 715 -40 711 -25 l 174 961 b 146 954 164 964 150 964 b 143 943 143 951 143 947 l 139 913 l 150 897 b 146 893 149 896 149 893 b 139 843 133 879 129 858 b 143 789 146 826 149 806 l 146 789 b 163 785 153 789 157 788 b 211 750 186 778 200 765 b 217 683 226 728 226 704 b 207 672 211 679 210 674 b 203 667 204 669 203 667 b 190 632 196 656 190 643 l 193 610 l 174 613 b 146 642 156 618 150 632 b 143 649 143 643 143 646 b 106 660 136 660 118 667 l 106 657 b 108 649 108 653 108 650 b 101 622 108 636 103 629 b 96 613 99 618 96 615 b 110 579 92 601 99 585 l 132 571 l 118 554 b 99 535 113 547 106 542 b 78 510 89 525 79 518 b 79 490 75 501 78 494 b 96 481 85 486 89 481 l 129 476 l 103 453 b 85 426 94 443 88 436 b 92 403 85 419 88 413 b 96 389 92 399 94 393 b 101 363 99 379 99 371 l 113 269 b 136 219 129 257 133 236 b 133 199 136 213 133 206 b 132 175 133 189 132 182 b 136 156 133 169 133 163 b 133 101 139 139 143 121 b 122 88 132 94 126 90 b 115 76 118 83 115 78 b 125 60 113 71 118 64 b 132 53 126 57 129 54 b 153 29 139 46 149 40 b 136 -65 172 0 169 -44 l 119 -37 b 126 13 136 -28 136 -4 b 110 29 122 19 118 24 l 103 36 b 85 81 88 47 79 64 b 99 107 85 92 94 101 b 106 115 101 111 103 114 b 106 149 110 125 108 138 b 101 172 103 158 101 165 b 103 200 101 185 101 192 l 103 219 b 92 246 103 231 99 243 l 85 247 l 71 358 b 65 379 68 365 68 372 b 61 392 64 385 64 386 b 54 432 56 403 51 417 b 65 460 56 443 61 453 b 54 471 61 463 58 467 b 47 517 44 486 42 501 b 78 558 51 535 65 549 b 82 564 79 561 79 561 b 65 622 65 578 58 601 b 71 633 68 626 71 629 b 75 649 72 639 75 643 l 75 653 b 79 679 75 657 72 669 b 92 688 82 681 88 686 b 167 669 118 700 150 690 b 176 686 169 674 172 681 b 181 693 179 688 181 690 b 188 700 183 696 186 697 b 186 733 193 710 193 721 b 153 757 179 742 167 750 l 149 757 b 143 754 146 757 146 757 b 110 721 132 744 119 733 b 72 710 94 704 79 704 l 56 717 l 65 731 b 96 775 72 747 85 761 l 99 778 b 110 789 103 781 108 785 b 110 829 115 801 115 818 b 110 897 99 850 99 876 b 108 917 106 904 108 913 l 110 947 b 118 971 113 954 113 961 b 188 992 126 985 143 999 l 196 992 l 200 985 l 732 14 l 760 43 b 749 54 758 47 753 50 b 721 156 725 78 688 114 l 721 158 b 722 161 722 158 722 161 b 718 165 721 161 721 163 l 715 168 b 690 236 699 182 692 206 b 683 294 690 257 688 276 l 681 297 l 683 301 b 638 467 694 361 678 422 b 626 490 633 471 626 479 b 644 524 624 507 638 517 b 651 528 647 525 650 528 b 661 549 657 533 660 542 b 681 582 667 561 671 572 l 683 585 b 685 588 685 585 685 588 b 683 589 685 588 685 589 b 650 626 674 601 661 615 l 638 636 l 644 646 b 675 679 654 660 664 672 b 671 761 661 704 651 735 b 681 772 674 765 675 768 b 688 782 683 775 688 781 b 681 792 688 785 683 789 b 667 811 675 796 668 801 b 664 842 661 822 664 835 b 671 924 668 869 671 897 l 668 924 b 640 931 660 921 647 924 b 631 954 633 938 631 947 b 633 964 633 958 633 961 l 619 974 b 633 989 621 978 626 985 b 654 989 640 992 647 992 b 668 978 661 989 667 985 b 668 961 671 971 671 967 b 674 967 671 961 671 964 l 697 997 l 701 957 b 697 836 704 917 701 876 b 694 822 694 832 694 825 b 701 813 697 819 699 818 b 718 785 708 806 718 799 b 704 751 721 768 711 758 b 697 744 701 750 699 747 b 711 686 688 728 697 704 l 722 672 l 706 663 b 681 642 697 656 688 649 b 708 610 690 629 699 619 b 718 585 711 606 721 596 b 704 561 718 572 708 565 l 701 558 b 692 540 697 554 694 547 b 674 507 688 528 683 517 b 664 500 671 504 668 501 l 657 493 b 661 488 657 493 660 490 b 714 300 706 436 725 365 b 722 239 721 281 721 260 b 738 192 722 215 728 199 l 739 189 b 756 156 746 182 758 172 b 746 138 753 146 749 142 l 744 138 b 772 76 732 121 739 107 b 796 53 779 68 789 60 l 803 40 l 751 -8 b 749 -14 751 -11 749 -11 l 768 -49 m 138 914 b 136 917 138 914 136 915 l 133 917 "},"o":{"ha":1122,"x_min":0,"x_max":0,"o":"m 1088 433 l 1054 410 b 1026 392 1044 403 1035 396 b 1021 385 1024 389 1024 386 l 969 288 b 1000 278 981 285 990 281 l 1021 271 l 1010 254 b 963 199 996 233 979 215 l 986 111 l 963 115 b 926 138 946 118 936 128 b 906 151 918 144 913 151 b 894 146 903 151 899 151 b 865 111 882 138 871 125 b 875 83 871 104 875 94 b 847 46 875 68 865 50 b 817 53 835 43 824 50 b 804 57 811 54 807 57 b 794 50 803 57 797 53 l 726 -25 b 713 -35 725 -28 722 -35 b 694 -32 708 -37 701 -37 b 671 -11 682 -28 678 -21 b 665 -7 668 -8 668 -8 b 656 0 661 -1 656 0 l 651 -4 b 635 -17 647 -8 642 -14 b 604 -17 624 -21 614 -18 b 600 -14 604 -17 601 -17 b 563 -35 583 -11 567 -21 l 556 -58 l 496 -8 l 493 -11 l 493 -14 b 485 -28 489 -18 486 -24 l 456 -14 l 456 -11 b 161 132 343 -1 239 50 b 35 464 76 222 32 342 b 181 789 39 589 92 704 b 232 832 197 804 214 818 b 222 849 231 836 228 843 l 207 881 l 242 872 b 269 856 251 869 263 865 l 303 876 b 343 893 315 883 329 890 b 401 879 367 897 385 889 l 401 886 b 381 910 397 896 390 903 l 350 940 l 393 938 b 485 957 424 935 454 947 l 499 961 l 506 951 b 524 904 515 938 522 921 b 526 890 526 900 526 896 b 524 883 526 889 524 886 b 526 881 524 881 524 881 b 533 893 529 881 533 889 b 546 921 532 900 532 914 b 576 917 556 926 567 926 b 583 910 578 914 581 913 b 593 903 586 907 588 904 b 600 897 594 900 597 897 b 604 903 600 900 601 903 b 625 917 610 907 617 914 l 631 917 l 635 914 b 649 896 642 913 649 904 b 642 863 651 886 649 872 b 588 836 631 846 610 836 l 586 836 l 583 836 b 583 832 583 836 583 835 b 593 819 586 826 588 825 b 597 813 593 818 594 815 b 604 772 607 799 610 785 l 604 771 b 607 768 604 771 604 768 b 635 811 618 781 628 796 b 649 832 638 818 642 826 b 679 839 658 839 671 839 l 686 839 b 701 849 694 839 699 842 b 699 860 703 853 701 858 l 632 924 l 715 886 b 743 869 725 883 736 879 b 756 826 756 858 760 839 b 725 801 749 813 733 806 l 722 801 b 679 768 708 792 692 782 b 686 771 682 771 685 771 b 722 765 701 772 713 768 l 732 764 b 753 761 739 761 746 761 b 767 758 757 758 763 758 b 868 700 807 751 842 731 l 901 657 l 740 714 b 736 697 739 710 736 703 b 746 679 736 688 739 681 b 760 674 749 676 753 674 l 764 672 l 776 672 b 828 656 793 667 811 664 l 838 649 l 833 636 b 794 547 826 606 811 575 b 821 551 803 549 811 551 b 881 556 840 556 858 561 l 913 551 l 888 528 b 847 493 872 517 861 504 b 831 457 838 483 826 469 b 838 453 831 456 833 453 b 844 453 840 450 842 450 l 868 463 l 868 439 b 872 396 868 425 871 410 b 878 363 875 385 875 375 b 892 372 882 363 888 365 b 903 408 899 382 901 393 l 906 413 b 935 510 913 446 922 479 b 957 540 936 518 943 533 l 1043 575 l 974 514 b 960 460 960 500 957 476 b 963 436 960 453 960 446 b 965 403 963 425 965 415 b 1004 417 979 406 990 410 b 1047 439 1014 429 1026 440 m 979 372 b 963 371 974 372 967 371 b 946 371 957 368 950 368 b 932 386 939 372 932 379 b 918 354 929 375 925 363 b 854 338 903 335 875 324 l 847 339 l 847 349 b 842 392 844 363 842 378 b 838 419 840 401 840 410 b 826 422 833 419 828 422 b 800 447 814 426 804 436 b 826 514 793 469 803 490 b 833 524 828 518 831 521 b 826 521 831 521 828 521 b 763 518 807 517 783 514 l 739 524 l 753 542 b 800 633 774 571 788 601 b 772 639 790 636 781 639 b 757 642 767 642 763 642 l 756 643 b 729 650 746 643 736 646 b 706 697 713 660 703 679 b 715 735 706 711 710 724 l 713 735 b 692 740 706 738 696 740 b 671 728 685 738 678 733 b 618 714 656 718 638 707 l 594 721 l 600 728 l 594 735 b 588 742 593 738 590 740 b 576 754 586 744 581 750 b 571 768 576 757 571 761 b 574 782 571 775 571 781 b 571 794 576 785 574 789 b 567 801 569 796 567 799 b 553 822 563 806 557 813 b 574 867 547 839 556 860 l 588 867 b 593 867 588 867 590 867 b 574 876 586 869 578 872 b 564 883 569 879 567 881 b 533 850 560 867 547 856 b 501 860 522 849 510 850 b 493 889 493 867 492 879 l 493 896 b 493 897 496 896 496 896 b 485 924 492 907 489 917 b 425 907 465 917 447 910 b 431 897 428 904 428 900 b 421 843 438 876 435 856 l 411 836 l 401 842 b 347 863 383 856 364 865 b 319 850 339 860 329 856 l 272 819 b 265 815 269 818 268 818 b 235 781 263 799 254 785 l 232 792 b 201 765 222 785 211 775 b 68 464 119 688 69 579 b 185 154 63 349 106 239 b 479 19 263 71 367 24 b 486 24 482 22 485 24 l 496 33 l 540 -7 b 607 17 557 13 583 22 b 614 14 610 17 611 14 l 624 13 b 628 17 624 13 625 14 b 644 29 632 22 638 26 b 689 14 658 36 678 31 b 696 7 692 13 694 10 b 706 -4 699 3 703 -1 l 772 68 b 800 90 776 76 786 88 b 831 81 811 90 821 85 b 840 76 833 81 840 76 b 842 83 840 78 842 81 b 835 101 842 90 840 97 l 833 108 l 835 114 b 878 172 840 138 857 158 b 908 185 888 179 899 185 b 936 169 919 185 929 176 l 926 208 l 935 215 b 969 254 946 226 957 240 l 943 263 l 922 264 m 664 799 b 675 806 668 801 671 804 l 672 806 b 668 806 671 806 668 806 l 664 799 "},"p":{"ha":668,"x_min":0,"x_max":0,"o":"m 631 585 b 631 565 635 575 633 568 b 563 521 624 538 593 518 b 549 525 557 524 553 524 b 536 528 543 525 540 528 b 525 525 532 528 526 528 b 522 521 525 525 525 524 b 519 514 522 518 519 517 b 489 483 513 500 501 493 b 468 464 479 479 472 471 l 468 463 b 456 447 465 460 464 453 b 411 456 438 436 421 450 b 407 460 411 457 410 460 b 369 463 400 464 388 467 b 360 460 367 463 363 460 b 313 453 346 456 329 450 b 289 457 303 453 296 456 l 282 460 b 225 463 263 464 244 464 b 194 453 214 460 207 457 b 178 446 190 450 183 447 b 133 436 161 440 146 439 l 133 7 l 100 7 l 100 913 b 93 907 99 913 96 910 b 72 890 86 900 79 896 l 53 917 b 72 931 61 921 68 926 b 110 957 85 940 96 950 b 190 951 133 971 169 974 l 193 950 b 204 954 197 947 197 947 b 228 968 211 958 218 967 b 278 950 247 975 268 967 b 279 921 282 940 282 928 l 279 889 b 282 869 279 881 279 876 b 301 850 285 863 289 856 b 347 832 315 842 332 835 l 353 832 b 350 835 350 832 350 832 b 347 843 350 836 347 842 l 347 874 b 378 907 350 893 363 907 b 393 907 383 907 388 907 b 411 907 401 904 407 904 l 418 914 b 431 924 424 917 425 921 b 475 919 444 931 464 933 b 479 893 479 910 479 900 l 479 890 b 503 856 479 879 492 865 b 560 818 522 836 540 819 b 593 792 593 815 593 796 b 583 775 590 782 586 778 l 501 686 b 468 664 494 679 485 667 b 438 669 458 663 447 663 b 428 679 435 672 431 674 l 428 663 b 449 625 431 646 440 632 b 522 610 471 610 494 610 l 533 610 b 607 601 560 608 583 606 b 631 585 611 601 626 596 m 567 554 b 600 571 581 551 593 558 b 533 578 579 575 556 578 l 522 578 b 432 599 492 579 458 579 b 397 657 414 613 400 633 b 417 726 394 683 400 707 b 431 735 417 726 421 733 b 449 731 438 735 442 733 b 458 707 454 724 458 717 b 456 697 458 704 456 703 l 456 696 b 458 696 456 696 458 696 l 461 696 b 478 707 465 696 472 703 l 553 788 b 482 832 522 792 499 815 b 449 889 471 843 449 863 l 449 896 b 449 897 449 896 449 896 l 447 896 b 440 890 444 896 442 893 b 428 881 438 889 432 883 b 390 874 414 872 400 874 b 381 876 388 874 383 876 l 381 869 b 381 849 378 863 378 856 l 381 842 b 381 811 383 835 388 822 b 347 799 371 794 356 799 b 346 801 347 801 346 801 b 282 822 322 804 301 811 b 251 860 265 835 256 846 b 249 890 249 872 249 881 l 249 924 l 249 935 b 238 938 247 938 239 940 b 225 931 232 938 231 935 b 178 921 215 924 201 910 b 169 928 174 924 171 926 b 133 933 160 938 146 938 l 133 467 b 167 476 143 469 154 471 b 185 481 174 479 178 481 b 218 493 194 486 207 490 b 292 490 242 497 268 497 b 299 488 293 490 296 488 b 315 483 306 486 310 486 b 350 490 326 483 339 486 b 363 493 356 490 357 493 b 425 486 390 500 410 497 b 432 481 428 483 431 483 b 440 476 435 479 438 479 l 440 481 b 471 510 447 494 461 501 b 492 528 479 517 486 521 b 494 533 492 531 494 533 b 503 547 496 538 499 542 b 540 558 510 556 525 561 b 556 556 546 558 550 556 b 567 554 560 554 563 554 "},"q":{"ha":1175,"x_min":0,"x_max":0,"o":"m 1126 342 b 1139 288 1139 324 1143 304 b 1078 246 1132 260 1103 246 b 1014 263 1054 246 1033 254 b 993 267 1000 269 993 269 b 1000 247 990 267 993 260 b 1010 193 1007 239 1021 215 b 997 179 1007 186 1003 182 b 915 115 971 156 943 138 l 1054 24 l 1035 -1 l 885 100 b 861 85 878 94 871 90 l 858 83 l 854 83 l 849 83 b 654 31 778 83 708 64 l 644 26 b 561 -4 621 13 592 -4 l 550 -4 b 496 19 529 -1 513 10 l 381 94 b 361 111 374 97 367 101 b 357 125 360 115 357 121 b 354 131 357 128 357 128 b 338 154 353 139 344 146 l 331 161 b 314 219 314 182 307 200 l 317 226 l 397 246 b 392 250 394 247 392 247 b 385 260 390 253 388 257 b 374 301 375 274 374 288 b 368 328 374 314 374 324 b 360 335 367 331 361 332 b 338 371 350 342 336 351 b 350 396 338 382 344 389 b 354 401 353 396 354 399 l 347 403 b 282 410 326 408 303 410 b 228 378 269 392 251 379 b 164 393 201 378 181 386 b 151 399 158 396 154 399 b 144 396 151 399 147 396 b 90 382 131 389 110 379 b 56 408 76 386 63 396 b 56 440 50 419 50 432 b 72 457 60 447 67 456 l 117 494 l 121 494 b 124 507 124 497 124 504 b 119 510 124 510 121 510 b 117 507 117 510 117 510 l 114 504 b 110 494 113 500 113 497 b 67 476 103 481 83 471 b 35 511 50 481 36 494 b 39 535 35 521 36 531 b 167 632 56 589 110 629 l 188 632 b 229 636 204 629 218 629 b 249 656 236 642 242 649 b 265 674 253 663 258 669 b 374 676 293 703 344 703 l 375 674 l 385 721 l 397 721 b 463 751 421 721 444 731 b 507 818 483 771 499 796 l 513 826 b 547 883 522 846 531 867 b 554 893 550 886 553 890 b 604 913 564 904 576 919 b 703 933 638 903 675 913 b 719 950 708 938 715 943 b 747 974 729 957 739 967 b 821 981 767 985 797 994 b 851 943 838 971 844 954 l 889 867 b 915 794 899 846 910 819 b 919 765 917 785 917 775 b 922 735 919 757 919 744 l 933 704 b 950 657 940 690 949 676 b 936 579 953 629 943 603 b 922 533 929 564 925 547 b 932 518 922 528 926 521 l 936 517 b 969 488 949 511 964 504 b 949 436 976 464 960 447 b 932 417 939 429 932 422 b 946 406 932 413 939 406 b 971 408 953 403 963 406 l 983 408 b 1126 342 1038 415 1096 389 m 1108 294 b 1099 325 1111 307 1106 318 b 988 378 1075 361 1031 382 b 976 375 983 378 981 378 b 940 375 967 375 953 372 b 899 417 919 378 899 393 b 925 460 899 436 915 450 b 939 479 933 467 940 474 b 925 488 939 481 932 483 l 917 490 b 892 535 901 497 889 518 b 906 589 894 554 899 572 b 917 656 913 613 919 633 b 906 693 917 667 910 679 b 892 728 901 704 894 717 b 886 764 889 740 889 751 b 885 789 886 772 886 781 b 861 853 879 811 871 832 l 824 928 b 804 951 818 940 811 947 b 767 947 794 958 778 954 b 743 926 757 940 750 933 l 722 907 b 594 881 686 881 638 869 b 581 874 588 883 588 883 b 571 863 578 869 574 867 b 540 813 557 849 550 832 l 536 806 b 486 728 524 781 510 751 b 411 690 463 707 438 693 l 401 633 l 390 633 b 357 649 374 632 364 642 l 353 653 b 286 650 336 667 306 667 b 272 636 282 649 276 642 b 246 608 265 626 258 618 b 185 599 228 596 204 599 l 167 599 b 67 525 124 599 82 568 l 65 517 b 74 507 67 511 69 507 b 83 511 76 507 82 510 b 86 517 83 514 83 514 b 90 525 86 518 89 524 b 121 540 97 535 107 540 b 150 524 133 540 144 535 b 150 483 157 511 157 494 b 131 464 147 474 140 469 l 90 433 l 83 426 b 83 422 83 426 83 425 b 96 415 86 419 90 415 b 133 425 107 413 119 417 b 151 429 138 426 144 429 b 178 422 161 429 171 426 b 225 410 197 413 211 408 b 256 432 236 410 251 417 l 260 440 l 269 440 b 354 433 299 440 326 439 b 388 408 378 429 385 417 b 375 375 390 392 381 382 b 368 368 374 372 368 371 b 378 361 371 365 375 363 b 392 349 383 356 388 354 b 404 304 404 335 404 318 b 411 278 407 293 407 283 b 415 271 411 276 414 274 b 425 226 422 263 439 246 b 401 215 418 217 408 215 l 344 200 b 354 182 344 193 353 186 b 361 176 357 179 360 176 b 385 139 371 165 381 154 b 388 132 388 138 388 135 b 390 125 388 131 388 128 l 397 121 l 513 46 b 554 26 526 38 540 29 b 628 53 578 24 604 38 l 638 60 b 849 114 699 94 774 114 b 856 118 851 115 854 115 l 679 236 l 699 263 l 886 138 b 976 203 917 156 949 179 b 983 208 979 206 981 208 b 974 229 983 213 981 219 b 969 288 957 253 957 274 b 1025 293 976 297 993 307 b 1078 276 1044 283 1061 276 b 1108 294 1089 276 1106 283 "},"r":{"ha":586,"x_min":0,"x_max":0,"o":"m 493 711 b 506 679 496 703 500 690 b 506 636 513 667 513 650 b 479 610 500 626 492 618 b 442 599 465 601 454 596 b 428 601 438 599 432 599 b 421 603 425 601 424 601 l 408 603 b 411 599 408 601 411 601 l 411 596 b 424 568 415 589 421 579 b 408 533 424 554 418 540 b 374 528 400 525 385 524 l 289 501 l 283 501 b 286 486 282 500 286 490 b 283 453 289 481 292 464 b 268 439 282 446 275 440 b 253 439 263 436 256 436 l 249 439 b 235 429 246 439 239 433 b 207 410 228 422 218 413 b 178 410 197 408 188 408 l 167 410 b 144 406 160 410 153 408 b 119 389 136 401 126 396 b 133 386 124 389 129 386 b 157 372 143 385 150 379 b 167 342 164 363 168 351 l 164 335 l 157 332 b 138 325 150 328 143 328 b 124 321 133 325 129 324 b 96 283 110 317 103 300 b 90 260 93 274 90 267 b 106 243 93 254 99 247 l 107 240 b 117 231 110 239 114 233 b 140 210 124 224 131 217 b 161 203 147 206 154 203 b 183 243 168 217 174 231 b 244 271 199 264 222 274 b 289 222 263 267 279 250 l 317 240 b 374 247 326 246 353 263 b 385 185 397 236 397 206 b 381 175 385 182 383 176 b 371 146 376 163 371 156 b 374 144 374 146 374 144 b 378 142 374 144 376 142 l 424 121 b 468 78 435 115 461 101 b 461 40 469 64 465 53 b 458 29 461 36 458 33 b 458 19 456 26 458 22 b 463 26 461 19 461 22 l 492 14 b 465 -14 489 6 482 -8 l 458 -14 b 438 -4 451 -14 444 -11 b 428 36 428 6 424 22 b 432 53 428 40 431 47 b 435 71 435 60 438 67 b 408 92 435 81 421 88 l 364 114 b 347 125 360 115 353 118 b 340 144 343 131 340 138 b 353 189 338 161 346 175 b 357 199 354 192 357 193 b 357 222 361 208 361 219 b 333 215 354 224 350 222 l 299 192 b 276 186 293 189 286 185 b 258 208 263 192 261 203 b 238 239 256 217 249 239 b 208 224 228 240 215 233 b 190 185 199 213 194 199 l 188 175 l 178 172 b 121 185 161 168 140 172 b 93 210 113 192 103 200 b 86 217 90 213 89 215 l 86 10 l 53 10 l 53 903 l 58 944 b 69 968 60 951 60 961 b 89 975 75 974 82 975 l 90 975 b 133 964 106 975 119 968 b 143 958 136 961 138 958 b 171 957 153 954 167 951 b 175 961 174 958 174 958 b 185 968 178 964 181 967 b 229 971 199 981 218 975 b 249 967 238 967 244 964 l 258 967 b 279 968 263 964 269 967 b 324 964 292 971 307 975 b 338 950 331 961 336 954 b 343 943 340 947 343 944 b 371 931 350 938 360 933 l 376 931 b 421 903 390 926 408 919 b 418 863 428 890 425 874 b 392 846 414 850 401 846 b 360 865 376 846 367 858 b 350 874 357 869 353 874 l 340 874 b 315 858 326 869 317 865 b 319 839 315 853 317 846 b 322 832 319 836 322 835 b 319 772 326 813 326 792 b 361 775 336 768 354 772 b 388 788 371 778 378 782 b 425 804 400 792 411 799 b 506 785 451 811 485 808 b 510 738 517 772 522 751 b 500 733 508 735 503 735 b 493 711 496 728 493 721 m 486 761 b 482 764 485 761 485 764 b 435 772 472 778 449 778 b 401 758 424 768 414 764 l 371 744 b 289 757 338 735 307 738 l 279 764 l 286 775 b 292 822 293 789 296 806 b 289 829 292 825 289 826 b 283 865 286 839 282 853 b 331 904 289 883 306 896 b 346 907 336 904 340 904 b 322 921 336 910 329 914 l 313 931 b 307 938 310 933 307 938 b 286 935 303 940 296 940 b 253 933 275 933 265 931 b 221 940 242 933 229 935 b 201 944 214 943 204 944 b 199 940 201 943 201 943 b 194 933 197 938 197 935 b 131 928 178 919 154 919 b 119 935 126 931 121 933 b 90 944 110 940 100 944 l 90 943 l 86 900 l 86 399 b 133 433 99 417 119 426 b 167 443 143 439 153 443 b 183 440 174 443 178 440 b 199 440 190 440 194 439 b 214 450 204 440 208 446 b 249 469 222 460 232 469 l 256 469 b 258 469 258 469 258 469 b 256 476 258 471 258 474 b 261 524 253 490 246 510 b 279 533 268 531 275 533 l 381 564 l 388 556 l 390 556 b 392 565 390 558 392 561 b 385 579 390 568 390 572 b 376 596 381 585 378 592 b 385 626 374 608 378 619 b 397 632 390 629 394 632 b 428 633 407 636 418 636 b 435 632 431 633 432 632 b 444 629 439 632 442 629 b 463 636 449 629 454 632 b 478 650 469 642 475 646 b 478 664 479 656 479 660 b 463 707 472 674 465 690 b 482 758 461 728 468 747 l 485 758 m 392 886 b 371 897 388 893 381 896 b 383 886 376 896 381 890 b 392 876 385 883 390 876 b 392 886 392 879 394 883 m 126 356 b 114 358 121 356 119 356 b 86 365 106 358 96 361 l 86 331 b 110 351 93 338 100 344 b 126 356 114 354 121 354 "},"s":{"ha":719,"x_min":0,"x_max":0,"o":"m 622 368 b 678 215 660 325 681 271 b 553 31 676 132 629 67 b 376 -7 499 6 438 -7 b 233 17 328 -7 278 0 b 72 290 125 54 54 175 l 104 283 b 244 47 88 186 150 81 b 539 60 339 13 451 17 b 647 217 606 90 646 146 b 599 347 650 264 631 311 b 400 440 549 399 475 419 b 196 535 328 463 251 483 b 135 615 186 542 149 579 l 132 615 l 132 633 b 132 639 132 633 132 636 l 132 669 b 135 726 135 688 135 707 b 139 742 135 728 135 735 b 153 754 142 750 149 751 b 176 788 165 761 169 772 b 179 799 179 792 181 796 l 179 806 b 176 825 176 811 176 818 b 197 850 179 839 190 846 b 203 856 200 853 200 856 b 219 881 210 863 214 872 b 226 896 221 886 224 890 b 247 914 228 900 235 913 b 289 896 264 921 281 910 b 294 889 292 893 292 890 b 301 876 297 883 299 879 b 315 872 304 874 311 874 b 332 874 325 872 329 874 b 332 876 329 874 332 876 b 339 896 332 881 332 889 b 356 903 342 900 349 903 b 379 893 365 903 372 897 b 417 889 390 890 406 890 b 461 883 433 886 447 883 b 501 886 478 881 492 879 l 501 896 b 499 900 501 897 501 900 l 499 910 b 514 954 497 926 501 943 b 558 968 525 964 542 971 l 575 967 l 572 950 b 576 917 569 940 572 928 b 583 886 579 907 582 896 l 583 876 b 583 869 583 874 583 872 b 586 865 583 867 583 865 l 572 836 b 553 863 563 842 556 850 b 551 876 551 867 551 872 l 551 883 b 546 907 551 890 549 900 b 539 933 544 917 542 924 b 538 931 539 933 538 933 b 529 914 532 926 529 919 b 532 907 529 913 529 910 l 532 900 b 518 858 538 874 528 863 b 460 850 497 846 475 849 l 414 858 b 369 863 397 858 383 860 l 365 863 l 360 867 l 360 865 b 313 842 358 853 346 839 b 282 850 304 842 294 843 b 267 874 274 856 268 865 b 261 879 264 874 264 876 b 257 886 261 881 258 883 b 254 881 257 883 257 883 b 247 869 251 876 250 872 b 224 832 243 856 235 842 b 217 826 221 829 219 826 b 210 819 214 825 210 819 b 210 813 207 818 210 815 b 213 801 210 808 213 806 b 204 775 213 792 210 782 b 169 726 200 761 190 738 l 167 726 l 165 726 l 165 669 b 163 633 165 657 163 646 b 217 558 163 615 193 579 b 407 471 268 511 336 493 b 622 368 485 450 565 426 "},"t":{"ha":771,"x_min":0,"x_max":0,"o":"m 750 843 l 736 815 l 713 826 l 710 835 b 699 850 710 839 703 843 b 692 856 696 850 693 853 b 678 881 685 865 679 874 l 678 883 b 631 886 663 889 647 889 b 624 883 628 886 625 886 l 639 849 l 600 865 b 590 863 597 867 593 865 b 583 856 585 860 583 858 l 581 839 l 567 839 b 553 843 560 839 554 843 b 547 846 550 846 550 846 b 540 849 543 849 540 849 b 536 813 536 843 536 822 l 536 799 l 533 781 l 515 788 b 500 778 510 788 506 785 b 496 747 496 771 496 758 b 493 697 496 731 496 714 b 493 599 493 664 492 632 b 486 558 493 588 493 572 b 461 535 479 547 469 540 l 456 533 b 446 521 449 528 446 524 b 449 511 446 518 449 517 b 454 501 451 510 454 507 b 454 471 458 493 458 481 b 435 460 449 464 442 463 b 414 464 428 457 418 463 b 401 450 411 457 407 456 l 400 447 b 397 443 400 447 397 443 b 392 419 397 436 394 426 b 390 378 388 403 385 389 b 376 317 397 356 392 331 b 378 257 374 294 374 276 b 383 243 378 253 381 247 b 385 182 388 224 394 203 l 383 175 l 381 175 b 385 172 383 172 383 172 l 397 168 l 394 156 b 421 17 390 108 397 60 l 442 -21 l 401 -4 b 331 47 374 7 346 19 b 326 68 329 54 326 64 b 322 83 324 74 324 78 b 307 97 319 88 313 94 l 296 97 l 293 111 l 293 239 b 293 253 293 243 293 247 b 289 260 292 254 292 257 l 286 264 b 283 372 265 297 265 339 l 283 378 b 289 385 286 379 289 382 l 289 392 b 289 396 289 393 289 396 b 333 471 292 426 313 453 l 324 481 l 322 481 b 322 479 322 481 322 481 b 319 474 319 479 319 476 b 310 457 317 469 314 463 b 256 443 299 443 279 439 b 244 447 253 443 249 446 b 238 469 238 453 235 460 b 244 483 238 474 239 481 b 229 488 239 483 235 486 b 218 497 225 490 222 493 b 204 483 215 490 211 486 b 185 483 197 481 192 481 l 183 486 l 181 488 b 183 540 167 504 175 525 b 188 561 185 547 190 556 l 174 588 l 232 579 b 222 649 211 601 221 633 l 228 660 l 239 660 b 324 672 272 656 303 656 l 326 674 b 343 686 331 679 336 683 b 397 681 360 696 376 693 b 407 674 400 679 404 676 b 425 664 414 669 418 667 l 422 681 b 421 757 422 707 422 731 l 392 778 b 381 792 390 782 383 785 b 378 819 376 801 376 811 l 307 819 l 307 818 b 306 801 307 813 307 806 b 275 778 300 789 289 781 b 242 788 263 775 249 781 l 238 792 l 238 796 b 229 832 235 808 235 822 b 214 843 225 839 218 843 l 208 843 b 185 846 201 843 192 842 b 171 858 178 850 174 853 l 150 850 l 154 876 b 154 900 154 886 157 893 b 144 913 151 904 150 907 b 131 924 140 917 136 919 b 114 938 126 928 119 931 l 114 933 l 103 907 l 86 928 b 28 947 75 947 49 954 l 21 978 b 89 968 42 985 67 982 l 89 971 l 86 994 l 110 988 b 131 967 119 985 126 975 b 150 950 133 961 143 954 b 168 933 157 944 161 940 b 183 913 174 928 181 921 b 188 886 188 903 188 893 b 194 879 190 883 194 881 b 199 874 197 876 199 874 l 204 874 b 214 876 206 874 211 876 b 258 843 232 876 249 863 b 268 808 263 832 265 819 l 269 808 b 275 813 272 808 275 811 b 276 819 275 815 276 818 b 286 849 276 829 279 839 l 292 853 l 435 853 l 415 826 b 408 808 407 813 407 808 b 414 804 408 806 411 804 l 451 771 l 451 765 b 456 681 454 738 456 710 l 456 664 b 444 636 456 657 456 643 b 418 632 439 632 432 629 b 390 649 407 636 397 642 b 381 653 385 650 383 653 b 357 657 371 660 361 660 b 347 653 354 657 353 656 b 343 649 347 650 346 649 b 251 626 317 625 283 625 b 253 603 249 618 249 608 b 258 599 256 601 256 601 b 272 565 265 594 279 582 b 238 549 269 558 260 547 l 221 549 b 215 535 218 544 218 540 b 242 521 228 538 238 525 b 246 517 242 518 244 517 l 251 517 l 256 518 b 292 497 272 521 289 511 l 292 488 b 293 494 292 490 293 493 b 331 514 303 510 317 517 b 346 504 336 511 343 507 l 378 471 l 383 476 b 385 479 383 476 385 479 l 394 493 b 422 494 404 501 415 497 l 422 497 b 414 521 418 504 415 511 b 439 558 414 531 418 547 l 444 564 b 458 575 451 565 456 571 b 461 596 463 579 463 588 b 463 700 458 632 461 664 b 465 747 463 717 463 731 b 472 794 465 761 465 778 b 506 818 479 804 492 815 b 524 874 506 836 506 863 b 557 876 533 879 546 881 b 574 890 563 881 567 886 b 593 897 578 893 585 896 b 601 907 594 900 597 904 b 625 917 608 914 618 917 b 693 913 649 921 672 919 l 701 910 l 703 903 b 708 890 706 900 708 896 b 715 876 710 883 713 881 b 719 874 717 876 717 874 b 739 849 726 867 733 860 m 376 46 b 361 149 364 78 360 114 b 343 182 353 156 343 169 l 340 196 l 360 200 b 353 231 360 210 354 222 b 347 250 350 239 347 243 b 346 325 340 276 343 301 l 346 332 l 350 338 b 360 365 360 342 364 356 b 361 426 353 386 357 408 b 367 447 364 433 367 440 b 368 460 367 450 368 456 l 367 457 b 322 396 347 443 322 419 l 322 392 b 319 378 322 386 322 382 l 313 361 l 310 358 b 313 281 299 335 299 301 l 314 278 b 322 263 317 274 322 269 b 326 239 326 254 326 246 b 326 122 324 200 324 161 b 353 92 338 115 347 104 b 357 76 354 88 354 83 b 361 61 357 71 360 67 b 376 46 364 54 368 50 "},"u":{"ha":833,"x_min":0,"x_max":0,"o":"m 728 893 b 749 886 735 893 742 893 l 760 876 l 753 865 b 688 801 732 839 711 818 b 660 738 683 781 675 757 l 651 731 b 647 726 650 731 650 728 l 657 731 l 660 710 b 617 646 667 679 640 656 l 614 643 b 600 636 607 642 603 639 b 597 615 597 632 597 625 b 596 589 597 606 597 599 b 576 556 590 578 583 565 b 565 533 572 547 565 540 b 582 493 563 518 572 507 b 590 481 586 488 589 486 b 614 399 607 456 610 426 b 617 375 614 389 614 382 b 606 264 621 338 617 300 b 600 253 603 260 603 257 b 590 224 596 243 593 233 b 614 158 589 200 596 175 l 617 156 b 631 138 621 151 626 144 b 621 100 636 122 633 107 b 607 92 617 94 610 92 b 528 78 582 85 553 81 b 522 68 528 78 522 74 b 506 47 518 61 513 54 b 488 38 501 43 492 40 l 426 19 b 403 14 419 17 413 14 b 350 40 381 14 365 29 l 349 43 b 299 78 332 57 315 68 b 285 85 294 81 289 83 b 238 114 268 92 251 100 b 196 208 217 132 190 168 l 203 269 l 203 276 b 200 276 203 276 203 276 b 163 271 190 278 176 276 b 118 267 149 269 133 264 b 78 285 103 267 89 274 b 72 311 68 297 71 307 b 88 325 75 321 82 324 l 88 328 b 78 339 85 332 82 338 b 72 347 75 342 75 344 b 61 378 64 356 61 368 b 61 425 58 392 56 408 b 106 457 65 443 82 460 b 133 440 119 457 126 446 b 136 436 133 439 136 439 b 153 463 143 440 149 453 b 160 476 156 464 157 469 b 94 474 142 460 113 460 b 78 501 82 483 78 493 b 88 528 78 514 85 521 l 89 528 b 75 533 85 531 79 531 b 56 579 58 542 51 564 b 78 615 61 594 68 606 b 92 636 85 622 89 629 l 92 642 b 113 672 92 650 94 667 l 119 672 b 119 688 122 679 122 686 b 115 693 119 690 118 690 b 101 707 110 696 103 700 b 108 742 94 724 103 735 b 110 744 108 742 110 742 b 125 771 118 754 122 764 b 118 826 132 788 125 806 l 113 836 b 126 926 99 876 103 910 b 167 943 139 938 153 940 b 174 944 169 943 172 944 b 197 958 188 947 196 951 b 196 974 197 964 196 971 l 226 985 b 228 951 228 975 231 964 b 181 914 224 933 207 919 b 172 913 179 914 176 913 b 146 903 163 910 153 907 b 143 846 129 889 139 858 l 146 839 b 156 761 156 815 164 788 b 139 728 150 750 143 738 b 132 721 136 726 133 724 b 133 718 132 718 132 718 b 150 700 139 717 146 711 b 150 660 156 686 153 672 b 139 643 150 657 149 649 b 122 639 133 639 126 639 l 122 636 l 122 632 b 101 594 119 615 110 606 b 88 572 94 588 89 579 b 89 561 88 568 88 564 l 94 561 b 119 544 101 558 113 556 b 115 510 129 531 119 517 b 110 501 113 507 110 504 l 113 500 b 142 501 119 493 133 494 b 146 510 143 504 143 507 b 186 531 156 518 167 535 l 193 528 l 197 521 b 183 447 207 504 183 450 b 149 408 174 433 164 415 b 108 419 126 399 115 413 b 101 426 106 422 103 426 b 89 415 99 426 92 422 b 92 385 88 406 89 393 b 96 365 92 375 94 371 b 101 363 96 365 99 363 b 115 342 106 356 110 349 b 108 301 122 328 119 311 b 122 297 113 300 118 297 b 156 301 132 294 143 300 b 210 307 172 307 190 311 b 228 293 218 304 224 300 b 233 264 235 283 233 271 l 226 206 b 258 138 224 176 242 151 b 299 114 271 128 285 121 b 313 107 304 111 308 108 b 369 67 335 94 353 83 l 372 64 b 403 46 381 54 393 46 l 417 47 l 475 68 b 488 71 481 68 485 71 l 494 83 b 525 111 499 94 506 108 b 597 122 551 111 575 118 l 600 122 b 593 132 600 128 596 131 l 590 135 b 560 229 567 161 556 196 l 569 264 b 575 276 572 267 575 271 b 583 371 586 307 589 339 b 582 393 583 379 583 386 b 565 463 579 419 576 443 b 556 474 563 467 560 471 b 532 535 543 493 529 511 b 551 575 535 551 543 564 b 565 596 558 582 563 589 l 565 615 b 576 657 565 626 565 643 b 600 674 583 664 593 669 l 606 674 b 626 693 614 679 621 686 b 624 696 626 693 626 696 b 613 728 614 703 610 717 b 631 754 617 740 624 747 b 636 758 633 757 636 757 b 660 815 650 772 654 794 l 661 819 l 667 825 b 708 860 681 835 694 846 b 694 867 704 863 699 865 b 685 883 690 872 685 876 b 694 904 685 896 692 903 b 714 924 701 913 708 919 b 763 988 735 944 753 964 l 793 975 b 738 903 782 947 758 924 b 728 893 732 900 729 896 "},"v":{"ha":943,"x_min":0,"x_max":0,"o":"m 908 938 b 888 858 904 910 897 883 b 847 804 881 836 871 813 b 821 799 838 801 831 799 b 810 796 817 799 813 799 b 797 792 804 796 803 794 l 797 778 b 803 775 800 775 800 775 b 817 764 807 772 813 768 b 831 735 824 754 828 744 b 835 704 833 728 835 717 b 813 669 835 688 826 674 b 769 688 797 667 783 672 l 763 696 b 767 606 763 664 760 633 b 776 575 769 596 772 585 l 786 540 b 776 464 790 518 793 488 b 718 432 763 440 739 433 b 722 419 719 426 722 425 l 722 406 b 715 393 719 401 718 396 b 664 389 701 382 682 379 b 635 413 651 396 644 403 l 631 415 b 618 425 626 419 621 422 b 626 408 621 419 624 413 b 621 379 628 396 626 386 l 635 379 l 650 354 b 657 331 651 347 654 338 b 654 297 658 318 657 307 b 644 283 651 293 650 285 l 642 278 l 638 276 b 581 243 617 271 597 260 b 590 203 588 233 593 217 b 564 158 588 186 579 169 b 546 151 560 156 556 151 l 533 151 b 553 114 543 139 549 128 b 550 68 563 90 556 76 b 533 60 546 64 539 61 l 532 57 b 532 53 532 57 532 53 b 532 24 533 46 536 33 b 508 7 525 13 513 10 l 458 -7 l 35 928 l 100 933 b 146 924 113 933 131 935 b 154 938 146 928 150 933 b 167 943 160 940 164 943 l 167 950 b 167 958 167 954 167 957 b 200 1011 169 985 185 999 b 224 1043 211 1022 221 1032 l 254 1039 b 221 988 251 1015 235 1001 b 200 957 208 978 200 968 b 197 950 200 954 200 951 b 185 917 197 940 197 924 b 176 913 181 914 178 913 l 176 904 b 174 869 178 896 181 881 l 169 860 l 157 863 b 131 889 143 867 136 879 b 124 897 129 893 126 896 b 103 903 122 903 115 903 l 85 900 l 478 31 l 499 38 l 501 38 b 501 46 501 40 501 43 b 501 71 499 53 499 61 b 522 88 506 83 515 85 b 526 90 522 90 525 90 l 525 104 b 501 144 518 118 510 132 b 494 161 499 146 494 154 b 501 182 494 168 496 176 b 529 186 508 186 519 189 b 539 185 532 186 533 186 l 543 182 b 546 185 543 182 543 182 b 560 208 553 189 560 199 b 550 231 560 215 557 226 l 536 240 l 546 253 b 624 304 567 278 593 294 l 624 308 b 626 324 626 314 626 318 l 618 342 l 617 347 l 588 347 l 583 354 b 586 386 576 363 579 378 b 593 392 588 389 590 389 b 596 393 593 393 593 393 b 593 401 596 393 596 396 b 590 413 593 406 590 410 l 588 419 b 586 432 586 422 586 426 b 603 456 586 440 593 450 b 651 439 617 463 633 456 l 657 433 b 678 417 664 429 671 422 b 689 415 682 415 688 415 b 681 433 685 419 681 425 l 678 457 l 694 460 b 750 481 718 463 739 464 b 756 533 758 493 760 511 b 746 565 753 544 749 554 b 736 599 743 578 739 588 b 732 703 729 633 729 669 b 746 728 732 707 732 724 b 765 728 756 733 763 731 b 793 710 776 726 786 718 b 804 700 800 703 803 700 b 804 704 803 700 804 703 b 800 726 804 711 803 718 b 793 742 797 733 796 738 b 783 750 790 744 789 747 b 776 754 781 750 779 751 l 774 754 l 774 757 l 753 750 l 758 775 b 800 826 760 801 779 822 b 819 829 807 829 814 829 b 835 832 826 832 831 832 b 857 867 847 836 851 853 b 878 943 867 890 874 917 "},"w":{"ha":1114,"x_min":0,"x_max":0,"o":"m 1071 728 b 1064 704 1074 721 1068 711 b 1040 696 1060 700 1050 696 b 1047 693 1043 696 1044 693 b 1053 676 1053 688 1054 681 b 1013 626 1047 656 1033 636 b 946 632 990 615 965 618 b 929 650 939 639 935 643 l 928 653 b 890 688 915 667 904 679 b 888 674 888 683 888 679 l 890 672 b 882 646 890 664 890 656 b 867 636 881 642 874 636 b 854 633 861 633 858 633 b 871 622 858 632 864 626 b 932 582 890 608 911 592 b 942 572 936 579 939 578 b 939 558 942 568 942 564 b 894 542 932 549 921 540 l 885 542 b 864 542 878 542 871 544 l 851 535 b 833 524 847 531 840 525 b 807 518 824 518 814 518 l 804 518 b 807 517 804 517 804 517 b 821 500 813 511 817 504 b 833 493 824 497 828 494 b 854 474 840 488 850 481 b 851 425 867 460 868 436 b 836 422 847 419 840 419 l 796 440 b 776 447 789 443 782 447 b 769 446 774 447 772 446 b 774 429 769 446 769 440 l 789 392 b 790 363 790 386 796 375 b 782 349 789 358 786 354 b 833 331 790 335 813 332 l 843 331 b 847 347 844 332 847 339 l 850 349 b 897 410 857 375 874 396 b 975 422 922 425 951 426 b 986 406 982 419 986 413 b 951 368 986 386 969 372 b 932 365 946 365 939 365 b 918 363 928 365 922 365 b 911 358 913 363 911 358 b 913 354 911 358 911 356 b 918 339 913 349 915 347 b 906 301 922 324 911 308 b 857 239 892 281 875 257 b 843 213 851 231 844 222 b 844 199 840 208 840 200 l 847 199 b 850 200 850 200 850 200 b 858 210 851 206 854 210 b 874 208 864 213 871 213 l 888 199 b 894 189 892 196 894 193 b 890 175 894 185 892 179 b 899 165 892 169 897 168 b 958 132 918 151 936 139 b 967 158 958 142 960 151 b 1007 172 976 169 993 175 b 1057 142 1031 169 1044 154 b 1061 128 1060 138 1061 132 b 1026 101 1057 107 1033 104 l 1024 101 b 1029 94 1024 100 1026 97 b 1024 68 1031 83 1026 74 b 989 19 1014 47 1003 31 b 922 7 967 6 944 0 b 911 13 918 7 913 10 l 897 17 b 888 6 894 14 890 10 b 854 -14 881 -1 871 -14 l 850 -14 b 828 0 840 -11 833 -7 b 826 38 824 10 821 26 b 831 50 828 43 831 46 b 838 67 836 57 838 61 b 817 92 838 76 826 85 l 736 154 b 729 163 732 156 729 158 b 711 189 728 172 719 185 b 638 139 685 176 654 163 b 626 100 633 131 628 114 b 596 33 621 76 617 47 b 557 31 576 19 563 29 b 543 149 526 54 539 139 b 563 158 546 156 553 161 b 572 161 565 158 569 158 b 579 169 576 163 579 168 b 579 189 581 176 579 182 b 576 217 576 199 574 208 b 621 264 579 240 597 260 b 640 267 626 267 633 267 b 661 274 650 269 657 269 b 658 304 665 278 664 288 l 657 311 b 650 354 651 324 647 338 b 621 372 638 354 626 358 b 621 401 617 385 619 393 b 624 408 621 403 624 406 b 619 415 621 408 619 413 l 617 417 b 597 483 603 436 596 460 b 586 551 600 504 593 528 b 574 592 581 564 576 578 b 572 622 572 601 569 610 b 579 646 572 629 576 639 b 583 667 583 656 586 663 b 567 679 581 672 574 674 b 557 683 565 681 560 681 b 543 700 553 686 546 690 b 546 724 539 710 543 718 l 567 772 b 574 781 567 775 569 778 b 579 796 576 782 579 789 b 567 822 576 806 572 815 b 560 836 565 826 563 832 l 319 19 b 306 7 318 13 313 7 b 289 19 299 7 292 13 l 42 978 l 72 988 l 306 83 l 539 881 b 553 893 542 889 546 893 b 569 886 560 893 565 890 b 596 839 576 869 586 856 b 610 801 600 829 607 815 b 593 757 611 785 607 765 b 574 711 589 742 581 726 b 581 707 576 710 579 707 b 611 679 593 700 607 693 b 607 633 619 663 614 646 b 603 618 604 626 603 622 b 604 599 603 610 603 606 b 614 561 607 585 611 572 b 628 481 624 535 631 510 b 643 436 628 464 633 447 l 643 433 b 654 413 647 429 651 422 b 651 392 654 406 651 396 b 650 385 650 389 650 385 l 661 385 b 674 379 664 382 668 382 b 681 354 675 379 685 372 b 688 324 678 344 682 335 l 689 317 b 682 250 692 304 704 271 b 643 236 671 239 654 236 b 628 233 638 236 633 236 b 607 213 617 231 610 222 b 610 196 607 208 607 203 b 611 165 611 186 614 176 b 590 135 607 154 600 142 b 572 128 583 132 576 128 b 574 60 567 107 569 68 l 576 60 b 596 104 589 67 590 85 b 611 156 597 122 603 142 b 697 217 633 186 668 203 b 713 222 699 219 704 222 b 728 217 718 222 725 217 b 760 175 743 208 756 192 l 836 118 b 868 67 847 108 868 92 b 861 38 868 54 864 46 b 857 26 858 33 857 31 b 857 19 854 24 854 22 b 861 26 857 22 861 24 b 888 46 868 33 875 43 b 922 40 901 50 913 46 l 932 36 b 967 46 944 33 958 36 b 996 83 979 53 986 64 l 996 85 b 989 100 993 88 990 92 l 989 108 b 982 101 986 104 983 101 b 953 100 969 94 958 100 b 881 139 928 108 901 122 b 861 161 874 144 867 151 b 858 169 861 163 858 168 b 828 172 847 165 838 168 b 813 222 810 182 807 206 b 833 257 817 236 826 247 b 881 321 850 278 867 300 b 888 332 888 328 888 332 b 885 338 888 335 885 338 b 881 347 882 339 882 342 l 881 342 l 878 338 b 854 301 875 325 871 308 b 833 300 847 297 838 300 b 753 335 803 301 767 307 b 749 351 750 339 749 347 b 760 372 749 361 756 368 l 763 375 b 760 379 763 375 760 379 l 743 419 b 743 463 742 426 735 446 b 779 479 750 474 765 481 b 807 469 790 479 800 474 l 813 467 b 800 479 807 471 803 474 b 783 493 793 483 789 488 b 765 511 779 500 772 504 b 763 533 760 517 758 525 b 804 549 774 547 793 549 b 821 551 813 549 817 549 l 833 558 b 854 571 840 564 844 568 b 882 575 864 575 874 575 b 851 599 871 582 861 589 l 831 613 b 749 649 810 626 779 646 l 736 649 b 681 664 718 649 694 649 b 678 679 678 669 675 674 b 706 714 681 697 694 704 b 722 728 713 718 719 724 b 704 751 722 731 719 738 b 671 813 668 775 665 799 b 713 842 678 829 694 842 b 753 822 728 839 742 835 b 774 782 767 811 774 796 b 772 765 774 775 772 771 b 769 758 772 764 772 761 b 779 721 767 747 772 728 l 824 683 b 857 667 836 674 847 664 l 857 672 b 864 710 854 683 858 697 b 885 724 871 718 881 724 b 906 717 897 726 904 718 b 951 674 922 704 939 688 l 953 669 l 965 657 b 1000 656 975 650 989 650 b 1010 663 1003 657 1006 657 b 969 676 996 663 982 667 b 935 742 946 690 932 717 b 894 735 921 735 908 733 b 885 742 890 735 888 738 b 882 754 882 747 882 751 l 911 849 b 918 863 911 853 913 858 b 951 876 928 874 942 876 b 956 879 951 876 953 879 b 949 881 953 879 951 881 b 929 919 939 889 925 900 b 935 933 929 926 932 931 l 944 944 b 922 940 936 943 932 940 b 885 958 908 940 894 950 b 871 968 881 961 875 967 l 885 997 b 906 982 892 994 899 988 b 922 974 913 978 918 974 b 946 989 929 974 939 981 b 967 992 951 994 960 997 l 983 978 b 989 957 990 974 993 964 l 960 917 l 960 914 b 969 907 963 913 967 910 b 989 867 979 900 996 889 b 953 846 983 849 965 849 b 942 843 951 846 944 846 l 942 839 l 921 768 b 932 778 925 771 928 772 b 944 785 936 781 942 782 b 975 804 953 792 963 799 b 1000 806 976 806 989 808 b 1024 788 1013 804 1019 794 b 1029 781 1024 785 1026 782 b 1040 771 1031 778 1036 772 l 1054 761 b 1071 728 1064 751 1071 740 m 739 761 b 739 765 739 764 739 764 b 742 772 739 768 742 771 l 743 782 b 732 799 743 788 739 794 b 713 808 728 806 719 808 b 701 804 708 808 704 806 b 722 778 699 796 708 788 m 1026 733 b 1040 728 1033 728 1040 726 b 1036 735 1040 728 1038 733 b 1024 742 1031 740 1029 740 b 1003 758 1017 747 1010 751 b 999 768 1000 764 999 765 b 990 775 996 771 993 775 l 986 775 b 969 764 982 772 976 768 b 990 754 976 764 983 758 b 1026 733 1003 747 1014 738 m 1036 696 b 1010 704 1026 697 1019 700 b 972 728 999 711 983 718 b 967 733 969 731 967 731 b 986 703 967 721 975 710 b 1033 696 1000 693 1017 690 m 749 679 b 790 672 763 679 779 676 l 760 697 b 749 710 756 703 753 704 b 722 686 743 700 732 693 b 715 681 719 683 718 683 b 736 679 719 679 729 679 l 742 679 b 749 679 743 679 746 679 m 990 138 b 990 135 990 138 989 135 b 993 118 990 131 993 125 b 1019 132 1000 131 1014 132 b 1003 142 1014 138 1010 142 l 1000 142 b 990 138 999 142 993 139 "},"x":{"ha":833,"x_min":0,"x_max":0,"o":"m 760 7 l 449 439 b 440 436 447 439 444 436 b 428 432 435 433 433 433 b 401 425 418 429 410 426 b 393 379 407 413 417 392 b 350 363 379 371 364 365 l 340 361 b 282 308 310 354 279 335 b 292 285 285 301 289 294 b 306 239 299 274 308 257 b 279 196 303 219 289 208 l 174 85 b 113 38 157 67 139 47 b 106 36 110 38 108 38 b 93 33 100 36 96 33 b 86 14 89 29 89 22 l 86 6 l 56 10 l 56 19 b 72 57 58 31 61 46 b 96 67 79 64 89 67 b 103 68 99 68 100 68 b 150 107 122 74 136 90 l 256 219 b 272 243 265 226 272 236 b 265 271 275 253 271 263 b 251 307 258 281 254 293 b 333 392 247 351 289 382 l 343 393 b 376 406 356 396 367 399 b 371 410 374 406 374 408 b 367 425 369 415 369 419 l 363 433 l 371 440 b 418 463 386 456 401 460 b 431 467 424 464 425 464 l 76 951 l 103 971 l 456 481 b 461 490 458 483 461 488 l 461 500 b 458 521 458 507 458 511 b 508 565 461 540 479 556 l 515 565 b 546 582 526 571 539 572 l 546 588 b 543 594 546 592 543 592 l 526 589 l 526 606 b 564 656 522 629 543 650 b 597 656 576 657 588 657 l 614 656 b 621 657 618 656 618 657 b 621 683 624 660 621 674 b 668 853 614 744 642 801 b 689 896 678 867 685 881 b 722 975 701 919 711 944 l 750 967 b 719 881 742 933 732 907 b 696 839 713 867 706 853 b 651 688 671 788 644 740 b 638 629 654 669 658 643 b 614 625 628 625 621 625 l 597 625 b 572 625 588 625 579 626 b 563 619 567 622 564 622 l 572 610 b 572 561 579 596 581 578 b 522 535 557 544 539 540 l 515 535 b 489 517 503 531 492 525 b 492 507 489 514 489 510 b 492 488 492 500 494 494 b 475 456 492 476 485 464 l 786 26 "},"y":{"ha":593,"x_min":0,"x_max":0,"o":"m 496 974 l 432 886 b 408 850 422 874 414 863 b 407 842 408 846 407 843 b 401 826 404 836 401 832 b 394 813 399 822 397 818 b 390 806 392 811 390 808 b 378 765 383 794 381 781 b 374 704 371 747 367 724 b 378 693 374 700 376 697 b 385 674 381 686 383 681 b 378 629 390 657 388 642 b 357 615 371 622 364 618 l 353 613 b 324 579 340 606 329 594 b 353 568 333 579 343 578 b 364 535 361 561 367 547 b 354 524 361 531 360 525 b 350 511 354 518 353 514 l 350 510 b 360 497 353 504 357 500 b 368 486 361 494 367 493 b 368 474 371 481 371 476 b 357 450 368 464 364 456 b 324 450 347 443 333 443 b 317 460 319 453 317 457 l 310 467 b 303 419 303 453 299 433 b 307 356 310 399 310 378 b 317 293 307 332 307 311 b 322 283 319 290 322 285 b 336 257 329 276 333 267 b 338 246 338 253 338 250 b 343 233 340 240 340 236 b 344 231 343 231 343 231 l 368 250 l 368 217 b 326 -1 368 142 354 67 b 260 -61 314 -31 286 -47 l 242 -72 l 143 -139 l 140 -112 b 140 -49 138 -92 138 -71 b 150 -32 140 -47 143 -40 b 175 -31 160 -25 171 -28 b 229 -7 194 -37 215 -24 b 272 68 249 14 260 40 b 289 128 279 88 286 107 b 286 158 289 138 289 149 b 289 217 286 176 283 196 b 268 276 293 233 282 253 b 239 349 253 297 236 321 b 244 378 239 358 242 368 b 246 408 246 389 249 399 b 242 426 246 415 244 422 b 232 464 236 439 232 450 b 253 511 235 483 244 497 b 268 533 260 518 265 525 b 265 544 268 535 265 542 b 260 554 263 547 263 551 b 258 558 260 558 258 558 b 246 564 256 558 251 561 b 239 610 229 572 229 594 l 242 615 b 244 618 242 615 244 615 b 222 632 235 622 228 626 b 178 681 204 646 190 663 b 167 785 157 714 161 751 b 168 804 167 792 168 799 b 171 818 168 808 171 813 b 174 843 171 826 174 836 b 164 903 174 865 168 883 b 161 907 164 904 164 907 b 154 914 161 907 157 910 b 151 933 151 919 150 926 b 157 950 151 940 154 944 b 160 958 160 951 161 958 l 190 971 b 185 938 194 957 190 944 b 182 931 185 935 185 933 b 185 928 185 931 185 928 b 194 910 192 924 192 914 b 204 843 199 889 206 867 b 201 815 204 835 204 825 b 199 801 201 811 201 806 b 197 781 199 794 199 788 b 204 697 194 750 190 721 b 242 656 214 683 228 667 b 265 643 249 650 256 646 l 275 643 l 276 632 b 269 599 282 618 275 606 l 268 594 b 265 589 265 592 265 592 b 275 588 268 589 269 589 b 290 564 286 579 290 568 b 293 556 290 561 293 558 b 299 521 299 547 303 535 b 279 493 293 511 286 501 b 265 463 272 481 265 471 b 269 440 265 457 268 450 b 293 497 272 463 279 481 l 300 504 l 307 501 b 317 500 313 501 314 500 l 317 507 b 324 528 317 514 319 521 l 324 531 l 322 544 l 331 544 b 317 549 326 547 322 549 b 310 551 314 549 313 549 b 296 558 307 551 300 551 b 290 579 290 564 289 571 b 338 642 296 606 314 629 l 343 643 b 354 650 347 646 353 649 b 354 667 357 653 357 660 b 350 679 353 672 350 674 b 343 696 347 686 344 690 b 347 775 333 724 340 751 b 361 819 350 789 354 806 b 367 829 364 822 364 826 b 371 839 368 832 371 836 b 376 850 374 843 376 846 b 381 863 378 856 378 858 b 407 904 385 879 397 893 l 469 992 m 276 358 b 276 382 276 365 276 375 b 275 371 276 378 275 375 b 269 349 272 363 269 356 b 276 321 269 339 272 331 m 319 125 b 300 54 319 101 310 76 b 253 -28 289 26 275 -4 l 253 -31 b 299 13 272 -18 290 -7 b 338 200 322 71 336 135 b 319 210 331 200 324 206 l 319 208 b 319 163 314 193 317 179 l 319 125 m 199 -62 b 171 -62 190 -65 181 -65 l 171 -82 "},"z":{"ha":1008,"x_min":0,"x_max":0,"o":"m 925 86 b 981 121 932 110 957 126 l 974 90 b 956 79 967 93 957 86 l 956 65 b 953 43 956 57 956 50 b 918 8 949 26 933 13 b 875 -4 903 6 889 1 b 790 -21 847 -11 818 -21 l 776 -21 b 743 -12 764 -18 756 -15 l 733 -11 b 668 -1 713 -6 692 -4 l 628 6 b 563 18 607 8 583 13 l 499 32 b 472 46 492 33 479 36 b 469 69 468 53 468 63 b 529 121 475 100 503 119 b 588 119 550 124 569 121 l 600 117 b 719 121 644 110 685 111 l 725 121 b 763 135 736 126 756 128 b 769 144 764 138 767 140 b 788 165 774 151 779 158 b 814 175 797 171 807 174 b 824 178 817 175 821 178 b 840 189 833 181 838 185 b 838 201 840 192 840 196 b 835 211 838 208 835 211 b 818 208 833 211 825 208 l 817 206 b 764 236 781 196 771 222 l 763 242 b 729 290 756 263 743 279 b 671 321 713 310 692 319 b 611 289 656 304 638 293 l 608 289 b 569 290 593 286 578 283 b 557 310 563 296 560 304 b 554 317 554 313 554 317 b 532 314 550 321 536 317 l 499 303 b 468 304 486 300 475 303 b 458 307 463 307 461 307 b 421 314 446 310 435 313 l 418 317 b 401 319 411 317 407 319 b 376 319 388 324 383 324 b 361 300 371 317 367 307 l 346 269 b 329 236 338 258 333 246 b 458 133 376 206 418 171 b 463 103 469 121 468 110 b 449 93 458 96 451 93 b 401 96 432 88 415 90 l 394 96 b 317 100 369 100 343 103 l 299 97 b 154 53 242 93 190 90 l 140 39 b 114 11 133 29 124 19 b 44 3 96 -4 65 -11 l 28 15 l 42 26 l 814 878 l 51 878 l 51 908 l 888 908 l 381 354 b 411 350 392 354 401 351 b 424 347 415 350 418 347 l 428 347 b 465 338 439 343 454 340 b 478 336 469 338 472 336 b 489 333 482 333 486 333 l 519 344 b 574 343 532 347 554 357 b 586 321 581 336 586 326 l 588 319 b 604 319 593 319 600 319 l 608 321 b 647 344 621 321 640 328 l 651 351 l 661 351 b 753 314 694 351 726 340 b 793 256 767 297 781 279 l 794 250 b 800 236 794 246 800 236 l 807 236 l 810 239 b 847 239 821 242 835 246 b 871 208 857 235 865 228 b 868 178 872 196 871 188 b 835 150 864 165 851 154 b 824 144 831 147 825 144 b 804 138 817 142 810 140 b 794 126 803 135 797 133 b 781 111 793 121 788 117 b 733 90 769 100 749 96 l 729 90 b 594 86 689 79 642 79 l 583 86 b 533 90 567 90 550 93 b 500 65 519 88 503 79 b 506 63 500 63 503 63 l 569 49 b 632 36 590 43 611 39 b 672 32 647 33 658 32 b 740 19 694 29 717 26 l 753 18 b 779 13 763 15 769 13 b 865 26 807 11 835 18 b 911 42 879 32 894 36 b 922 50 915 42 919 46 l 922 65 b 925 86 922 72 922 79 m 424 124 b 303 215 385 158 346 189 l 296 219 l 296 232 b 317 283 299 250 307 267 l 86 32 b 96 36 89 32 93 33 b 117 60 103 42 110 50 b 131 76 121 65 126 69 b 296 131 175 121 238 126 l 315 131 b 401 126 343 133 374 133 l 407 126 b 424 124 414 124 418 124 "},".":{"ha":1251,"x_min":0,"x_max":0,"o":"m 139 972 l 344 972 l 344 765 l 139 765 m 524 883 l 524 854 l 464 854 l 464 883 l 435 883 l 435 854 l 406 854 l 406 736 l 376 736 l 376 913 l 406 913 l 406 972 l 435 972 l 435 944 l 464 944 l 464 972 l 493 972 l 493 944 l 524 944 l 524 913 l 493 913 l 493 883 m 583 913 l 583 944 l 611 944 l 611 972 l 640 972 l 640 913 m 789 913 l 789 883 l 758 883 l 758 944 l 701 944 l 701 913 l 671 913 l 671 972 l 789 972 l 789 944 l 819 944 l 819 913 m 849 944 l 819 944 l 819 972 l 849 972 m 1113 765 l 907 765 l 907 972 l 1113 972 m 168 796 l 317 796 l 317 944 l 168 944 m 1083 944 l 936 944 l 936 796 l 1083 796 m 200 913 l 288 913 l 288 825 l 200 825 m 583 913 l 583 883 l 553 883 l 553 913 m 849 825 l 819 825 l 819 854 l 789 854 l 789 883 l 819 883 l 819 913 l 849 913 m 1054 825 l 964 825 l 964 913 l 1054 913 m 1054 678 l 1083 678 l 1083 649 l 1054 649 l 1054 619 l 1025 619 l 1025 560 l 997 560 l 997 588 l 964 588 l 964 678 l 997 678 l 997 649 l 1025 649 l 1025 678 l 997 678 l 997 706 l 936 706 l 936 678 l 907 678 l 907 649 l 876 649 l 876 619 l 907 619 l 907 588 l 936 588 l 936 560 l 907 560 l 907 529 l 936 529 l 936 500 l 907 500 l 907 472 l 936 472 l 936 500 l 964 500 l 964 529 l 1025 529 l 1025 560 l 1054 560 l 1054 619 l 1083 619 l 1083 588 l 1113 588 l 1113 560 l 1083 560 l 1083 529 l 1054 529 l 1054 500 l 997 500 l 997 472 l 964 472 l 964 442 l 936 442 l 936 411 l 907 411 l 907 442 l 876 442 l 876 472 l 849 472 l 849 442 l 819 442 l 819 472 l 789 472 l 789 500 l 758 500 l 758 529 l 731 529 l 731 560 l 758 560 l 758 588 l 789 588 l 789 529 l 849 529 l 849 500 l 876 500 l 876 529 l 849 529 l 849 560 l 876 560 l 876 588 l 849 588 l 849 560 l 819 560 l 819 588 l 789 588 l 789 619 l 758 619 l 758 588 l 731 588 l 731 678 l 671 678 l 671 649 l 701 649 l 701 619 l 640 619 l 640 588 l 611 588 l 611 649 l 553 649 l 553 619 l 524 619 l 524 736 l 553 736 l 553 796 l 524 796 l 524 854 l 583 854 l 583 883 l 611 883 l 611 854 l 640 854 l 640 825 l 583 825 l 583 706 l 553 706 l 553 678 l 611 678 l 611 706 l 640 706 l 640 736 l 671 736 l 671 706 l 701 706 l 701 765 l 731 765 l 731 796 l 758 796 l 758 765 l 789 765 l 789 736 l 731 736 l 731 706 l 758 706 l 758 678 l 819 678 l 819 649 l 849 649 l 849 678 l 876 678 l 876 706 l 907 706 l 907 736 l 1054 736 m 731 854 l 671 854 l 671 883 l 731 883 m 435 854 l 464 854 l 464 825 l 435 825 m 758 825 l 731 825 l 731 854 l 758 854 m 701 796 l 701 765 l 671 765 l 671 825 l 731 825 l 731 796 m 758 796 l 758 825 l 789 825 l 789 796 m 789 706 l 789 736 l 849 736 l 849 825 l 876 825 l 876 706 l 849 706 l 849 678 l 819 678 l 819 706 m 464 765 l 435 765 l 435 796 l 464 796 m 493 796 l 524 796 l 524 765 l 493 765 m 640 796 l 640 736 l 611 736 l 611 796 m 789 765 l 789 796 l 819 796 l 819 765 m 168 678 l 139 678 l 139 736 l 168 736 m 317 706 l 317 678 l 257 678 l 257 706 l 200 706 l 200 736 l 344 736 l 344 706 m 406 678 l 435 678 l 435 736 l 493 736 l 493 706 l 464 706 l 464 678 l 493 678 l 493 649 l 406 649 m 344 706 l 406 706 l 406 678 l 344 678 m 1083 706 l 1113 706 l 1113 678 l 1083 678 m 229 678 l 257 678 l 257 649 l 229 649 m 344 649 l 317 649 l 317 678 l 344 678 m 168 649 l 200 649 l 200 619 l 168 619 m 493 529 l 464 529 l 464 560 l 406 560 l 406 529 l 376 529 l 376 588 l 288 588 l 288 649 l 317 649 l 317 619 l 344 619 l 344 649 l 406 649 l 406 588 l 493 588 m 583 619 l 583 588 l 553 588 l 553 619 m 344 442 l 344 472 l 376 472 l 376 411 l 435 411 l 435 382 l 406 382 l 406 324 l 464 324 l 464 354 l 524 354 l 524 324 l 553 324 l 553 293 l 583 293 l 583 264 l 493 264 l 493 293 l 406 293 l 406 264 l 435 264 l 435 235 l 406 235 l 406 206 l 376 206 l 376 235 l 317 235 l 317 264 l 344 264 l 344 293 l 288 293 l 288 354 l 257 354 l 257 293 l 200 293 l 200 324 l 229 324 l 229 354 l 200 354 l 200 324 l 168 324 l 168 235 l 139 235 l 139 354 l 168 354 l 168 382 l 229 382 l 229 411 l 168 411 l 168 442 l 257 442 l 257 472 l 200 472 l 200 500 l 139 500 l 139 529 l 200 529 l 200 588 l 288 588 l 288 472 l 317 472 l 317 442 m 168 560 l 139 560 l 139 588 l 168 588 m 583 472 l 583 442 l 524 442 l 524 411 l 493 411 l 493 442 l 406 442 l 406 500 l 435 500 l 435 472 l 464 472 l 464 500 l 493 500 l 493 529 l 524 529 l 524 500 l 583 500 l 583 588 l 611 588 l 611 560 l 671 560 l 671 529 l 611 529 l 611 472 m 701 560 l 671 560 l 671 588 l 701 588 m 344 560 l 344 529 l 317 529 l 317 560 m 553 529 l 524 529 l 524 560 l 553 560 m 344 529 l 376 529 l 376 500 l 344 500 m 464 500 l 435 500 l 435 529 l 464 529 m 317 500 l 344 500 l 344 472 l 317 472 m 819 442 l 819 411 l 789 411 l 789 354 l 758 354 l 758 382 l 731 382 l 731 442 l 701 442 l 701 411 l 671 411 l 671 472 l 640 472 l 640 500 l 701 500 l 701 472 l 758 472 l 758 442 m 997 442 l 997 472 l 1083 472 l 1083 500 l 1113 500 l 1113 442 l 1083 442 l 1083 411 l 1113 411 l 1113 382 l 1025 382 l 1025 354 l 964 354 l 964 324 l 907 324 l 907 293 l 936 293 l 936 264 l 997 264 l 997 146 l 1025 146 l 1025 88 l 964 88 l 964 58 l 1054 58 l 1054 29 l 997 29 l 997 0 l 936 0 l 936 58 l 819 58 l 819 29 l 876 29 l 876 0 l 789 0 l 789 29 l 758 29 l 758 58 l 731 58 l 731 88 l 758 88 l 758 115 l 701 115 l 701 146 l 731 146 l 731 176 l 758 176 l 758 146 l 819 146 l 819 115 l 789 115 l 789 88 l 819 88 l 819 115 l 849 115 l 849 88 l 876 88 l 876 115 l 849 115 l 849 176 l 789 176 l 789 206 l 849 206 l 849 264 l 876 264 l 876 324 l 819 324 l 819 411 l 849 411 l 849 382 l 876 382 l 876 411 l 907 411 l 907 354 l 936 354 l 936 382 l 964 382 l 964 442 l 997 442 l 997 411 l 1025 411 l 1025 442 m 168 472 l 168 442 l 139 442 l 139 472 m 583 382 l 583 442 l 640 442 l 640 382 m 849 411 l 849 442 l 876 442 l 876 411 m 288 382 l 288 411 l 257 411 l 257 382 m 344 382 l 344 411 l 317 411 l 317 382 l 344 382 l 344 354 l 317 354 l 317 324 l 376 324 l 376 382 m 435 354 l 435 382 l 464 382 l 464 354 m 583 382 l 583 354 l 553 354 l 553 382 m 671 354 l 671 382 l 731 382 l 731 354 m 640 293 l 640 324 l 583 324 l 583 354 l 671 354 l 671 293 m 758 324 l 731 324 l 731 354 l 758 354 m 1113 324 l 1083 324 l 1083 354 l 1113 354 m 640 115 l 611 115 l 611 176 l 583 176 l 583 206 l 611 206 l 611 235 l 640 235 l 640 264 l 671 264 l 671 235 l 701 235 l 701 264 l 671 264 l 671 293 l 701 293 l 701 324 l 731 324 l 731 293 l 789 293 l 789 264 l 731 264 l 731 235 l 758 235 l 758 206 l 671 206 l 671 176 l 701 176 l 701 146 l 640 146 m 789 324 l 819 324 l 819 293 l 789 293 m 997 264 l 997 324 l 1083 324 l 1083 293 l 1113 293 l 1113 206 l 1083 206 l 1083 146 l 1025 146 l 1025 235 l 1054 235 l 1054 264 m 640 293 l 640 264 l 611 264 l 611 293 m 200 235 l 200 264 l 257 264 l 257 235 m 464 264 l 493 264 l 493 235 l 524 235 l 524 206 l 553 206 l 553 115 l 524 115 l 524 176 l 493 176 l 493 206 l 464 206 m 789 235 l 789 264 l 819 264 l 819 235 m 876 146 l 964 146 l 964 235 l 876 235 m 344 0 l 139 0 l 139 206 l 344 206 m 464 176 l 406 176 l 406 206 l 464 206 m 936 176 l 907 176 l 907 206 l 936 206 m 317 176 l 168 176 l 168 29 l 317 29 m 376 176 l 406 176 l 406 115 l 464 115 l 464 88 l 406 88 l 406 58 l 376 58 m 464 176 l 493 176 l 493 146 l 464 146 m 288 58 l 200 58 l 200 146 l 288 146 m 671 115 l 701 115 l 701 58 l 611 58 l 611 0 l 583 0 l 583 29 l 524 29 l 524 88 l 583 88 l 583 115 l 611 115 l 611 88 l 671 88 m 936 88 l 936 115 l 907 115 l 907 88 m 1083 115 l 1113 115 l 1113 88 l 1083 88 m 406 29 l 406 58 l 435 58 l 435 29 m 464 58 l 493 58 l 493 29 l 464 29 m 376 29 l 406 29 l 406 0 l 376 0 m 640 29 l 671 29 l 671 0 l 640 0 m 1054 0 l 1054 29 l 1083 29 l 1083 0 "}," ":{"ha":833,"x_min":0,"x_max":0,"o":""},"&":{"ha":833,"x_min":0,"x_max":0,"o":""}}}
